<?xml version="1.0" encoding="UTF-8"?>
<svg xmlns="http://www.w3.org/2000/svg" xmlns:xlink="http://www.w3.org/1999/xlink" viewBox="0 0 512 512" width="512" height="512"><defs><style>.cls-1,.cls-12,.cls-14,.cls-16,.cls-17,.cls-7{fill:none;}.cls-2,.cls-3{fill:#00ccc1;}.cls-12,.cls-15,.cls-3{fill-rule:evenodd;}.cls-4{fill:#aaeeea;}.cls-5{fill:#ff535c;}.cls-6{fill:#fff3e3;}.cls-7{stroke:#00ccc1;}.cls-12,.cls-14,.cls-16,.cls-17,.cls-7{stroke-linecap:round;stroke-linejoin:round;}.cls-8{fill:#ffb833;}.cls-9{clip-path:url(#clip-path);}.cls-10{fill:#d89071;}.cls-11,.cls-15{fill:#383333;}.cls-12,.cls-14,.cls-16{stroke:#383333;}.cls-13{fill:#d17352;}.cls-14{stroke-width:0.75px;}.cls-17{stroke:#fff;}</style><clipPath id="clip-path"><path class="cls-1" d="M335.71,227.8c9.16-15.54,15.75-40,15.24-62.18-.85-37.47-21.82-64.41-32.12-75.75a3,3,0,0,0-4.44,0c-10.29,11.34-31.27,38.28-32.12,75.75-.5,22.18,6.08,46.64,15.24,62.18a105.66,105.66,0,0,0,38.2,0Z"/></clipPath></defs><g id="Product_Planning" data-name="Product Planning"><rect class="cls-2" x="295.75" y="272.38" width="28.13" height="113.62" rx="14.06" transform="translate(619.63 658.38) rotate(-180)"/><path class="cls-3" d="M419.9,375.66h0c6.89-2.83,9.56-9.51,6-14.92L372,279.61c-3.59-5.41-12.08-7.51-19-4.69h0c-6.89,2.83-9.56,9.5-6,14.92L400.93,371C404.52,376.38,413,378.48,419.9,375.66Z"/><path class="cls-3" d="M197.92,375.66h0c-6.89-2.83-9.56-9.51-6-14.92l53.83-81.13c3.59-5.41,12.09-7.51,19-4.69h0c6.89,2.83,9.56,9.5,6,14.92L216.89,371C213.3,376.38,204.8,378.48,197.92,375.66Z"/><rect class="cls-4" x="164.76" y="47.9" width="302.21" height="250.38" rx="13.84"/><rect class="cls-2" x="152.96" y="36.58" width="325.82" height="24.65" rx="9.43"/><path class="cls-5" d="M476,98.43a83,83,0,0,1,1.65,21.13A84,84,0,0,1,468,154.24L417.5,144a77.07,77.07,0,0,0,6.93-14.2,80.12,80.12,0,0,0,4.3-36Z"/><path class="cls-6" d="M473.65,91.65a83.14,83.14,0,0,1,1.65,21.14,84.15,84.15,0,0,1-9.58,34.68l-50.53-10.24a77.07,77.07,0,0,0,6.93-14.2,80.12,80.12,0,0,0,4.3-36Z"/><line class="cls-7" x1="466.05" y1="101.89" x2="434.18" y2="98.1"/><line class="cls-7" x1="466.05" y1="110.98" x2="434.18" y2="106.35"/><line class="cls-7" x1="464.56" y1="120.55" x2="433.02" y2="115.44"/><line class="cls-7" x1="463.08" y1="130.79" x2="429.88" y2="124.02"/><line class="cls-7" x1="458.78" y1="138.06" x2="428.23" y2="132.11"/><path class="cls-5" d="M422.59,258.84A82.6,82.6,0,0,1,424.24,280a84.11,84.11,0,0,1-9.57,34.68l-50.54-10.24a78,78,0,0,0,6.94-14.2,80.09,80.09,0,0,0,4.29-36Z"/><path class="cls-6" d="M420.28,252.07a82.6,82.6,0,0,1,1.65,21.14,83.93,83.93,0,0,1-9.58,34.68l-50.53-10.24a78,78,0,0,0,6.94-14.2,80.14,80.14,0,0,0,4.29-36Z"/><line class="cls-7" x1="412.68" y1="262.31" x2="380.81" y2="258.51"/><line class="cls-7" x1="412.68" y1="271.39" x2="380.81" y2="266.77"/><line class="cls-7" x1="411.2" y1="280.97" x2="379.66" y2="275.85"/><line class="cls-7" x1="409.71" y1="291.21" x2="376.52" y2="284.44"/><line class="cls-7" x1="405.42" y1="298.47" x2="374.87" y2="292.53"/><path class="cls-5" d="M244.22,89.28a83.14,83.14,0,0,1,1.65,21.14,84.19,84.19,0,0,1-9.58,34.68l-50.53-10.24a77.07,77.07,0,0,0,6.93-14.2,80.12,80.12,0,0,0,4.3-36Z"/><path class="cls-6" d="M241.9,82.51a82.63,82.63,0,0,1,1.66,21.14A84.19,84.19,0,0,1,234,138.33l-50.54-10.24a77.06,77.06,0,0,0,6.94-14.2,79.94,79.94,0,0,0,4.29-36Z"/><line class="cls-7" x1="234.31" y1="92.75" x2="202.44" y2="88.95"/><line class="cls-7" x1="234.31" y1="101.83" x2="202.44" y2="97.21"/><line class="cls-7" x1="232.82" y1="111.41" x2="201.28" y2="106.29"/><line class="cls-7" x1="231.33" y1="121.65" x2="198.14" y2="114.88"/><line class="cls-7" x1="227.04" y1="128.92" x2="196.49" y2="122.97"/><rect class="cls-8" x="273.84" y="408.31" width="2.86" height="17.17" rx="1.08"/><rect class="cls-8" x="273.84" y="408.31" width="2.86" height="17.17" rx="1.08" transform="translate(-141.63 692.16) rotate(-90)"/><rect class="cls-8" x="442.08" y="313.48" width="2.86" height="17.17" rx="1.08"/><rect class="cls-8" x="442.08" y="313.48" width="2.86" height="17.17" rx="1.08" transform="translate(121.44 765.57) rotate(-90)"/><rect class="cls-8" x="102.99" y="32.5" width="3.51" height="21.05" rx="1.08"/><rect class="cls-8" x="102.99" y="32.5" width="3.51" height="21.05" rx="1.08" transform="translate(61.72 147.77) rotate(-90)"/><path class="cls-2" d="M287,190.76S277.31,195,275.62,203c-1.23,5.87,1.05,31.42,2.35,44.61a2.38,2.38,0,0,0,4.44.93c3.8-6.79,10.42-17.22,19.14-25.37Z"/><path class="cls-2" d="M344.73,190.76s9.7,4.22,11.39,12.23c1.23,5.87-1.05,31.42-2.35,44.61a2.38,2.38,0,0,1-4.44.93c-3.8-6.79-10.42-17.22-19.14-25.37Z"/><g class="cls-9"><path class="cls-5" d="M335.71,227.8c9.16-15.54,15.75-40,15.24-62.18-.85-37.47-21.82-64.41-32.12-75.75a3,3,0,0,0-4.44,0c-10.29,11.34-31.27,38.28-32.12,75.75-.5,22.18,6.08,46.64,15.24,62.18a105.66,105.66,0,0,0,38.2,0Z"/><path class="cls-2" d="M351,125.84a90,90,0,0,0-68.74,0V78H351Z"/></g><path class="cls-2" d="M337,231.16a5.16,5.16,0,0,1-4.52,5,102.82,102.82,0,0,1-32.23,0,5.17,5.17,0,0,1-4.51-5v-.66a5.26,5.26,0,0,1,5.48-5h30.3a5.26,5.26,0,0,1,5.48,5Z"/><path class="cls-2" d="M337,239.86a5.15,5.15,0,0,1-4.52,4.95A100.48,100.48,0,0,1,319.27,246a102.35,102.35,0,0,1-19-1.23,5.16,5.16,0,0,1-4.51-4.95v-.65a5.27,5.27,0,0,1,5.48-5h30.3a5.27,5.27,0,0,1,5.48,5Z"/><circle class="cls-6" cx="316.61" cy="161.2" r="19.76"/><path class="cls-2" d="M316.61,175.91a14.71,14.71,0,1,1,14.71-14.71A14.72,14.72,0,0,1,316.61,175.91Z"/><path class="cls-5" d="M306.63,248.43a.43.43,0,0,0-.45.15,17.52,17.52,0,0,0-3.24,6,17.93,17.93,0,0,0-.53,8.36.46.46,0,0,0,.87.09,13.26,13.26,0,0,1,1-2,13,13,0,0,1,1.77-2.22.45.45,0,0,1,.76.41,14.69,14.69,0,0,0,4.3,13.76,14.13,14.13,0,0,0,8.62,3.4.46.46,0,0,0,.44-.62,7.73,7.73,0,0,1-.53-3.24,9.36,9.36,0,0,1,2.05-4.77,15.64,15.64,0,0,0,2.4-8.59.45.45,0,0,1,.85-.22,9.84,9.84,0,0,1,.85,2.32,9.13,9.13,0,0,1,.16,3,.46.46,0,0,0,.73.4,10.92,10.92,0,0,0,4.34-7.8,11,11,0,0,0-3.22-8.36.46.46,0,0,0-.43-.11,39.79,39.79,0,0,1-7.27,1.3A40.33,40.33,0,0,1,306.63,248.43Z"/><circle class="cls-10" cx="115.65" cy="145.84" r="68.94"/><path class="cls-10" d="M97.86,207.93s4.76,19.64,0,35.11-31.54,22-33.92,48.19S81.2,351.33,89.53,387s1.78,86.28,1.78,86.28a170.05,170.05,0,0,0,56.23,5.05A172.94,172.94,0,0,0,229,450.1c-3.62-35-8.73-81.51-15.74-137.45-4.05-32.38-8.57-68.18-30-75.56-9.52-3.27-31.54-.89-36-5.36s-7.73-39.27-7.73-39.27S103.51,188.3,97.86,207.93Z"/><path class="cls-10" d="M65.8,193.46A94.06,94.06,0,0,0,97.88,215c21.83,8.73,58.43,13.44,77.54-6.6a41.7,41.7,0,0,0,6.73-9.65c14.88-27.41,4.33-60.58-.93-74.25C181.22,124.5,74.45,78.53,65.8,193.46Z"/><path class="cls-11" d="M104.56,143.46a20.28,20.28,0,0,1,10.37-6.56c2.73-.76,6.43-1.79,8.12.07a3.1,3.1,0,0,1,.69,3.06c-.85,2.05-4.48,1.31-9.74,2.59-6.91,1.68-10.73,5.43-11.43,4.55C102.06,146.54,103.85,144.33,104.56,143.46Z"/><path class="cls-11" d="M174.45,122.12a20.28,20.28,0,0,0-12.21,1.2c-2.62,1.07-6.17,2.53-6.36,5a3.09,3.09,0,0,0,1.33,2.84c1.93,1.1,4.34-1.72,9.27-3.94,6.49-2.92,11.81-2.31,11.83-3.43C178.32,123,175.54,122.37,174.45,122.12Z"/><path class="cls-12" d="M146.71,145.36s8.58,9.13,8.47,11.51-8.8,4.71-8.8,4.71"/><ellipse class="cls-13" cx="117.12" cy="171.95" rx="7.88" ry="4.91" transform="translate(-49.36 47.18) rotate(-18.89)"/><ellipse class="cls-13" cx="177.25" cy="158.77" rx="7.88" ry="4.91" transform="translate(-41.86 65.94) rotate(-18.89)"/><path class="cls-10" d="M80.61,163a13.42,13.42,0,0,0-10.52-2.2,10.33,10.33,0,0,0-5.7,3.29c-4.65,6.07.16,22,10.38,24.59,5.71,1.46,11-1.79,12.73-3Q84.07,174.3,80.61,163Z"/><path class="cls-14" d="M67.86,170.94,77,169s-8.38,7.37.7,13.62"/><path class="cls-15" d="M128.73,159.42a5.93,5.93,0,1,1-2-8.14A6,6,0,0,1,128.73,159.42Z"/><path class="cls-15" d="M174.71,146.13a5.93,5.93,0,1,1-2-8.13A6,6,0,0,1,174.71,146.13Z"/><path class="cls-11" d="M79.8,131.45s9.66,8.35,2.15,23.22c0,0,7,9.94,5.55,18,0,0-7.81-14.4-17.41-11.91s-8.56,12.29-4.29,20.6,11.9,9.51,21.7,4.29c0,0,14.61,29,12,32.56s-69.57-21.27-58-82.29c0,0-3.55,5.37-5.91,2.52S43,125.56,43,125.56s-2.36-20.68,2.1-26.13,6.44,5.45,6.44,5.45,25.62-36.66,64.09-36.66,61.2,30.46,61.6,35.17-33-4-33-4,12.66,6.74,3.71,11.39-32.27,1.49-32.27,1.49,13.68,3.13,8,9.37S95.41,135.47,79.8,131.45Z"/><path class="cls-8" d="M60.4,196.86c-1.42.93-14,9.51-14.62,24-.55,14.11,10.52,28,27.09,31.71A74.35,74.35,0,0,0,54,274.39a76.79,76.79,0,0,0-9.25,30.39C37.15,373.46,33,407.77,53.9,424c4.08,3.17,10.88,7,21.94,8.3l-6,42.27a198.9,198.9,0,0,0,69.3,7.48A201.94,201.94,0,0,0,235.86,449L229,375.56s42.51,8.49,47.46-18.76-74.32-118.16-86.7-123.11-27-5.21-27-5.21c1-.19,10.45-2.17,14.62-11.14a20.29,20.29,0,0,0,.87-14.25,53.32,53.32,0,0,1-5.43,5.59c-10.14,9-21.64,12.21-29.05,13.47,0,0-5.53,6.5-1.73,13.77s-4.79,25.51-4.79,25.51-28.33.6-33-13.87,3.73-15.35-4.82-29.35C99.5,218.21,79.31,214.78,60.4,196.86Z"/><path class="cls-10" d="M195.47,354.89a73,73,0,0,1,19.83-4.53c10.31-.85,13.88,1.14,14.86,1.73,3.69,2.23,5.28,5.42,7.68,10.41,1.29,2.68,9.73,20.18,3.84,25.14-.86.72-2.67,1.72-6.59,1a17.52,17.52,0,0,0-2.57-.3c-5.88-.23-9.84,2.76-13,4.21s-8.22,2.56-15.85.62a74.5,74.5,0,0,1-8.19-38.32Z"/><path class="cls-10" d="M179.22,202.28s-14.74,15.74-28,12-32.9-19.79-35.41-17.41,7.17,12,13.58,16.48c0,0-15.76-12.52-17.82-10s3.17,8.72,12.68,15.69c0,0-14.8-9.75-16.09-6.87s15,15.27,15,15.27-13-7.06-13.06-3.44,16.39,18.66,27.65,20.72,16.4,2.61,19.73,5,7.13,9.75,7.13,9.75,18.32-5.95,23.31-20.21c0,0-12.3-16.8-10.23-21.2S190.13,197.9,179.22,202.28Z"/><path class="cls-14" d="M146,246.19s-15.79-1.24-26.86-11.66-13.14-17.24,4-7.1"/><path class="cls-14" d="M120.6,226.08s-10.28-8.06-11.8-11.83,1.8-2.88,5.39-1,9,5.63,14.73,8.17"/><path class="cls-14" d="M121,217.25S108.15,207,111.2,204.06s13,7.84,23.19,11.4"/><path class="cls-14" d="M125.12,210.64s-12-10-9.7-12.85,9.25,2.19,17.56,7.56,20.91,12.37,30.53,8.33a45.12,45.12,0,0,0,15.71-11.4"/><line class="cls-16" x1="91.03" y1="301.48" x2="85.9" y2="373.61"/><path class="cls-16" d="M63.74,386s14.41-11,27.29-12.42,86-10.55,104.44-18.72"/><path class="cls-16" d="M203.35,393.25s-80.61,40.34-127.51,39"/><path class="cls-16" d="M164.19,259.2a377.82,377.82,0,0,0,25.26,68c4.51,9.27,9.18,17.93,13.9,26"/><path class="cls-16" d="M187.56,239.14c12,11,24.38,23.3,36.9,36.91q12.54,13.6,23.29,26.75"/><path class="cls-16" d="M72.87,252.6s25,17,56.71,14.28"/><path class="cls-16" d="M145,182.61a33.32,33.32,0,0,1,18.73-6.81"/><path class="cls-14" d="M153.25,182.61s4.58-2.43,7.92-2.06"/><path class="cls-17" d="M158.08,89s9.25,5.8,4.63,8.26-32.87-4.46-32.87-4.46,12.72,6.76,8.76,10.72-30.72,0-30.72,0"/><path class="cls-17" d="M104.74,118.67s-14.86,8.66-35.5,3c0,0,12.22,23.57,0,30.51"/><path class="cls-17" d="M60.82,147.3s-.33,18.33-9.09,15c0,0,6.88,17.22,2.48,19.27"/><path class="cls-17" d="M79.81,194.14S90.38,203.22,87,207"/></g></svg>
