<svg width="132" height="242" viewBox="0 0 132 242" fill="none" xmlns="http://www.w3.org/2000/svg">
<path d="M46.8889 203.397L41.043 226.949L56.5491 228.354L61.9889 205.174L46.8889 203.397Z" fill="white" stroke="black" stroke-width="0.75" stroke-miterlimit="10" stroke-linecap="round" stroke-linejoin="round"/>
<path d="M37.8718 222.305L62.3571 223.757L59.3824 240.999L17.6406 240.796L33.5431 231.932L37.8718 222.305Z" fill="white" stroke="black" stroke-width="0.75" stroke-miterlimit="10" stroke-linecap="round" stroke-linejoin="round"/>
<path d="M26.5195 234.58L30.1589 236.908" stroke="black" stroke-miterlimit="10" stroke-linecap="round"/>
<path d="M29.3867 232.252L33.026 234.579" stroke="black" stroke-miterlimit="10" stroke-linecap="round"/>
<path d="M59.3818 240.999L60.9633 231.834C60.2902 231.72 59.5994 231.652 58.8905 231.652C53.0368 231.652 48.2194 235.713 47.5645 240.941L59.3818 240.999Z" fill="black" stroke="black" stroke-width="0.75" stroke-miterlimit="10" stroke-linecap="round" stroke-linejoin="round"/>
<path d="M90.2267 203.859L89.9922 228.109L105.412 225.968L105.338 202.173L90.2267 203.859Z" fill="white" stroke="black" stroke-width="0.75" stroke-miterlimit="10" stroke-linecap="round" stroke-linejoin="round"/>
<path d="M85.2211 223.128L109.068 223.652L110.865 241L69.123 240.797L85.0262 231.933L85.2211 223.128Z" fill="white" stroke="black" stroke-width="0.75" stroke-miterlimit="10" stroke-linecap="round" stroke-linejoin="round"/>
<path d="M77.9961 234.581L81.6361 236.908" stroke="black" stroke-miterlimit="10" stroke-linecap="round"/>
<path d="M80.8633 232.252L84.5033 234.58" stroke="black" stroke-miterlimit="10" stroke-linecap="round"/>
<path d="M110.864 241L109.933 232.014C109.933 232.014 100.217 231.653 99.0469 240.942L110.864 241Z" fill="black" stroke="black" stroke-width="0.75" stroke-miterlimit="10" stroke-linecap="round" stroke-linejoin="round"/>
<path d="M82.5439 121.404L66.9098 215.033L34.1758 212.427L56.713 100.698H86.7921L82.5439 121.404Z" fill="black"/>
<path d="M82.4182 122.088L66.9102 215.033" stroke="white" stroke-width="0.75" stroke-miterlimit="10" stroke-linecap="round"/>
<path d="M72.6191 118.288L77.7172 118.724L80.7432 158.953" stroke="#3A4A36" stroke-width="0.25" stroke-miterlimit="10"/>
<path d="M72.62 118.287L77.7181 118.724L82.4159 213.476L116.365 213.015L102.175 108.678L100.652 98.8119L65.7402 89.3853L72.62 118.287Z" fill="black"/>
<path d="M72.6191 118.288L77.7172 118.724L82.415 213.476" stroke="white" stroke-width="0.75" stroke-miterlimit="10" stroke-linecap="round"/>
<path d="M40.977 33.1551L43.0959 15.7287C43.2089 14.7988 43.9841 14.0848 44.9308 14.0385L52.2732 13.6809C53.4727 13.6224 54.4389 14.6421 54.3005 15.8218L52.1686 34.006C52.0503 35.0154 51.1569 35.7597 50.1296 35.7038L42.8002 35.3038C41.6794 35.2421 40.8431 34.2571 40.977 33.1551Z" fill="#F089D5"/>
<path d="M46.533 16.2251L44.7351 16.3041C44.4473 16.317 44.2043 16.0967 44.1913 15.8129L44.1841 15.6491C44.1711 15.3653 44.394 15.1245 44.6812 15.1117L46.4791 15.032C46.767 15.0192 47.01 15.2394 47.0229 15.5233L47.0301 15.687C47.0438 15.9715 46.8209 16.2123 46.533 16.2251Z" fill="white"/>
<path d="M45.2143 44.5825C45.2143 44.5825 47.8706 41.5259 48.2507 40.1626C48.6308 38.7993 48.8219 34.05 48.8219 34.05L42.6367 37.1066L45.2143 44.5825Z" fill="white" stroke="black" stroke-width="0.75" stroke-miterlimit="10" stroke-linecap="round" stroke-linejoin="round"/>
<path d="M52.6737 29.4417C52.4775 29.375 52.267 29.3307 52.048 29.3011L52.1039 29.26C52.7946 28.3495 52.4366 27.0164 50.7706 27.0909C49.0519 27.1673 47.0818 27.7831 45.1949 28.6115L45.2124 28.6025L45.2007 27.5153C47.7192 26.3993 49.6971 26.0686 49.1526 24.4382C48.677 23.0126 44.2761 23.8474 42.5627 24.7053C40.8492 25.5632 41.2125 30.7093 41.2125 30.7093L41.2203 30.7055C39.1423 31.984 37.6478 33.2118 37.5114 33.6427C37.1943 34.6457 38.1456 40.4134 38.1456 40.4134L37.0039 50.2562L45.6946 51.0711C45.6946 51.0711 45.9486 49.3784 46.3287 45.7111C46.7095 42.0438 45.8843 39.2845 45.8843 38.6372C45.8843 37.99 47.0896 37.5289 49.2423 36.0244C51.395 34.5198 52.482 33.3909 51.2767 32.576C54.0538 31.9339 53.6886 29.7879 52.6737 29.4417Z" fill="white"/>
<path d="M41.2137 30.7089C41.2137 30.7089 40.8511 25.5627 42.5639 24.7048C44.2767 23.8469 48.6776 23.0121 49.1539 24.4377C49.6978 26.0674 47.7205 26.3981 45.202 27.5148L45.2137 28.602" stroke="black" stroke-width="0.75" stroke-miterlimit="10" stroke-linecap="round" stroke-linejoin="round"/>
<path d="M43.4119 35.6483C43.4119 35.6483 50.0727 31.7614 51.278 32.5763C52.4834 33.3912 51.3956 34.5201 49.2436 36.0246C47.0909 37.5292 45.8856 37.9909 45.8856 38.6375C45.8856 39.2841 46.7101 42.0441 46.3294 45.7114C45.9486 49.3786 45.6952 51.0713 45.6952 51.0713L37.0039 50.2565L38.1456 40.4137C38.1456 40.4137 37.1936 34.6459 37.5114 33.6429C37.8285 32.6399 45.4886 27.3261 50.7699 27.0911C52.4359 27.0166 52.7939 28.3504 52.1032 29.2603" stroke="black" stroke-width="0.75" stroke-miterlimit="10" stroke-linecap="round" stroke-linejoin="round"/>
<path d="M41.4473 33.4856C41.6376 33.4227 49.1392 28.2361 52.6759 29.442C53.6908 29.7882 54.0554 31.9342 51.2802 32.577" stroke="black" stroke-width="0.75" stroke-miterlimit="10" stroke-linecap="round" stroke-linejoin="round"/>
<path d="M75.1875 41.2005C75.1875 41.2005 63.1564 39.0801 50.0362 57.579L49.5775 46.3768L34.5906 45.6576C34.5906 45.6576 25.9331 61.3586 27.5588 79.46C28.2807 87.4958 40.792 101.309 57.6912 82.1114C75.452 61.9353 75.1875 41.2005 75.1875 41.2005Z" fill="white"/>
<path d="M34.3152 58.3699C34.3152 58.9067 33.8746 59.3421 33.3314 59.3421C32.7882 59.3421 32.3477 58.9067 32.3477 58.3699C32.3477 57.8331 32.7882 57.3977 33.3314 57.3977C33.8746 57.3971 34.3152 57.8324 34.3152 58.3699Z" fill="black"/>
<path d="M40.7331 63.481C40.7331 64.0178 40.2926 64.4532 39.7494 64.4532C39.2062 64.4532 38.7656 64.0178 38.7656 63.481C38.7656 62.9442 39.2062 62.5088 39.7494 62.5088C40.2926 62.5081 40.7331 62.9435 40.7331 63.481Z" fill="black"/>
<path d="M30.6687 71.9996C30.6687 72.5364 30.2281 72.9718 29.6849 72.9718C29.1417 72.9718 28.7012 72.5364 28.7012 71.9996C28.7012 71.4627 29.1417 71.0273 29.6849 71.0273C30.2281 71.0273 30.6687 71.4627 30.6687 71.9996Z" fill="black"/>
<path d="M37.9949 77.5154C37.9949 78.0522 37.5543 78.4876 37.0111 78.4876C36.4679 78.4876 36.0273 78.0522 36.0273 77.5154C36.0273 76.9786 36.4679 76.5432 37.0111 76.5432C37.5543 76.5426 37.9949 76.9779 37.9949 77.5154Z" fill="black"/>
<path d="M47.2253 70.3846C47.2253 70.9214 46.7848 71.3568 46.2416 71.3568C45.6984 71.3568 45.2578 70.9214 45.2578 70.3846C45.2578 69.8477 45.6984 69.4124 46.2416 69.4124C46.7848 69.4124 47.2253 69.8477 47.2253 70.3846Z" fill="black"/>
<path d="M45.7097 82.1336C45.7097 82.6704 45.2691 83.1058 44.7259 83.1058C44.1827 83.1058 43.7422 82.6704 43.7422 82.1336C43.7422 81.5968 44.1827 81.1614 44.7259 81.1614C45.2691 81.1614 45.7097 81.5968 45.7097 82.1336Z" fill="black"/>
<path d="M33.8073 85.8831C33.8073 86.4199 33.3668 86.8553 32.8236 86.8553C32.2804 86.8553 31.8398 86.4199 31.8398 85.8831C31.8398 85.3463 32.2804 84.9109 32.8236 84.9109C33.3668 84.9109 33.8073 85.3463 33.8073 85.8831Z" fill="black"/>
<path d="M52.2351 84.9109C52.2351 85.4478 51.7946 85.8831 51.2514 85.8831C50.7081 85.8831 50.2676 85.4478 50.2676 84.9109C50.2676 84.3741 50.7081 83.9387 51.2514 83.9387C51.7946 83.9381 52.2351 84.3734 52.2351 84.9109Z" fill="black"/>
<path d="M55.3972 76.5425C55.3972 77.0793 54.9567 77.5147 54.4135 77.5147C53.8703 77.5147 53.4297 77.0793 53.4297 76.5425C53.4297 76.0057 53.8703 75.5703 54.4135 75.5703C54.9567 75.5703 55.3972 76.0057 55.3972 76.5425Z" fill="black"/>
<path d="M42.0339 90.2049C42.0339 90.7417 41.5933 91.1771 41.0501 91.1771C40.5069 91.1771 40.0664 90.7417 40.0664 90.2049C40.0664 89.668 40.5069 89.2327 41.0501 89.2327C41.5933 89.232 42.0339 89.6674 42.0339 90.2049Z" fill="black"/>
<path d="M54.4128 64.4536C54.4128 64.9905 53.9723 65.4259 53.429 65.4259C52.8858 65.4259 52.4453 64.9905 52.4453 64.4536C52.4453 63.9168 52.8858 63.4814 53.429 63.4814C53.9723 63.4814 54.4128 63.9168 54.4128 64.4536Z" fill="black"/>
<path d="M56.3816 53.6263C56.3816 54.1631 55.941 54.5985 55.3978 54.5985C54.8546 54.5985 54.4141 54.1631 54.4141 53.6263C54.4141 53.0894 54.8546 52.6541 55.3978 52.6541C55.941 52.6541 56.3816 53.0894 56.3816 53.6263Z" fill="black"/>
<path d="M42.0339 52.6541C42.0339 53.1909 41.5933 53.6263 41.0501 53.6263C40.5069 53.6263 40.0664 53.1909 40.0664 52.6541C40.0664 52.1173 40.5069 51.6819 41.0501 51.6819C41.5933 51.6819 42.0339 52.1173 42.0339 52.6541Z" fill="black"/>
<path d="M48.2077 60.3145C48.2077 60.8513 47.7672 61.2867 47.224 61.2867C46.6808 61.2867 46.2402 60.8513 46.2402 60.3145C46.2402 59.7777 46.6808 59.3423 47.224 59.3423C47.7672 59.3423 48.2077 59.7777 48.2077 60.3145Z" fill="black"/>
<path d="M49.7504 50.6339L49.5763 46.3772L34.5894 45.658C34.5894 45.658 33.6303 47.1753 32.3457 49.7895L49.7504 50.6339Z" fill="#F6CB4E"/>
<path d="M50.7348 74.6461L49.5775 46.377L34.5906 45.6578C34.5906 45.6578 25.9331 61.3589 27.5588 79.4602C28.2807 87.496 40.792 101.309 57.6912 82.1116C75.4513 61.9361 75.1869 41.2007 75.1869 41.2007C75.1869 41.2007 63.3019 38.8087 50.1551 57.411" stroke="black" stroke-width="0.75" stroke-miterlimit="10" stroke-linecap="round" stroke-linejoin="round"/>
<path d="M107.428 67.4934L99.1439 40.7578L111.588 35.7061C111.588 35.7061 133.964 60.5917 130.671 70.8544C127.378 81.1165 112.393 88.3297 93.001 65.4071L78.2285 41.4796C78.2285 41.4796 84.7828 39.4189 101.406 48.0577" stroke="black" stroke-width="0.75" stroke-miterlimit="10" stroke-linecap="round" stroke-linejoin="round"/>
<path d="M111.588 35.7061L99.1439 40.7578L101.406 48.0577C84.7828 39.4189 78.2285 41.4796 78.2285 41.4796L93.001 65.4071C112.393 88.3297 127.378 81.1165 130.671 70.8544C133.964 60.5917 111.588 35.7061 111.588 35.7061Z" fill="white"/>
<path d="M111.589 35.7061L99.1445 40.7578L100.343 44.6274L114.649 39.2879C112.814 37.0693 111.589 35.7061 111.589 35.7061Z" fill="#F6CB4E"/>
<path d="M107.428 67.4934L99.1439 40.7578L111.588 35.7061C111.588 35.7061 133.964 60.5917 130.671 70.8544C127.378 81.1165 112.393 88.3297 93.001 65.4071L78.2285 41.4796C78.2285 41.4796 84.7828 39.4189 101.406 48.0577" stroke="black" stroke-width="0.75" stroke-miterlimit="10" stroke-linecap="round" stroke-linejoin="round"/>
<path d="M104.967 46.7212C104.967 47.2581 104.527 47.6934 103.984 47.6934C103.441 47.6934 103 47.2581 103 46.7212C103 46.1844 103.441 45.749 103.984 45.749C104.527 45.7484 104.967 46.1838 104.967 46.7212Z" fill="black"/>
<path d="M113.118 50.8396C113.118 51.3765 112.677 51.8118 112.134 51.8118C111.591 51.8118 111.15 51.3765 111.15 50.8396C111.15 50.3028 111.591 49.8674 112.134 49.8674C112.677 49.8674 113.118 50.3028 113.118 50.8396Z" fill="black"/>
<path d="M115.085 42.4522C115.085 42.989 114.644 43.4244 114.101 43.4244C113.558 43.4244 113.117 42.989 113.117 42.4522C113.117 41.9153 113.558 41.48 114.101 41.48C114.644 41.4793 115.085 41.9147 115.085 42.4522Z" fill="black"/>
<path d="M109.354 60.3157C109.354 60.8525 108.914 61.2879 108.37 61.2879C107.827 61.2879 107.387 60.8525 107.387 60.3157C107.387 59.7789 107.827 59.3435 108.37 59.3435C108.914 59.3435 109.354 59.7789 109.354 60.3157Z" fill="black"/>
<path d="M123.007 54.3167C123.007 54.8535 122.566 55.2889 122.023 55.2889C121.48 55.2889 121.039 54.8535 121.039 54.3167C121.039 53.7799 121.48 53.3445 122.023 53.3445C122.566 53.3438 123.007 53.7792 123.007 54.3167Z" fill="black"/>
<path d="M118.02 63.482C118.02 64.0188 117.58 64.4542 117.036 64.4542C116.493 64.4542 116.053 64.0188 116.053 63.482C116.053 62.9451 116.493 62.5098 117.036 62.5098C117.58 62.5091 118.02 62.9445 118.02 63.482Z" fill="black"/>
<path d="M127.981 68.2056C127.981 68.7424 127.541 69.1778 126.997 69.1778C126.454 69.1778 126.014 68.7424 126.014 68.2056C126.014 67.6688 126.454 67.2334 126.997 67.2334C127.541 67.2334 127.981 67.6688 127.981 68.2056Z" fill="black"/>
<path d="M112.68 73.6585C112.68 74.1953 112.24 74.6307 111.697 74.6307C111.153 74.6307 110.713 74.1953 110.713 73.6585C110.713 73.1216 111.153 72.6863 111.697 72.6863C112.24 72.6863 112.68 73.1216 112.68 73.6585Z" fill="black"/>
<path d="M98.7038 49.6385C98.7038 50.1753 98.2633 50.6107 97.7201 50.6107C97.1769 50.6107 96.7363 50.1753 96.7363 49.6385C96.7363 49.1016 97.1769 48.6663 97.7201 48.6663C98.2633 48.6656 98.7038 49.101 98.7038 49.6385Z" fill="black"/>
<path d="M102.575 59.1175C102.575 59.6543 102.134 60.0897 101.591 60.0897C101.048 60.0897 100.607 59.6543 100.607 59.1175C100.607 58.5806 101.048 58.1453 101.591 58.1453C102.134 58.1453 102.575 58.5806 102.575 59.1175Z" fill="black"/>
<path d="M103.985 70.1504C103.985 70.6873 103.545 71.1226 103.001 71.1226C102.458 71.1226 102.018 70.6873 102.018 70.1504C102.018 69.6136 102.458 69.1782 103.001 69.1782C103.545 69.1782 103.985 69.6136 103.985 70.1504Z" fill="black"/>
<path d="M122.023 77.5479C122.566 77.5479 123.007 77.1127 123.007 76.5757C123.007 76.0388 122.566 75.6035 122.023 75.6035C121.48 75.6035 121.039 76.0388 121.039 76.5757C121.039 77.1127 121.48 77.5479 122.023 77.5479Z" fill="black"/>
<path d="M104.127 114.452H51.8809L56.3629 62.8344C56.3629 51.0401 66.0374 41.4792 77.9717 41.4792C89.906 41.4792 99.5804 51.0401 99.5804 62.8344L104.127 114.452Z" fill="white"/>
<path d="M64.9525 48.6654C65.4958 48.6654 65.9363 48.2301 65.9363 47.6931C65.9363 47.1562 65.4958 46.7209 64.9525 46.7209C64.4092 46.7209 63.9688 47.1562 63.9688 47.6931C63.9688 48.2301 64.4092 48.6654 64.9525 48.6654Z" fill="black"/>
<path d="M65.9363 58.1448C65.9363 58.6816 65.4957 59.117 64.9525 59.117C64.4093 59.117 63.9688 58.6816 63.9688 58.1448C63.9688 57.608 64.4093 57.1726 64.9525 57.1726C65.4957 57.1726 65.9363 57.6073 65.9363 58.1448Z" fill="black"/>
<path d="M78.323 45.8965C78.323 46.4333 77.8824 46.8687 77.3392 46.8687C76.796 46.8687 76.3555 46.4333 76.3555 45.8965C76.3555 45.3597 76.796 44.9243 77.3392 44.9243C77.8824 44.9237 78.323 45.3597 78.323 45.8965Z" fill="black"/>
<path d="M86.6902 52.7847C86.6902 53.3215 86.2496 53.7569 85.7064 53.7569C85.1632 53.7569 84.7227 53.3215 84.7227 52.7847C84.7227 52.2479 85.1632 51.8125 85.7064 51.8125C86.2496 51.8125 86.6902 52.2479 86.6902 52.7847Z" fill="black"/>
<path d="M77.3386 61.2881C77.3386 61.825 76.898 62.2603 76.3548 62.2603C75.8116 62.2603 75.3711 61.825 75.3711 61.2881C75.3711 60.7513 75.8116 60.3159 76.3548 60.3159C76.898 60.3159 77.3386 60.7507 77.3386 61.2881Z" fill="black"/>
<path d="M67.9851 71.1233C67.9851 71.6602 67.5446 72.0955 67.0014 72.0955C66.4581 72.0955 66.0176 71.6602 66.0176 71.1233C66.0176 70.5865 66.4581 70.1511 67.0014 70.1511C67.5446 70.1505 67.9851 70.5858 67.9851 71.1233Z" fill="black"/>
<path d="M60.1804 66.4649C60.1804 67.0017 59.7398 67.4371 59.1966 67.4371C58.6534 67.4371 58.2129 67.0017 58.2129 66.4649C58.2129 65.928 58.6534 65.4927 59.1966 65.4927C59.7398 65.492 60.1804 65.9274 60.1804 66.4649Z" fill="black"/>
<path d="M60.1804 82.1341C60.1804 82.6709 59.7398 83.1063 59.1966 83.1063C58.6534 83.1063 58.2129 82.6709 58.2129 82.1341C58.2129 81.5972 58.6534 81.1619 59.1966 81.1619C59.7398 81.1619 60.1804 81.5972 60.1804 82.1341Z" fill="black"/>
<path d="M76.7175 78.9385C76.7175 79.4754 76.2769 79.9107 75.7337 79.9107C75.1905 79.9107 74.75 79.4754 74.75 78.9385C74.75 78.4017 75.1905 77.9663 75.7337 77.9663C76.2769 77.9663 76.7175 78.401 76.7175 78.9385Z" fill="black"/>
<path d="M68.9733 88.6433C68.9733 89.1802 68.5328 89.6156 67.9896 89.6156C67.4464 89.6156 67.0059 89.1802 67.0059 88.6433C67.0059 88.1065 67.4464 87.6711 67.9896 87.6711C68.5328 87.6711 68.9733 88.1065 68.9733 88.6433Z" fill="black"/>
<path d="M93.6199 74.6304C93.6199 75.1672 93.1793 75.6026 92.6361 75.6026C92.0929 75.6026 91.6523 75.1672 91.6523 74.6304C91.6523 74.0936 92.0929 73.6582 92.6361 73.6582C93.1787 73.6582 93.6199 74.0936 93.6199 74.6304Z" fill="black"/>
<path d="M87.6726 87.6712C87.6726 88.208 87.2321 88.6434 86.6889 88.6434C86.1456 88.6434 85.7051 88.208 85.7051 87.6712C85.7051 87.1344 86.1456 86.699 86.6889 86.699C87.2321 86.699 87.6726 87.1344 87.6726 87.6712Z" fill="black"/>
<path d="M99.5085 83.5257C99.5085 84.0625 99.068 84.4979 98.5248 84.4979C97.9815 84.4979 97.541 84.0625 97.541 83.5257C97.541 82.9888 97.9815 82.5535 98.5248 82.5535C99.068 82.5535 99.5085 82.9888 99.5085 83.5257Z" fill="black"/>
<path d="M96.2136 97.4849C96.2136 98.0217 95.773 98.4571 95.2298 98.4571C94.6866 98.4571 94.2461 98.0217 94.2461 97.4849C94.2461 96.9481 94.6866 96.5127 95.2298 96.5127C95.773 96.5121 96.2136 96.9474 96.2136 97.4849Z" fill="black"/>
<path d="M78.323 95.1341C78.323 95.6709 77.8824 96.1063 77.3392 96.1063C76.796 96.1063 76.3555 95.6709 76.3555 95.1341C76.3555 94.5972 76.796 94.1619 77.3392 94.1619C77.8824 94.1619 78.323 94.5972 78.323 95.1341Z" fill="black"/>
<path d="M59.5925 97.4849C59.5925 98.0217 59.1519 98.4571 58.6087 98.4571C58.0655 98.4571 57.625 98.0217 57.625 97.4849C57.625 96.9481 58.0655 96.5127 58.6087 96.5127C59.1519 96.5121 59.5925 96.9474 59.5925 97.4849Z" fill="black"/>
<path d="M69.9558 104.729C69.9558 105.266 69.5153 105.701 68.9721 105.701C68.4288 105.701 67.9883 105.266 67.9883 104.729C67.9883 104.192 68.4288 103.757 68.9721 103.757C69.5153 103.756 69.9558 104.192 69.9558 104.729Z" fill="black"/>
<path d="M59.1941 110.311C59.1941 110.848 58.7535 111.283 58.2103 111.283C57.6671 111.283 57.2266 110.848 57.2266 110.311C57.2266 109.774 57.6671 109.339 58.2103 109.339C58.7535 109.338 59.1941 109.774 59.1941 110.311Z" fill="black"/>
<path d="M88.3796 105.701C88.3796 106.238 87.9391 106.673 87.3958 106.673C86.8526 106.673 86.4121 106.238 86.4121 105.701C86.4121 105.164 86.8526 104.729 87.3958 104.729C87.9391 104.729 88.3796 105.164 88.3796 105.701Z" fill="black"/>
<path d="M79.3073 110.311C79.3073 110.848 78.8668 111.283 78.3236 111.283C77.7804 111.283 77.3398 110.848 77.3398 110.311C77.3398 109.774 77.7804 109.339 78.3236 109.339C78.8668 109.338 79.3073 109.774 79.3073 110.311Z" fill="black"/>
<path d="M98.5222 110.912C98.5222 111.448 98.0817 111.884 97.5385 111.884C96.9953 111.884 96.5547 111.448 96.5547 110.912C96.5547 110.375 96.9953 109.939 97.5385 109.939C98.0817 109.939 98.5222 110.375 98.5222 110.912Z" fill="black"/>
<path d="M93.6199 62.2603C93.6199 62.7971 93.1793 63.2325 92.6361 63.2325C92.0929 63.2325 91.6523 62.7971 91.6523 62.2603C91.6523 61.7235 92.0929 61.2881 92.6361 61.2881C93.1787 61.2881 93.6199 61.7235 93.6199 62.2603Z" fill="black"/>
<path d="M85.7038 69.4121C85.7038 69.949 85.2633 70.3844 84.7201 70.3844C84.1769 70.3844 83.7363 69.949 83.7363 69.4121C83.7363 68.8753 84.1769 68.4399 84.7201 68.4399C85.2633 68.4399 85.7038 68.8753 85.7038 69.4121Z" fill="black"/>
<path d="M99.581 62.835L104.127 114.452H51.8809L56.3629 62.835" stroke="black" stroke-width="0.75" stroke-miterlimit="10" stroke-linecap="round" stroke-linejoin="round"/>
<path d="M93.5803 27.0697C93.501 26.2946 93.3055 25.5144 92.8669 24.8672C92.3152 24.0516 91.4068 23.4865 90.9955 22.5946C90.4335 21.3771 90.9546 19.965 90.9429 18.6268C90.9241 16.3697 89.3847 14.4176 87.7558 12.8353C86.401 11.5196 84.9014 10.304 83.1489 9.58029C81.3965 8.85659 79.3543 8.66716 77.6025 9.39214C76.9618 9.65735 76.3575 10.042 75.6701 10.1428C75.2503 10.2045 74.8241 10.1557 74.4004 10.1306C70.5421 9.90329 66.624 11.8002 64.4408 14.9525C63.5487 16.2406 62.9242 17.8029 63.1607 19.346C63.2764 20.0999 63.5928 20.8217 63.6247 21.5839C63.6669 22.5914 63.2121 23.5437 62.8514 24.487C61.8306 27.1551 61.524 30.1783 62.5168 32.8567C63.5097 35.5351 65.9574 37.7653 68.83 38.0472C69.7786 38.1403 70.7682 38.0324 71.6578 38.3695C72.1327 38.5493 72.5538 38.8486 73.0262 39.0354C74.8124 39.7424 76.7636 38.733 78.5336 37.9868C79.8006 37.4525 85.7506 37.9894 86.7883 37.8186C90.0436 37.283 90.7389 34.5757 91.9721 32.9106C93.2067 31.2456 93.7908 29.1226 93.5803 27.0697Z" fill="black"/>
<path d="M83.1469 23.15C82.3548 23.15 81.6245 23.4005 81.0267 23.8211V21.6628C81.0267 18.2415 78.5387 15.4424 75.4984 15.4424H70.9247C67.8838 15.4424 65.3965 18.2415 65.3965 21.6628V28.6693C65.3965 32.0906 67.8844 34.8897 70.9247 34.8897H73.5693V38.6642C73.5693 40.2118 74.8506 41.4781 76.4165 41.4781H78.2307C79.7966 41.4781 81.078 40.2118 81.078 38.6642V34.3991V34.1615V29.8964C81.078 29.8103 81.0702 29.7269 81.0618 29.6427C81.6524 30.0479 82.3704 30.2881 83.1462 30.2881C85.1572 30.2881 86.7875 28.6898 86.7875 26.7191C86.7875 24.7483 85.1572 23.15 83.1469 23.15Z" fill="white" stroke="black" stroke-width="0.75" stroke-miterlimit="10" stroke-linecap="round" stroke-linejoin="round"/>
<path d="M81.1778 27.1903C81.1778 27.1903 81.0173 24.7662 83.5365 25.0353" stroke="black" stroke-width="0.5" stroke-miterlimit="10" stroke-linecap="round" stroke-linejoin="round"/>
<path d="M72.4863 24.8257C72.4863 23.7802 72.9476 22.9326 73.5175 22.9326C74.0867 22.9326 74.5487 23.7802 74.5487 24.8257" stroke="black" stroke-width="0.5" stroke-miterlimit="10" stroke-linecap="round" stroke-linejoin="round"/>
<path d="M66.0371 24.549C66.0371 23.657 66.4309 22.9333 66.9169 22.9333C67.4029 22.9333 67.7967 23.6564 67.7967 24.549" stroke="black" stroke-width="0.5" stroke-miterlimit="10" stroke-linecap="round" stroke-linejoin="round"/>
<path d="M70.3057 26.7193L68.4766 25.618L70.0756 22.9338" stroke="black" stroke-width="0.5" stroke-miterlimit="10" stroke-linecap="round" stroke-linejoin="round"/>
<path d="M75.1971 22.5413L73.4277 21.842" stroke="black" stroke-width="0.75" stroke-miterlimit="10" stroke-linecap="round" stroke-linejoin="round"/>
<path d="M67.6412 21.9448L65.9473 22.1914" stroke="black" stroke-width="0.75" stroke-miterlimit="10" stroke-linecap="round" stroke-linejoin="round"/>
<path d="M83.1475 13.25C79.4354 9.54994 74.0553 9.25584 69.0469 12.227C64.0391 15.1982 64.1495 20.0644 64.4471 20.7579C64.6239 21.1695 64.8721 21.479 65.3984 21.5844C65.8604 21.6415 66.6388 21.5587 68.0267 21.2665C72.0215 20.4259 74.5491 17.0059 74.5491 17.0059C74.5491 17.0059 74.2099 17.6223 75.5699 20.4811C76.59 22.6259 79.1833 23.9513 80.5075 24.499C80.9818 24.1234 81.1091 24.0251 81.3379 23.8665C81.3379 23.8665 82.18 23.1518 83.1091 23.1493C83.972 23.1467 84.8115 23.4697 85.4464 23.9513C86.4593 22.0082 86.564 16.6559 83.1475 13.25Z" fill="black"/>
<path d="M68.3496 29.2446C68.3496 30.1109 69.0598 30.8127 69.9364 30.8127C70.8129 30.8127 71.5231 30.1109 71.5231 29.2446" stroke="black" stroke-width="0.5" stroke-miterlimit="10" stroke-linecap="round" stroke-linejoin="round"/>
<path d="M81.6769 42.4244L72.7114 42.3249C71.6802 42.3134 70.8537 41.4779 70.8654 40.4588L70.8926 38.0354C70.9043 37.0163 71.7497 36.1995 72.7809 36.2111L81.7464 36.3106C82.7776 36.3221 83.6041 37.1576 83.5924 38.1767L83.5651 40.6001C83.5534 41.6192 82.7081 42.436 81.6769 42.4244Z" fill="#F6CB4E"/>
<path d="M81.6769 42.4244L72.7114 42.3249C71.6802 42.3134 70.8537 41.4779 70.8654 40.4588L70.8926 38.0354C70.9043 37.0163 71.7497 36.1995 72.7809 36.2111L81.7464 36.3106C82.7776 36.3221 83.6041 37.1576 83.5924 38.1767L83.5651 40.6001C83.5534 41.6192 82.7081 42.436 81.6769 42.4244Z" stroke="black" stroke-width="0.75" stroke-miterlimit="10" stroke-linecap="round" stroke-linejoin="round"/>
<path d="M109.027 36.698C107.905 33.0564 105.201 24.6938 103.72 23.6162C102.716 22.8868 101.893 22.9921 101.335 23.4133C101.335 23.4133 99.8587 22.7564 99.2511 23.3607L99.2466 23.3639C99.1829 23.0191 99.0399 22.7282 98.7742 22.5349C98.2953 22.1868 97.7592 22.2896 97.2232 22.6357L97.2439 22.6004C97.2439 22.6004 95.3096 16.5983 93.6085 16.4737C91.7996 16.3408 91.348 17.9513 92.8626 20.9867C94.2115 23.6888 95.0049 25.2383 95.0049 25.2383C95.0049 25.2383 89.1576 20.0639 87.1511 21.8709C84.8392 23.9521 93.8418 28.3765 93.8418 28.3765L93.8522 28.3585C93.8561 29.4752 94.2804 30.6541 94.8885 31.7554C95.5649 32.98 99.0692 37.7575 100.766 40.0506L109.027 36.698Z" fill="white"/>
<path d="M97.244 22.6006C97.244 22.6006 95.3096 16.5985 93.6085 16.4739C91.7996 16.341 91.3473 17.9515 92.8626 20.9869C94.2115 23.6891 95.0049 25.2385 95.0049 25.2385C95.0049 25.2385 89.1576 20.0642 87.1511 21.8711C84.8392 23.9523 93.8418 28.3767 93.8418 28.3767" stroke="black" stroke-width="0.75" stroke-miterlimit="10" stroke-linecap="round" stroke-linejoin="round"/>
<path d="M101.334 23.4127C101.334 23.4127 99.8575 22.7564 99.25 23.3607" stroke="black" stroke-width="0.75" stroke-miterlimit="10" stroke-linecap="round" stroke-linejoin="round"/>
<path d="M101.109 28.3381C101.109 28.3381 101.042 28.7645 100.735 29.0811C100.265 29.5672 99.2893 29.8375 98.8149 28.6579C98.1301 26.9536 98.9091 25.6809 98.9091 25.6809" stroke="black" stroke-width="0.75" stroke-miterlimit="10" stroke-linecap="round" stroke-linejoin="round"/>
<path d="M101.391 31.2671C101.391 31.2671 98.6708 28.6895 97.6474 28.4301C97.6474 28.4301 100.402 23.72 98.7728 22.5352C97.1425 21.3505 94.8489 25.3035 94.1581 26.8151C93.4674 28.3267 93.9879 30.1286 94.8865 31.7564C95.5571 32.9707 99.0099 37.6795 100.721 39.9944L109.036 36.7311C107.92 33.1062 105.204 24.6967 103.718 23.6166C101.816 22.2347 100.553 23.8368 100.541 24.9452C100.53 26.0535 100.985 29.1782 101.85 29.385C102.715 29.5917 103.666 28.1129 103.202 25.0524" stroke="black" stroke-width="0.75" stroke-miterlimit="10" stroke-linecap="round" stroke-linejoin="round"/>
<path d="M5.50355 1H24.9752C27.4631 1 29.48 2.99321 29.48 5.45134V13.3073V16.0551V24.6623L24.9004 20.507H5.5042C3.01624 20.507 1 18.5138 1 16.0557V5.45198C0.99935 2.99321 3.01558 1 5.50355 1Z" fill="white" stroke="black" stroke-width="0.75" stroke-miterlimit="10" stroke-linecap="round" stroke-linejoin="round"/>
<path d="M15.0646 17.2024C15.0646 17.2024 5.6111 9.97895 8.35508 6.74768C11.0822 3.53504 14.7027 9.40295 14.7027 9.40295C14.7027 9.40295 17.496 3.50486 20.1328 5.6021C24.6818 9.22058 15.0646 17.2024 15.0646 17.2024Z" fill="black"/>
</svg>
