<svg width="160" height="240" viewBox="0 0 160 240" fill="none" xmlns="http://www.w3.org/2000/svg">
<path d="M145.572 10H127.139C124.784 10 122.874 11.9079 122.874 14.2614V21.7822V24.4124V32.652L127.21 28.6737H145.572C147.927 28.6737 149.836 26.7658 149.836 24.4118V14.2608C149.837 11.9079 147.928 10 145.572 10Z" fill="white" stroke="black" stroke-width="0.75" stroke-miterlimit="10" stroke-linecap="round" stroke-linejoin="round"/>
<path d="M136.522 25.5114C136.522 25.5114 145.471 18.5964 142.874 15.5028C140.292 12.4277 136.864 18.0446 136.864 18.0446C136.864 18.0446 134.542 12.883 131.723 14.4062C126.839 17.0456 136.522 25.5114 136.522 25.5114Z" fill="#F089D5"/>
<path d="M95.2326 197.042H80.7988V215.375H95.2326V197.042Z" fill="white" stroke="black" stroke-width="0.75" stroke-miterlimit="10"/>
<path d="M83.1396 197.043V215.375" stroke="black" stroke-width="0.75" stroke-miterlimit="10"/>
<path d="M86.2422 197.043V215.375" stroke="black" stroke-width="0.75" stroke-miterlimit="10"/>
<path d="M89.3164 197.043V215.375" stroke="black" stroke-width="0.75" stroke-miterlimit="10"/>
<path d="M92.2012 197.043V215.375" stroke="black" stroke-width="0.75" stroke-miterlimit="10"/>
<path d="M112.078 229.882L78.5381 230.125V211.467L97.6651 211.832L98.223 218.646L112.078 229.882Z" fill="white" stroke="black" stroke-width="0.75" stroke-miterlimit="10" stroke-linecap="round" stroke-linejoin="round"/>
<path d="M105.556 221.252L103.394 225.958" stroke="black" stroke-width="0.75" stroke-miterlimit="10" stroke-linecap="round" stroke-linejoin="round"/>
<path d="M102.187 219.584L100.024 224.29" stroke="black" stroke-width="0.75" stroke-miterlimit="10" stroke-linecap="round" stroke-linejoin="round"/>
<path d="M99.4023 219.077C99.4023 219.077 108.953 215.227 107.378 212.756C104.843 208.782 99.4023 219.077 99.4023 219.077Z" stroke="black" stroke-width="0.75" stroke-miterlimit="10" stroke-linecap="round" stroke-linejoin="round"/>
<path d="M101.618 210.422L99.4023 219.077" stroke="black" stroke-width="0.75" stroke-miterlimit="10" stroke-linecap="round" stroke-linejoin="round"/>
<path d="M92.9096 219.49C92.9096 221.763 90.9476 223.605 88.5266 223.605C86.1061 223.605 84.1436 221.763 84.1436 219.49C84.1436 217.217 86.1056 215.374 88.5266 215.374C90.9476 215.374 92.9096 217.217 92.9096 219.49Z" fill="black"/>
<path d="M75.3626 83.0457C75.3626 83.0457 77.8405 83.157 78.06 83.7054C80.6149 90.0761 94.4345 130.664 95.8283 135.541C97.3416 140.837 105.925 201.466 105.925 201.466H73.2179C73.2179 201.466 70.7279 137.983 71.1324 136.745C71.5368 135.507 61.2603 106.526 61.2603 106.526L60.3555 83.6686" fill="white"/>
<path d="M104.689 192.806H99.4191V182.633H103.221C103.197 182.462 103.172 182.294 103.147 182.121H99.4191V171.948H101.66C101.634 171.778 101.609 171.607 101.584 171.436H99.4191V161.263H100.071C100.046 161.092 100.02 160.922 99.9942 160.751H99.4191V156.951C99.2462 155.814 99.0755 154.698 98.9078 153.608V160.751H88.5296V150.579H98.4384C98.4114 150.406 98.385 150.238 98.3579 150.068H88.5296V139.894H96.6976C96.6666 139.717 96.6367 139.551 96.6068 139.383H88.5296V129.21H93.798C93.7422 129.041 93.6865 128.872 93.629 128.699H88.5296V118.526H90.2181C90.1606 118.356 90.1026 118.186 90.0452 118.014H88.5296V113.55C88.3601 113.051 88.1895 112.551 88.0183 112.049V118.015H77.6401V107.842H86.5802C86.5216 107.671 86.463 107.501 86.405 107.33H77.6406V97.1589H82.8918C82.832 96.9884 82.7723 96.8167 82.7137 96.6474H77.6406V86.474H79.1062C79.0419 86.2977 78.9793 86.1277 78.9184 85.9624H77.6401V83.4057C77.4913 83.3488 77.3172 83.3 77.1282 83.2593V85.9624H66.75V83.4028L66.2381 83.4246V85.963H60.4463L60.4664 86.4745H66.2381V96.6479H60.8697L60.8898 97.1595H66.2381V107.332H61.5454C61.5988 107.484 61.6591 107.654 61.7258 107.844H66.2381V118.017H65.2688C65.3274 118.187 65.3855 118.357 65.4446 118.529H66.2381V120.85C66.4093 121.351 66.5799 121.854 66.75 122.355V118.529H77.1282V128.702H68.8636C68.9194 128.873 68.9751 129.044 69.0297 129.213H77.1276V139.386H71.0985C71.1008 139.551 71.1031 139.718 71.1054 139.897H77.127V150.07H71.3668C71.372 150.24 71.3772 150.41 71.3823 150.581H77.127V160.754H71.7144C71.7202 160.924 71.7259 161.095 71.7317 161.266H77.1264V171.439H72.089C72.0953 171.61 72.1011 171.78 72.1074 171.951H77.1264V182.124H72.4803C72.4866 182.294 72.4929 182.466 72.4992 182.636H77.1264V192.809H72.8824C72.8893 192.981 72.8956 193.151 72.902 193.32H77.1264V201.469H77.6383V193.32H88.0165V201.469H88.5279V193.32H98.906V201.469H99.4174V193.32H104.761C104.738 193.148 104.714 192.979 104.689 192.806ZM77.1276 118.016H66.7494V107.843H77.1276V118.016ZM77.1276 107.332H66.7494V97.1589H77.1276V107.332ZM77.1276 96.6474H66.7494V86.474H77.1276V96.6474ZM88.0177 192.806H77.6395V182.633H88.0177V192.806ZM88.0177 182.122H77.6395V171.949H88.0177V182.122ZM88.0177 171.438H77.6395V161.264H88.0177V171.438ZM88.0177 160.753H77.6395V150.58H88.0177V160.753ZM88.0177 150.069H77.6395V139.895H88.0177V150.069ZM88.0177 139.384H77.6395V129.211H88.0177V139.384ZM88.0177 128.7H77.6395V118.527H88.0177V128.7ZM98.9078 192.806H88.5296V182.633H98.9078V192.806ZM98.9078 182.122H88.5296V171.949H98.9078V182.122ZM98.9078 171.438H88.5296V161.264H98.9078V171.438Z" fill="#59CC57"/>
<path d="M75.3626 83.0457C75.3626 83.0457 77.8405 83.157 78.06 83.7054C80.6149 90.0761 94.4345 130.664 95.8283 135.541C97.3416 140.837 105.925 201.466 105.925 201.466H73.2179C73.2179 201.466 70.7279 137.983 71.1324 136.745C71.5368 135.507 61.2603 106.526 61.2603 106.526L60.3555 83.6686" stroke="black" stroke-width="0.75" stroke-miterlimit="10" stroke-linecap="round" stroke-linejoin="round"/>
<path d="M57.298 197.107H42.8643V215.44H57.298V197.107Z" fill="white" stroke="black" stroke-width="0.75" stroke-miterlimit="10"/>
<path d="M45.2051 197.107V215.44" stroke="black" stroke-width="0.75" stroke-miterlimit="10"/>
<path d="M48.3076 197.107V215.44" stroke="black" stroke-width="0.75" stroke-miterlimit="10"/>
<path d="M51.3818 197.107V215.44" stroke="black" stroke-width="0.75" stroke-miterlimit="10"/>
<path d="M54.2666 197.107V215.44" stroke="black" stroke-width="0.75" stroke-miterlimit="10"/>
<path d="M74.1436 229.947L40.6035 230.19V211.532L59.7306 211.897L60.2884 218.711L74.1436 229.947Z" fill="white" stroke="black" stroke-width="0.75" stroke-miterlimit="10" stroke-linecap="round" stroke-linejoin="round"/>
<path d="M67.6182 221.317L65.4551 226.022" stroke="black" stroke-width="0.75" stroke-miterlimit="10" stroke-linecap="round" stroke-linejoin="round"/>
<path d="M64.2504 219.649L62.0879 224.354" stroke="black" stroke-width="0.75" stroke-miterlimit="10" stroke-linecap="round" stroke-linejoin="round"/>
<path d="M61.4658 219.143C61.4658 219.143 71.0167 215.292 69.4414 212.821C66.9066 208.846 61.4658 219.143 61.4658 219.143Z" stroke="black" stroke-width="0.75" stroke-miterlimit="10" stroke-linecap="round" stroke-linejoin="round"/>
<path d="M63.6812 210.487L61.4658 219.142" stroke="black" stroke-width="0.75" stroke-miterlimit="10" stroke-linecap="round" stroke-linejoin="round"/>
<path d="M54.9751 219.555C54.9751 221.828 53.0131 223.67 50.592 223.67C48.171 223.67 46.209 221.828 46.209 219.555C46.209 217.282 48.171 215.44 50.592 215.44C53.0131 215.44 54.9751 217.282 54.9751 219.555Z" fill="black"/>
<path d="M71.9299 101.158L67.8071 101.218L68.4287 201.466L32.1631 200.355L46.4538 89.977L69.4721 88.1685" fill="white"/>
<path d="M71.0161 97.9613L67.7872 97.975H60.8579V88.8455L60.6195 88.8644L60.3466 88.8856V97.975H49.9684V89.7009L49.4571 89.7411V97.975H45.4187L45.3527 98.4866H49.4571V108.659H44.0353L43.9692 109.17H49.4571V119.343H42.6518L42.6375 119.455L42.5858 119.854H49.4571V130.028H41.269L41.2029 130.539H49.4576V140.711H39.8861L39.843 141.043L39.82 141.222H49.4576V151.396H39.0789V146.943L38.5675 150.894V151.396H38.5026L38.4366 151.907H38.5675V162.08H37.1192L37.0531 162.592H38.5675V172.765H35.7357L35.6696 173.276H38.5675V183.449H34.3528L34.2868 183.96H38.5675V194.133H32.9694L32.9033 194.644H38.5675V200.551L39.0789 200.567V194.644H49.4571V200.884L49.9684 200.9V194.644H54.4727L54.4704 194.661H60.1346V200.568L60.1443 201.212L60.346 201.218L60.8573 201.233V194.662H68.3859L68.3824 194.133H60.8568V183.977H68.3192L68.3158 183.466V183.448H60.8568V173.292H68.2532L68.2497 172.763H60.8568V162.608H68.1865L68.1837 162.079H60.8568V151.924H68.1205L68.117 151.412V151.408V151.395H60.8562V141.221H61.387L68.0538 141.239L68.0509 140.717V140.71H60.8568V130.537H62.7711L67.9883 130.554L67.9849 130.025H60.8568V119.852H64.1545L64.1522 119.869H67.9217L67.9182 119.34H60.8568V109.17H65.538L67.8556 109.187L67.8527 108.673V108.658H60.8573V98.4855L70.9029 98.5021M49.4571 194.133H39.0789V183.96H49.4571V194.133ZM49.4571 183.449H39.0789V173.276H49.4571V183.449ZM49.4571 172.765H39.0789V162.592H49.4571V172.765ZM49.4571 162.08H39.0789V151.907H49.4571V162.08ZM60.1352 194.133H49.9684V183.96H55.8561L55.8538 183.977H60.1352V194.133ZM60.1352 183.449H49.9684V173.276H57.239L57.2367 173.293H60.1346L60.1352 183.449ZM60.1352 172.765H49.9684V162.592H58.6224L58.6201 162.609H60.1346L60.1352 172.765ZM60.1352 162.08H49.9684V151.907H60.0059L60.0036 151.924H60.1346L60.1352 162.08ZM60.3466 149.276L60.1346 150.912V151.396H49.9684V141.223H60.3466V149.276ZM60.3466 140.711H49.9684V130.539H60.3466V140.711ZM60.3466 130.028H49.9684V119.854H60.3466V130.028ZM60.3466 119.343H49.9684V109.17H60.3466V119.343ZM60.3466 108.659H49.9684V98.486H60.3466V108.659Z" fill="#59CC57"/>
<path d="M68.0193 101.218C67.9958 97.2096 67.9722 93.2003 67.9481 89.1915C67.8763 89.2633 67.8045 89.3351 67.7326 89.4068C68.776 89.3701 69.8187 89.3339 70.8621 89.2972C70.7903 89.2254 70.7185 89.1536 70.6466 89.0819C70.6966 93.1118 70.7466 97.1418 70.7972 101.171C70.869 101.099 70.9408 101.028 71.0126 100.956C69.9428 100.971 68.8736 100.987 67.8039 101.003C67.6878 101.005 67.5879 101.1 67.5884 101.218C67.5942 102.115 67.5994 103.011 67.6051 103.908C67.62 106.332 67.635 108.756 67.6499 111.18C67.6723 114.781 67.6947 118.384 67.7171 121.986C67.7441 126.359 67.7711 130.733 67.7987 135.106C67.8286 139.921 67.8585 144.735 67.8883 149.549C67.9182 154.409 67.9487 159.269 67.9785 164.129C68.0067 168.639 68.0343 173.149 68.0624 177.658C68.086 181.488 68.1101 185.318 68.1337 189.149C68.1509 191.891 68.1676 194.633 68.1848 197.375C68.19 198.237 68.1957 199.099 68.2009 199.96C68.2032 200.366 68.1136 200.9 68.2089 201.297C68.221 201.347 68.2095 201.413 68.2101 201.465C68.2819 201.393 68.3537 201.322 68.4255 201.25C64.3349 201.125 60.2443 201 56.1537 200.874C49.6409 200.675 43.1281 200.475 36.6153 200.276C35.1302 200.231 33.6444 200.185 32.1593 200.14C32.2311 200.211 32.3029 200.283 32.3747 200.355C32.5373 199.099 32.6999 197.844 32.8625 196.588C33.2923 193.27 33.722 189.952 34.1512 186.633C34.7533 181.983 35.3554 177.332 35.9575 172.682C36.6429 167.388 37.3283 162.093 38.0137 156.8C38.6922 151.561 39.3701 146.322 40.0487 141.083C40.6312 136.582 41.2144 132.081 41.7969 127.58C42.1882 124.557 42.5794 121.535 42.9707 118.512C43.1011 117.502 43.2321 116.493 43.3625 115.484C43.8756 111.523 44.388 107.562 44.9011 103.6C45.4561 99.3121 46.0116 95.0238 46.5666 90.736C46.5994 90.4828 46.6321 90.2296 46.6649 89.9764C46.7005 89.7025 46.269 89.7048 46.234 89.9764C45.8163 93.2037 45.3986 96.431 44.9804 99.6578C44.3662 104.403 43.752 109.147 43.1373 113.892C42.9942 114.997 42.8512 116.103 42.7081 117.208C42.3761 119.773 42.044 122.337 41.7119 124.901C41.1696 129.092 40.6266 133.282 40.0843 137.473C39.4184 142.614 38.7531 147.756 38.0872 152.897C37.3955 158.241 36.7032 163.586 36.0115 168.931C35.3807 173.801 34.7504 178.672 34.1196 183.543C33.641 187.24 33.1624 190.937 32.6833 194.635C32.4471 196.457 32.1679 198.281 31.9743 200.109C31.9657 200.191 31.953 200.273 31.9427 200.354C31.9272 200.472 32.0536 200.566 32.1582 200.57C36.2488 200.695 40.3394 200.82 44.43 200.945C50.9428 201.144 57.4556 201.344 63.9684 201.543C65.4535 201.589 66.9392 201.635 68.4244 201.68C68.5404 201.683 68.6404 201.578 68.6398 201.465C68.6341 200.568 68.6289 199.672 68.6232 198.775C68.6082 196.351 68.5933 193.927 68.5778 191.503C68.5554 187.901 68.533 184.299 68.5106 180.697C68.4836 176.324 68.4566 171.95 68.429 167.576C68.3991 162.762 68.3692 157.948 68.3393 153.134C68.3089 148.274 68.279 143.414 68.2491 138.554C68.221 134.044 68.1934 129.535 68.1653 125.025C68.1417 121.195 68.1176 117.365 68.094 113.534C68.0768 110.792 68.0601 108.05 68.0429 105.307C68.0377 104.446 68.032 103.584 68.0268 102.722C68.0245 102.316 68.1141 101.782 68.0188 101.385C68.0084 101.337 68.0199 101.271 68.0193 101.218C67.9475 101.29 67.8757 101.362 67.8039 101.434C68.8736 101.418 69.9428 101.403 71.0126 101.387C71.1281 101.385 71.2298 101.289 71.2281 101.171C71.1781 97.1412 71.1281 93.1113 71.0775 89.0819C71.0764 88.9688 70.9799 88.8625 70.8621 88.8666C69.8187 88.9033 68.776 88.9395 67.7326 88.9762C67.6166 88.9803 67.5166 89.0715 67.5172 89.1915C67.5408 93.2003 67.5643 97.2096 67.5884 101.218C67.5902 101.495 68.0211 101.496 68.0193 101.218Z" fill="black"/>
<path d="M110.698 42.5535C110.698 42.5535 114.332 38.6137 116.121 38.6723C117.91 38.7308 117.881 40.5078 116.942 42.0225C116.004 43.5376 114.625 44.7767 112.821 45.6224C111.017 46.4681 109.13 44.5085 110.698 42.5535Z" fill="white" stroke="black" stroke-width="0.75" stroke-miterlimit="10" stroke-linecap="round" stroke-linejoin="round"/>
<path d="M98.2373 57.0443L106.499 60.4857L110.245 50.635L111.621 46.4937L102.989 44.5364L98.2373 57.0443Z" fill="white" stroke="black" stroke-width="0.75" stroke-miterlimit="10" stroke-linecap="round" stroke-linejoin="round"/>
<path d="M109.391 51.3707L102.32 48.9173C101.503 48.6343 101.071 47.7426 101.355 46.9267L106.633 31.7318C106.917 30.9159 107.809 30.4836 108.625 30.7672L115.697 33.2206C116.513 33.5036 116.945 34.3953 116.662 35.2112L111.383 50.4061C111.1 51.222 110.208 51.6537 109.391 51.3707Z" fill="black"/>
<path d="M115.657 35.705L107.117 32.7419L102.314 46.5683L110.853 49.5314L115.657 35.705Z" fill="white"/>
<path d="M114.269 36.6845L107.666 34.3936L106.482 37.8025L113.084 40.0935L114.269 36.6845Z" stroke="black" stroke-width="0.25" stroke-miterlimit="10" stroke-linecap="round" stroke-linejoin="round"/>
<path d="M111.969 43.1596L105.366 40.8687L104.182 44.2776L110.784 46.5686L111.969 43.1596Z" stroke="black" stroke-width="0.25" stroke-miterlimit="10" stroke-linecap="round" stroke-linejoin="round"/>
<path d="M112.94 40.4339L106.379 38.1575L106.179 38.7335L112.74 41.0099L112.94 40.4339Z" stroke="black" stroke-width="0.25" stroke-miterlimit="10" stroke-linecap="round" stroke-linejoin="round"/>
<path d="M110.598 47.042L106.059 45.467L105.858 46.0431L110.398 47.618L110.598 47.042Z" stroke="black" stroke-width="0.25" stroke-miterlimit="10" stroke-linecap="round" stroke-linejoin="round"/>
<path d="M112.564 41.5123L108.971 40.2656L108.771 40.8417L112.364 42.0883L112.564 41.5123Z" stroke="black" stroke-width="0.25" stroke-miterlimit="10" stroke-linecap="round" stroke-linejoin="round"/>
<path d="M113.296 33.726C113.255 33.8437 113.121 33.904 112.995 33.8609C112.87 33.8173 112.802 33.6869 112.843 33.5692C112.884 33.4515 113.019 33.3913 113.144 33.4343C113.269 33.4774 113.337 33.6083 113.296 33.726Z" fill="white"/>
<path d="M112.325 33.5792L111.05 33.1371C110.95 33.1026 110.896 32.9987 110.928 32.9051C110.961 32.8115 111.068 32.7633 111.167 32.7978L112.442 33.2398C112.542 33.2743 112.596 33.3782 112.564 33.4718C112.531 33.5654 112.424 33.6136 112.325 33.5792Z" fill="white"/>
<path d="M96.1113 56.0619C96.1113 56.0619 100.911 43.0705 102.47 42.1347C104.03 41.1982 108.699 41.2867 108.699 42.989C108.699 44.6919 105.595 45.3603 105.595 45.3603C105.595 45.3603 106.431 48.4773 105.31 51.9659L102.185 58.8723L96.1113 56.0619Z" fill="white"/>
<path d="M105.31 51.9656C106.431 48.477 105.595 45.3599 105.595 45.3599C105.595 45.3599 108.699 44.6916 108.699 42.9887C108.699 41.2858 104.03 41.1979 102.47 42.1344C100.91 43.0708 96.1113 56.0616 96.1113 56.0616L99.9336 57.7519" stroke="black" stroke-width="0.75" stroke-miterlimit="10" stroke-linecap="round" stroke-linejoin="round"/>
<path d="M115.043 45.6262C115.667 44.7879 115.999 43.6173 114.808 43.0219C113.179 42.2077 111.251 44.227 110.681 45.0831C109.531 46.8095 110.063 47.4578 111.102 47.4853L111.096 47.4882C111.096 47.4882 109.348 49.3881 111.822 49.492C114.088 49.5879 117.018 47.15 115.043 45.6262Z" fill="white"/>
<path d="M110.682 45.0838C111.253 44.2272 113.18 42.2085 114.809 43.0226C116.393 43.8138 115.285 45.6241 114.375 46.3154C112.504 47.7387 108.463 48.4151 110.682 45.0838Z" stroke="black" stroke-width="0.75" stroke-miterlimit="10" stroke-linecap="round" stroke-linejoin="round"/>
<path d="M111.099 47.4882C111.099 47.4882 109.35 49.3881 111.825 49.492C114.09 49.5873 117.02 47.15 115.045 45.6262" stroke="black" stroke-width="0.75" stroke-miterlimit="10" stroke-linecap="round" stroke-linejoin="round"/>
<path d="M93.6121 56.4217L85.8411 68.5615L66.7641 48.79L60.3598 49.1919C60.3598 49.1919 56.9914 63.1375 61.0855 75.4674C63.5778 82.9739 66.3946 97.6636 85.8716 96.7731C103.192 95.9813 107.598 73.3482 110.39 63.8908C111.17 61.248 109.846 58.4415 107.315 57.3483L100.379 54.3524C97.921 53.2914 95.0553 54.1675 93.6121 56.4217Z" fill="white"/>
<path d="M84.4251 70.7749L93.7617 56.1903C95.1193 54.07 97.8149 53.2455 100.127 54.2445L107.579 57.4627C109.96 58.491 110.992 61.0769 110.472 63.617C107.677 77.264 100.614 96.6479 85.5046 96.8127C66.0087 97.0252 63.5796 82.9751 61.0874 75.4681C58.3768 67.3036 58.9375 58.4307 59.6258 53.3678C59.9556 50.9437 61.9514 49.0932 64.3943 48.9394C65.8984 48.8446 67.3681 49.4153 68.4143 50.4993L85.8723 68.5932" stroke="black" stroke-width="0.75" stroke-miterlimit="10" stroke-linecap="round" stroke-linejoin="round"/>
<path d="M82.384 77.7066C81.8681 77.1911 81.8681 76.3551 82.384 75.8389L84.9464 73.2788C85.4623 72.7632 86.2994 72.7632 86.8153 73.2788C87.3312 73.7944 87.3312 74.6303 86.8153 75.1465L84.2529 77.7066C83.737 78.2228 82.9005 78.2228 82.384 77.7066Z" fill="#5A87FE"/>
<path d="M93.9949 89.9831C93.2705 90.0732 92.6103 89.5594 92.5207 88.8354L92.0737 85.2423C91.9835 84.5183 92.4977 83.8586 93.2222 83.769C93.9461 83.6789 94.6062 84.1928 94.6964 84.9168L95.1434 88.5098C95.233 89.2338 94.7188 89.8935 93.9949 89.9831Z" fill="#5A87FE"/>
<path d="M91.1938 64.8851C90.829 64.2535 91.0456 63.4457 91.6775 63.0811L94.8156 61.2708C95.4476 60.9062 96.2559 61.1227 96.6207 61.7543C96.9856 62.3858 96.769 63.1937 96.137 63.5583L92.9989 65.3686C92.3664 65.7331 91.5586 65.5167 91.1938 64.8851Z" fill="#5A87FE"/>
<path d="M104.466 74.4736C103.757 74.302 103.321 73.5883 103.492 72.8798L104.344 69.3602C104.516 68.6512 105.23 68.216 105.939 68.3871C106.648 68.5582 107.084 69.2718 106.913 69.9809L106.061 73.5005C105.89 74.209 105.176 74.6447 104.466 74.4736Z" fill="#5A87FE"/>
<path d="M102.924 63.5632C102.207 63.6987 101.516 63.2273 101.38 62.5102L100.709 58.9522C100.573 58.2357 101.045 57.5449 101.762 57.4094C102.479 57.274 103.171 57.7453 103.306 58.4624L103.977 62.0205C104.113 62.7376 103.641 63.4283 102.924 63.5632Z" fill="#5A87FE"/>
<path d="M95.6558 77.5539C94.9462 77.3828 94.5102 76.6691 94.6819 75.9601L95.5334 72.4405C95.7052 71.7314 96.4193 71.2956 97.1283 71.4673C97.8378 71.6384 98.2739 72.3521 98.1021 73.0612L97.2506 76.5807C97.0794 77.2898 96.3653 77.7256 95.6558 77.5539Z" fill="#5A87FE"/>
<path d="M40.3047 112.065H89.5442C89.5442 112.065 88.2895 72.4271 76.2072 56.0017C73.7965 52.7245 69.7829 49.6453 66.5547 50.2241L57.6857 50.3814C57.6857 50.3814 49.8458 52.6234 45.4093 71.5595C40.9723 90.4951 40.3047 112.065 40.3047 112.065Z" fill="white"/>
<path d="M70.4361 75.5171C69.8869 75.9977 69.0521 75.942 68.5712 75.3931L66.1847 72.6688C65.7038 72.1199 65.7595 71.2856 66.3082 70.8051C66.8574 70.3245 67.6922 70.3802 68.1731 70.9285L70.5597 73.6528C71.0405 74.2029 70.9848 75.0371 70.4361 75.5171Z" fill="#5A87FE"/>
<path d="M73.1245 58.1622C73.6662 58.6513 73.7088 59.4862 73.2193 60.0276L70.7907 62.7146C70.3018 63.256 69.4659 63.2985 68.9241 62.8094C68.3823 62.3208 68.3398 61.4854 68.8293 60.9439L71.2578 58.2569C71.7468 57.7161 72.5827 57.6736 73.1245 58.1622Z" fill="#5A87FE"/>
<path d="M59.4801 80.1563C60.2034 80.2539 60.7101 80.9194 60.6125 81.6422L60.1264 85.2307C60.0287 85.9535 59.3629 86.4599 58.6396 86.3623C57.9162 86.2647 57.4095 85.5993 57.5072 84.8764L57.9932 81.288C58.0915 80.5651 58.7568 80.0587 59.4801 80.1563Z" fill="#5A87FE"/>
<path d="M76.7695 82.9102C77.4457 82.6363 78.2161 82.9624 78.4902 83.6388L79.85 86.9953C80.1241 87.6711 79.7978 88.441 79.121 88.7149C78.4448 88.9887 77.6743 88.6626 77.4003 87.9863L76.0404 84.6298C75.7663 83.954 76.0927 83.1841 76.7695 82.9102Z" fill="#5A87FE"/>
<path d="M51.45 88.3436C52.1153 88.6434 52.4118 89.4248 52.1125 90.0902L50.6245 93.3916C50.3246 94.0565 49.5426 94.3527 48.8768 94.0536C48.2115 93.7539 47.915 92.9725 48.2143 92.307L49.7023 89.0056C50.0022 88.3408 50.7842 88.0445 51.45 88.3436Z" fill="#5A87FE"/>
<path d="M66.7133 89.8801C67.4378 89.79 68.0979 90.3039 68.1875 91.0279L68.6345 94.6209C68.7247 95.3449 68.2105 96.0046 67.486 96.0942C66.7621 96.1843 66.102 95.6705 66.0118 94.9465L65.5648 91.3534C65.4752 90.63 65.9888 89.9703 66.7133 89.8801Z" fill="#5A87FE"/>
<path d="M55.4404 100.174C56.1166 99.8998 56.887 100.226 57.1611 100.902L58.5209 104.259C58.795 104.934 58.4687 105.704 57.7919 105.978C57.1157 106.252 56.3452 105.926 56.0712 105.25L54.7113 101.893C54.4372 101.217 54.7636 100.447 55.4404 100.174Z" fill="#5A87FE"/>
<path d="M85.6345 97.0905C86.2286 97.5143 86.3665 98.3387 85.9425 98.9324L83.8374 101.88C83.4134 102.473 82.5884 102.611 81.9943 102.187C81.4003 101.764 81.2624 100.939 81.6864 100.345L83.7915 97.3983C84.2155 96.8046 85.0405 96.6668 85.6345 97.0905Z" fill="#5A87FE"/>
<path d="M72.9011 100.926C73.5181 100.536 74.334 100.72 74.7241 101.337L76.6596 104.398C77.0492 105.015 76.8653 105.83 76.2483 106.22C75.6312 106.61 74.8154 106.425 74.4253 105.809L72.4897 102.747C72.0996 102.131 72.2841 101.315 72.9011 100.926Z" fill="#5A87FE"/>
<path d="M81.503 65.8786L79.4744 65.506C78.7844 65.3791 78.0565 65.7575 77.8698 66.4333C77.6612 67.1906 78.1478 67.9473 78.9039 68.0863L82.4286 68.7339C82.5067 68.6374 82.524 68.6162 82.6021 68.5197L81.5186 65.8913C81.5163 65.885 81.5105 65.8798 81.503 65.8786Z" fill="#5A87FE"/>
<path d="M40.3037 112.064H89.5432C89.5432 112.064 87.2871 51.0011 66.5537 50.2231L57.6848 50.3805C57.6848 50.3805 49.8448 52.6225 45.4084 71.5586C40.9713 90.4947 40.3037 112.064 40.3037 112.064Z" stroke="black" stroke-width="0.75" stroke-miterlimit="10" stroke-linecap="round" stroke-linejoin="round"/>
<path d="M42.166 107.842H87.5321" stroke="black" stroke-width="0.75" stroke-miterlimit="10" stroke-linecap="round" stroke-linejoin="round"/>
<path d="M51.32 80.4558L60.4474 50.2061C60.4474 50.2061 37.9646 51.1126 21.0409 68.2993C4.11713 85.486 10.6788 95.7598 14.5717 99.6394C21.72 106.763 32.4969 104.616 35.7314 100.719C37.9767 98.0145 39.1027 93.136 35.4022 87.8004L35.5183 87.9037C35.5171 87.9037 42.2925 82.958 51.32 80.4558Z" fill="white"/>
<path d="M21.4791 100.084C20.9299 100.564 20.0951 100.509 19.6142 99.9604L17.2276 97.2361C16.7468 96.6872 16.8025 95.8529 17.3512 95.3724C17.9004 94.8918 18.7352 94.9475 19.2161 95.4964L21.6026 98.2208C22.0841 98.7691 22.0283 99.6033 21.4791 100.084Z" fill="#5A87FE"/>
<path d="M27.9681 86.7029C28.0054 87.4315 27.4447 88.0521 26.7156 88.0889L23.0967 88.2732C22.3676 88.3105 21.7471 87.7501 21.7098 87.0215C21.6724 86.2929 22.2332 85.6728 22.9622 85.6355L26.5812 85.4512C27.3102 85.4139 27.9313 85.9743 27.9681 86.7029Z" fill="#5A87FE"/>
<path d="M29.8972 71.4146C30.3045 72.0197 30.1436 72.8402 29.5381 73.2473L26.5316 75.2683C25.926 75.6753 25.1051 75.5146 24.6977 74.9094C24.2904 74.3043 24.4512 73.4838 25.0568 73.0767L28.0633 71.0557C28.6682 70.6487 29.4898 70.8094 29.8972 71.4146Z" fill="#5A87FE"/>
<path d="M39.1541 76.2922C39.8562 76.4908 40.2647 77.2206 40.0659 77.9222L39.0794 81.4062C38.8807 82.1078 38.1504 82.516 37.4484 82.3173C36.7463 82.1187 36.3378 81.3889 36.5366 80.6873L37.5231 77.2034C37.7213 76.5018 38.4515 76.0935 39.1541 76.2922Z" fill="#5A87FE"/>
<path d="M43.5099 66.4143C43.5099 67.1435 42.9181 67.7348 42.1885 67.7348H38.5655C37.8359 67.7348 37.2441 67.1435 37.2441 66.4143C37.2441 65.6851 37.8359 65.0938 38.5655 65.0938H42.1891C42.9187 65.0943 43.5099 65.6851 43.5099 66.4143Z" fill="#5A87FE"/>
<path d="M55.1023 71.4304C55.1023 72.1596 54.5105 72.751 53.7809 72.751H50.1573C49.4277 72.751 48.8359 72.1596 48.8359 71.4304C48.8359 70.7012 49.4277 70.1099 50.1573 70.1099H53.7809C54.5105 70.1099 55.1023 70.7012 55.1023 71.4304Z" fill="#5A87FE"/>
<path d="M60.3629 61.2276C59.8137 61.7081 58.9789 61.6524 58.498 61.1036L56.1114 58.3792C55.6305 57.8303 55.6863 56.9961 56.2349 56.5155C56.7842 56.0349 57.619 56.0906 58.0998 56.639L60.4864 59.3633C60.9673 59.9128 60.9116 60.7476 60.3629 61.2276Z" fill="#5A87FE"/>
<path d="M16.8002 79.4371C17.4557 79.758 17.7263 80.5492 17.4052 81.2043L15.8103 84.4558C15.4891 85.1109 14.6974 85.3813 14.0419 85.0603C13.3864 84.7394 13.1158 83.9482 13.4369 83.2931L15.0318 80.0417C15.3536 79.3866 16.1452 79.1161 16.8002 79.4371Z" fill="#5A87FE"/>
<path d="M30.1791 61.5753L29.2392 61.4829C27.9873 62.3734 26.8233 63.2404 26.0781 63.8025C26.1545 63.8243 26.2327 63.8421 26.3143 63.8501L29.9205 64.2038C30.6467 64.275 31.2937 63.7445 31.3649 63.0188C31.4367 62.2925 30.9058 61.6465 30.1791 61.5753Z" fill="#5A87FE"/>
<path d="M45.6631 55.6083L43.4454 54.0059C42.698 54.2866 41.7724 54.677 40.7676 55.1272C40.8595 55.3189 40.9939 55.4935 41.1784 55.6267L44.1148 57.7482C44.7059 58.1753 45.5321 58.0427 45.9601 57.4519C46.387 56.8611 46.2543 56.0355 45.6631 55.6083Z" fill="#5A87FE"/>
<path d="M60.4474 50.2058C60.4474 50.2058 37.9646 51.1124 21.0409 68.2991C4.11713 85.4857 10.6788 95.7596 14.5717 99.6391C21.72 106.763 32.4963 104.615 35.7314 100.719C38.966 96.8224 39.8881 88.415 27.3819 80.6278" stroke="black" stroke-width="0.75" stroke-miterlimit="10" stroke-linecap="round" stroke-linejoin="round"/>
<path d="M35.5166 87.904C35.5166 87.904 42.2925 82.9582 51.3194 80.4561" stroke="black" stroke-width="0.75" stroke-miterlimit="10" stroke-linecap="round" stroke-linejoin="round"/>
<path d="M42.6506 93.4444C40.1962 92.0744 29.6313 87.6374 27.1436 93.4444C24.6559 99.2513 29.109 101.666 31.0676 102.383C33.0261 103.101 36.7864 103.726 38.0624 105.046C39.3384 106.365 42.2467 110.223 43.5698 108.143C43.7663 107.834 43.8036 107.473 43.7295 107.084L43.7318 107.089C43.7318 107.089 45.6071 108.155 45.8196 105.801C45.8415 105.557 45.8576 105.086 45.8242 104.513C46.6981 104.864 47.3438 104.692 47.1284 102.973C47.0974 102.726 46.9928 102.449 46.8394 102.155L46.9566 102.163C46.9566 102.163 49.1524 103.231 49.1645 101.462C49.1777 99.6934 45.1049 94.8149 42.6506 93.4444Z" fill="white"/>
<path d="M39.1295 101.676C39.1295 101.676 44.892 106.064 43.5688 108.144C42.2457 110.224 39.3369 106.366 38.0614 105.046C36.786 103.727 33.0252 103.102 31.0666 102.384C29.1081 101.666 24.6549 99.2521 27.1426 93.4451C29.6303 87.6381 40.1952 92.0752 42.6496 93.4451C45.104 94.8156 49.1768 99.6942 49.1641 101.463C49.1515 103.232 46.9562 102.164 46.9562 102.164" stroke="black" stroke-width="0.75" stroke-miterlimit="10" stroke-linecap="round" stroke-linejoin="round"/>
<path d="M41.6475 96.7729C41.6475 96.7729 46.8664 100.888 47.1278 102.973C47.3892 105.058 46.3838 104.868 45.2411 104.231" stroke="black" stroke-width="0.75" stroke-miterlimit="10" stroke-linecap="round" stroke-linejoin="round"/>
<path d="M40.3711 98.8223C40.3711 98.8223 45.9612 104.234 45.8193 105.802C45.6067 108.155 43.7315 107.089 43.7315 107.089" stroke="black" stroke-width="0.75" stroke-miterlimit="10" stroke-linecap="round" stroke-linejoin="round"/>
<path d="M62.5125 44.1094C62.5125 44.1094 54.7759 41.7858 54.9512 34.7128C55.1339 27.3413 68.1744 28.6682 68.1744 28.6682C68.1744 28.6682 72.1283 31.1858 72.1283 33.8711C72.1289 36.5559 62.5125 44.1094 62.5125 44.1094Z" fill="#0F110E"/>
<path d="M59.4669 34.4023C60.1505 34.4023 60.7808 34.6211 61.2967 34.9885V33.1047C61.2967 30.1186 63.4437 27.6755 66.0681 27.6755H70.0151C72.6395 27.6755 74.7865 30.1186 74.7865 33.1047V39.2194C74.7865 42.2056 72.6395 44.6486 70.0151 44.6486H67.7325V47.9425C67.7325 49.2935 66.6266 50.3988 65.2753 50.3988H63.7091C62.3573 50.3988 61.2519 49.2935 61.2519 47.9425V44.2203V44.013V40.2902C61.2519 40.2156 61.2588 40.1421 61.2657 40.0692C60.7561 40.4229 60.1362 40.6324 59.4669 40.6324C57.7312 40.6324 56.3242 39.2378 56.3242 37.5171C56.3242 35.7963 57.7312 34.4023 59.4669 34.4023Z" fill="white" stroke="black" stroke-width="0.75" stroke-miterlimit="10" stroke-linecap="round" stroke-linejoin="round"/>
<path d="M61.165 37.9287C61.165 37.9287 61.3035 35.8129 59.1289 36.0477" stroke="black" stroke-width="0.5" stroke-miterlimit="10" stroke-linecap="round" stroke-linejoin="round"/>
<path d="M66.9209 35.1201C66.9209 35.5823 67.2961 35.9572 67.7586 35.9572C68.221 35.9572 68.5962 35.5823 68.5962 35.1201C68.5962 34.6579 68.221 34.283 67.7586 34.283C67.2961 34.283 66.9209 34.6579 66.9209 35.1201Z" fill="black"/>
<path d="M72.6484 35.0046C72.6484 35.4421 73.0029 35.7964 73.4407 35.7964C73.8779 35.7964 74.233 35.4421 74.233 35.0046C74.233 34.5677 73.8785 34.2129 73.4407 34.2129C73.0035 34.2135 72.6484 34.5677 72.6484 35.0046Z" fill="black"/>
<path d="M70.5488 37.5175L72.1276 36.5564L70.7476 34.2139" stroke="black" stroke-width="0.5" stroke-miterlimit="10" stroke-linecap="round" stroke-linejoin="round"/>
<path d="M66.3271 33.8716L67.8548 33.2607" stroke="black" stroke-width="0.75" stroke-miterlimit="10" stroke-linecap="round" stroke-linejoin="round"/>
<path d="M72.8486 33.3508L74.3114 33.5661" stroke="black" stroke-width="0.75" stroke-miterlimit="10" stroke-linecap="round" stroke-linejoin="round"/>
<path d="M59.9922 22.4714C59.9922 22.4714 59.0534 22.1763 57.1362 22.3807C57.1362 22.3807 58.8397 20.4664 61.3836 21.2008C61.3836 21.2008 62.1156 18.9082 63.5875 18.7939C63.5875 18.7939 62.689 20.32 62.7309 21.0934C62.7309 21.0934 66.6578 20.196 70.0969 21.2674C74.1306 22.5242 77.6662 26.2539 75.9829 33.7919C72.9919 31.3317 71.678 28.5907 71.678 28.5907C71.678 28.5907 72.6529 32.0052 69.0719 33.8712C69.0719 33.8712 70.2388 31.2927 69.9349 28.9122C69.9349 28.9122 68.9909 34.408 61.317 36.1419L63.2715 33.8712L59.0878 36.8372C59.0878 36.8372 59.2803 36.1081 59.8456 34.5682C59.0218 35.6757 57.2367 36.8034 54.4158 36.1419C54.4158 36.1419 49.9799 25.7774 59.9922 22.4714Z" fill="#0F110E"/>
<path d="M69.5 39.7212C69.5 40.4768 70.113 41.09 70.8697 41.09C71.6263 41.09 72.2393 40.4773 72.2393 39.7212H69.5Z" stroke="black" stroke-width="0.5" stroke-miterlimit="10" stroke-linecap="round" stroke-linejoin="round"/>
<path d="M59.7066 52.4273L70.0136 52.3245C71.1988 52.3125 72.1497 51.5184 72.137 50.5504L72.1071 48.2481C72.0945 47.28 71.1236 46.5049 69.9383 46.517L59.6319 46.6198C58.4467 46.6318 57.4959 47.4259 57.5079 48.3939L57.5378 50.6957C57.5504 51.6643 58.5214 52.4394 59.7066 52.4273Z" fill="black"/>
<path d="M59.7066 52.4273L70.0136 52.3245C71.1988 52.3125 72.1497 51.5184 72.137 50.5504L72.1071 48.2481C72.0945 47.28 71.1236 46.5049 69.9383 46.517L59.6319 46.6198C58.4467 46.6318 57.4959 47.4259 57.5079 48.3939L57.5378 50.6957C57.5504 51.6643 58.5214 52.4394 59.7066 52.4273Z" stroke="black" stroke-width="0.75" stroke-miterlimit="10"/>
</svg>
