<svg width="201" height="309" viewBox="0 0 201 309" fill="none" xmlns="http://www.w3.org/2000/svg">
<path d="M79.2199 60.7013C79.2199 60.7013 62.3062 60.4099 45.7418 84.4387C28.076 110.066 32.3048 135.464 43.6555 139.591C50.7954 142.188 57.4706 143.406 63.4703 143.774L79.2199 60.7013Z" fill="#5A87FE"/>
<path d="M176.461 48.0658L176.459 48.0683C176.775 46.9999 176.776 46.1991 176.326 45.9167C175.551 45.4296 174.403 46.0116 173.659 46.5087C174.141 45.1497 174.091 44.2638 173.405 44.0013C172.702 43.7321 171.419 44.7237 170.266 45.8358C171.407 43.3853 171.005 42.2534 169.496 42.7315C167.84 43.2557 164.104 47.402 161.991 49.8673C162.508 48.1087 162.705 46.3568 161.739 45.7425C159.824 44.5239 156.769 48.2961 154.641 52.3243C153.071 55.2949 153.247 60.8257 153.247 60.8257L148.835 68.1977C148.835 68.1977 157.32 78.6344 161.284 75.8768C165.249 73.1192 176.369 56.0215 177.728 51.7786C179.084 47.5374 176.461 48.0658 176.461 48.0658Z" fill="white"/>
<path d="M161.729 50.678C161.729 50.678 167.117 43.4843 169.493 42.7314C171.869 41.9784 171.515 45.2033 166.686 51.3129" stroke="black" stroke-width="0.75" stroke-miterlimit="10" stroke-linecap="round" stroke-linejoin="round"/>
<path d="M169.683 46.9685C169.683 46.9685 171.926 43.4357 173.405 44.0013C174.883 44.5668 173.441 48.0039 169.962 52.9254" stroke="black" stroke-width="0.75" stroke-miterlimit="10" stroke-linecap="round" stroke-linejoin="round"/>
<path d="M173.565 46.7697C173.565 46.7697 175.096 45.144 176.326 45.916C177.556 46.6879 175.435 51.3122 172.635 54.7914" stroke="black" stroke-width="0.75" stroke-miterlimit="10" stroke-linecap="round" stroke-linejoin="round"/>
<path d="M176.461 48.0658C176.461 48.0658 179.084 47.5366 177.727 51.7794C176.369 56.0223 165.248 73.1201 161.284 75.8776C157.32 78.6352 148.834 68.1985 148.834 68.1985L153.246 60.8266C153.246 60.8266 153.07 55.2958 154.64 52.3252C156.767 48.2978 159.822 44.5247 161.738 45.7433C163.915 47.1279 160.195 54.2827 160.195 54.2827C160.195 54.2827 161.86 57.4424 161.605 60.8266" stroke="black" stroke-width="0.75" stroke-miterlimit="10" stroke-linecap="round" stroke-linejoin="round"/>
<path d="M148.879 62.3652L128.974 83.1915C115.149 72.3354 103.781 64.8512 96.7724 61.6354C92.5964 59.7191 88.8984 60.1774 88.8984 60.1774L100.081 99.2944C100.081 99.2944 118.123 121.773 135.543 117.498C152.962 113.224 165.354 72.2735 165.354 72.2735L148.879 62.3652Z" fill="#5A87FE"/>
<path d="M100.082 99.2936C100.082 99.2936 118.123 121.772 135.543 117.498C152.962 113.223 165.355 72.2727 165.355 72.2727L148.88 62.3652" stroke="black" stroke-width="0.75" stroke-miterlimit="10" stroke-linecap="round" stroke-linejoin="round"/>
<path d="M147.246 65.5781L162.041 75.0307" stroke="black" stroke-width="0.75" stroke-miterlimit="10" stroke-linecap="round" stroke-linejoin="round"/>
<path d="M128.978 83.1914L131.595 93.1492" stroke="black" stroke-width="0.75" stroke-miterlimit="10" stroke-linecap="round" stroke-linejoin="round"/>
<path d="M128.593 263.028L134.275 290.739L111.179 292.857L105.751 264.925L128.593 263.028Z" fill="white" stroke="black" stroke-width="0.75" stroke-miterlimit="10"/>
<path d="M134.393 282.409L105.313 282.824L108.922 308.503H156.631L139.51 297.06L134.393 282.409Z" fill="white" stroke="black" stroke-width="0.75" stroke-miterlimit="10" stroke-linecap="round" stroke-linejoin="round"/>
<path d="M147.843 300.238L143.523 303.033" stroke="black" stroke-miterlimit="10" stroke-linecap="round"/>
<path d="M144.442 297.442L140.122 300.238" stroke="black" stroke-miterlimit="10" stroke-linecap="round"/>
<path d="M126.94 296.851C126.94 299.857 124.503 302.294 121.497 302.294C118.491 302.294 116.054 299.857 116.054 296.851C116.054 293.844 118.491 291.407 121.497 291.407C124.503 291.407 126.94 293.844 126.94 296.851Z" fill="black"/>
<path d="M75.4449 263.028V292.044L51.7207 290.514L52.6545 262.312L75.4449 263.028Z" fill="white" stroke="black" stroke-width="0.75" stroke-miterlimit="10"/>
<path d="M78.0966 282.409L49.9009 283.034L47.751 307.948L94.5405 308.503L78.417 297.06L78.0966 282.409Z" fill="white" stroke="black" stroke-width="0.75" stroke-miterlimit="10" stroke-linecap="round" stroke-linejoin="round"/>
<path d="M86.7572 300.238L82.4375 303.033" stroke="black" stroke-miterlimit="10" stroke-linecap="round"/>
<path d="M83.3558 297.443L79.0361 300.238" stroke="black" stroke-miterlimit="10" stroke-linecap="round"/>
<path d="M67.746 297.487C67.746 300.493 65.3088 302.931 62.3027 302.931C59.2966 302.931 56.8594 300.493 56.8594 297.487C56.8594 294.481 59.2966 292.044 62.3027 292.044C65.3088 292.044 67.746 294.481 67.746 297.487Z" fill="black"/>
<path d="M81.3575 159.058L99.9116 271.498L138.762 268.369L112.014 134.191H76.3154L81.3575 159.058Z" fill="white"/>
<path d="M130.965 268.997V263.028H137.698L137.555 262.312H130.965V249.411H134.983L134.841 248.695H130.965V235.794H132.269L132.126 235.078H130.965V229.254L130.249 225.662V235.078H117.262V222.177H129.555L129.412 221.461H117.262V208.56H126.84L126.698 207.844H117.262V194.943H124.126L123.983 194.227H117.262V181.323H121.411L121.268 180.607H117.262V167.706H118.696L118.554 166.99H117.262V160.513L116.547 156.921V166.99H103.56V154.089H115.982L115.839 153.373H103.559V140.471H113.266L113.123 139.756H103.558V134.193H102.842V139.756H89.8551V134.193H89.1392V139.756H77.4443L77.5896 140.471H89.1392V153.373H80.2052L80.3505 154.089H89.1392V166.99H82.6672L82.7853 167.706H89.1392V180.607H84.9145L85.0326 181.323H89.1392V194.224H87.1619L87.2799 194.94H89.1392V206.209L89.8551 210.548V208.558H102.842V221.459H91.6557L91.7738 222.175H102.842V235.076H93.9022L94.0203 235.792H102.842V248.693H96.1496L96.2676 249.409H102.842V262.31H98.3969L98.515 263.026H102.842V271.259L103.558 271.202V263.026H116.545V270.156L117.261 270.098V263.025H130.248V269.052L130.965 268.997ZM102.843 207.842H89.8559V194.941H102.843V207.842ZM102.843 194.224H89.8559V181.323H102.843V194.224ZM102.843 180.607H89.8559V167.706H102.843V180.607ZM102.843 166.989H89.8559V154.088H102.843V166.989ZM102.843 153.372H89.8559V140.47H102.843V153.372ZM116.546 262.312H103.559V249.411H116.546V262.312ZM116.546 248.694H103.559V235.793H116.546V248.694ZM116.546 235.077H103.559V222.176H116.546V235.077ZM116.546 221.46H103.559V208.559H116.546V221.46ZM116.546 207.842H103.559V194.941H116.546V207.842ZM116.546 194.224H103.559V181.323H116.546V194.224ZM116.546 180.607H103.559V167.706H116.546V180.607ZM117.262 235.793H130.249V248.694H117.262V235.793ZM117.262 262.312V249.411H130.249V262.312H117.262Z" fill="#F6CB4E"/>
<path d="M81.5059 159.879L99.9106 271.498L138.761 268.369L112.013 134.191" stroke="black" stroke-width="0.75" stroke-miterlimit="10" stroke-linecap="round"/>
<path d="M93.1287 155.315L87.0786 155.839L83.4863 204.151" stroke="#3A4A36" stroke-width="0.25" stroke-miterlimit="10"/>
<path d="M93.1312 155.315L87.081 155.839L81.5048 269.627L41.2129 269.074L58.0539 143.774L59.8612 131.926L101.296 120.606L93.1312 155.315Z" fill="white"/>
<path d="M89.8536 155.599V154.088H93.4211L93.5895 153.373H89.8536V140.471H96.6245L96.7929 139.755H89.8536V126.853H99.8279L99.9963 126.137H89.8536V123.733L89.1377 123.929V126.137H81.0541L78.4336 126.853H89.1377V139.755H76.1507V127.477L75.4349 127.673V139.755H62.4479V131.22L61.7321 131.416V139.755H58.6691L58.5601 140.471H61.7321V153.373H56.766L56.6694 154.088H61.7321V166.99H54.9356L54.839 167.705H61.7321V180.607H53.1052L53.0086 181.322H61.7313V194.224H51.274L51.1774 194.939H61.7305V207.84H49.4436L49.347 208.556H61.7305V221.457H48.7435V213.048L48.0277 218.375V221.457H47.6132L47.5166 222.173H48.0268V235.074H45.7828L45.6862 235.79H48.0268V248.691H43.9524L43.8558 249.407H48.0268V262.308H42.122L42.0254 263.024H48.0268V269.163L48.7426 269.173V263.024H61.7296V269.352L62.4454 269.362V263.024H75.4324V269.54L76.1483 269.55V263.024H81.8277L81.8624 262.308H76.1483V249.407H82.4948L82.5295 248.691H76.1483V235.79H83.1619L83.1966 235.074H76.1474V222.173H83.8282L83.8637 221.457H76.1474V208.556H84.4961L84.5308 207.84H76.1474V194.939H85.1632L85.1979 194.224H76.1474V181.323H85.8303L85.865 180.607H76.1474V167.706H86.4974L86.5321 166.99H76.1466V154.089H89.1336V155.662L89.8536 155.599ZM61.7313 262.312H48.7443V249.411H61.7313V262.312ZM61.7313 248.695H48.7443V235.793H61.7313V248.695ZM61.7313 235.077H48.7443V222.176H61.7313V235.077ZM75.4341 262.312H62.4471V249.411H75.4341V262.312ZM75.4341 248.695H62.4471V235.793H75.4341V248.695ZM75.4341 235.077H62.4471V222.176H75.4341V235.077ZM75.4341 221.46H62.4471V208.559H75.4341V221.46ZM75.4341 207.842H62.4471V194.941H75.4341V207.842ZM75.4341 194.224H62.4471V181.323H75.4341V194.224ZM75.4341 180.607H62.4471V167.706H75.4341V180.607ZM75.4341 166.99H62.4471V154.088H75.4341V166.99ZM75.4341 153.372H62.4471V140.47H75.4341V153.372ZM76.1499 153.372V140.47H89.1369V153.372H76.1499Z" fill="#F6CB4E"/>
<path d="M93.1312 155.315L87.081 155.839L81.5048 269.627L41.2129 269.074L59.8612 131.926" stroke="black" stroke-width="0.75" stroke-miterlimit="10" stroke-linecap="round"/>
<path d="M121.311 151.828L113.937 87.0675C113.937 71.8382 101.591 59.4927 86.3616 59.4927C71.1323 59.4927 58.7868 71.8382 58.7868 87.0675L51.5791 150.869L121.311 151.828Z" fill="#5A87FE"/>
<path d="M55.3968 117.079L51.5791 150.87L121.312 151.829L114.992 96.3315" stroke="black" stroke-width="0.75" stroke-miterlimit="10" stroke-linecap="round" stroke-linejoin="round"/>
<path d="M69.2207 63.9111L82.3827 87.457" stroke="black" stroke-width="2" stroke-miterlimit="10" stroke-linecap="round" stroke-linejoin="round"/>
<path d="M107.813 87.0359L105.719 66.9346" stroke="black" stroke-width="2" stroke-miterlimit="10" stroke-linecap="round" stroke-linejoin="round"/>
<path d="M58.2024 109.215C58.2024 109.215 74.7842 110.672 81.5898 86.041H108.47C108.47 86.041 110.898 103.15 115.644 109.394C119.976 115.095 131.411 218.735 131.411 218.735L42.1953 218.557L58.2024 109.215Z" fill="white" stroke="black" stroke-width="0.75" stroke-miterlimit="10" stroke-linecap="round" stroke-linejoin="round"/>
<path d="M87.4131 92.2339C87.617 98.5193 91.2671 103.53 95.7527 103.53C100.238 103.53 103.888 98.5193 104.092 92.2339H87.4131Z" fill="white" stroke="black" stroke-width="0.75" stroke-miterlimit="10" stroke-linecap="round" stroke-linejoin="round"/>
<path d="M123.354 124.779C124.268 122.374 121.973 121.918 121.973 121.918C122.324 121.015 122.29 119.424 119.819 119.665C117.347 119.905 107.967 121.543 107.967 121.543C107.967 121.543 113.597 117.27 111.951 115.58C110.306 113.888 85.751 120.89 85.751 120.89L87.1735 137.459C87.1735 137.459 110.785 136.671 116.618 135.208C122.452 133.745 124.111 130.793 123.427 128.214C124.404 126.285 123.354 124.779 123.354 124.779Z" fill="white"/>
<path d="M121.973 121.918C121.973 121.918 124.269 122.374 123.354 124.779C122.346 127.43 113.975 128.854 113.975 128.854" stroke="black" stroke-width="0.75" stroke-miterlimit="10" stroke-linecap="round" stroke-linejoin="round"/>
<path d="M123.354 124.778C123.354 124.778 124.405 126.284 123.428 128.213C122.331 130.379 114.888 132.077 114.888 132.077" stroke="black" stroke-width="0.75" stroke-miterlimit="10" stroke-linecap="round" stroke-linejoin="round"/>
<path d="M123.427 128.214C124.111 130.793 122.452 133.745 116.618 135.208C110.785 136.671 87.1735 137.458 87.1735 137.458L85.751 120.89C85.751 120.89 110.306 113.889 111.951 115.579C113.597 117.27 107.967 121.543 107.967 121.543C107.967 121.543 117.347 119.905 119.819 119.665C122.29 119.424 122.325 121.015 121.973 121.918C121.481 123.178 118.998 124.504 113.322 125.458" stroke="black" stroke-width="0.75" stroke-miterlimit="10" stroke-linecap="round" stroke-linejoin="round"/>
<path d="M60.4406 113.44L64.3218 113.908L65.9392 96.3301L38.2206 99.4716C29.1413 119.989 34.0703 136.107 43.6516 139.591C72.3179 150.015 93.4951 138.241 93.4951 138.241V117.428L60.4406 113.44Z" fill="#5A87FE"/>
<path d="M38.2226 99.4717C29.1433 119.989 34.0722 136.107 43.6535 139.591C72.3199 150.015 93.497 138.241 93.497 138.241V117.427L60.4417 113.44" stroke="black" stroke-width="0.75" stroke-miterlimit="10" stroke-linecap="round"/>
<path d="M65.9418 96.3301L64.3252 113.908" stroke="black" stroke-width="0.75" stroke-miterlimit="10" stroke-linecap="round"/>
<path d="M88.6053 119.2C88.6053 119.55 88.0225 138.097 88.0225 138.097" stroke="black" stroke-width="0.75" stroke-miterlimit="10" stroke-linecap="round"/>
<path d="M94.7493 25.1074H88.8213C84.8798 25.1074 81.6557 28.779 81.6557 33.2662V42.4562C81.6557 42.7154 81.669 42.9705 81.6904 43.224C81.6268 43.4948 81.5889 43.7755 81.5889 44.0661V49.6605V49.9726V55.5662C81.5889 57.5964 83.25 59.2567 85.2794 59.2567H87.6307C89.6609 59.2567 91.3213 57.5956 91.3213 55.5662V50.6158H94.7493C98.6899 50.6158 101.915 46.9442 101.915 42.457V33.267C101.915 28.779 98.6908 25.1074 94.7493 25.1074Z" fill="white" stroke="black" stroke-width="0.75" stroke-miterlimit="10"/>
<path d="M82.3574 37.8508C82.3574 37.8508 83.6982 30.109 84.059 31.2525C84.5734 32.8839 84.5131 41.9162 86.2651 42.7104C88.5834 43.7614 89.4371 39.7935 94.1068 39.6342C98.7765 39.4748 101.461 41.7709 101.916 43.6401C102.369 45.5093 99.9638 48.1752 98.4966 49.3996C96.6572 50.9344 91.322 50.6157 91.322 50.6157C91.322 50.6157 86.7002 50.8956 84.7674 48.1686C82.7545 45.3301 82.3574 37.8508 82.3574 37.8508Z" fill="black"/>
<path d="M90.0498 36.269C90.0498 37.0071 90.6484 37.6056 91.3857 37.6056C92.1238 37.6056 92.7215 37.0071 92.7215 36.269C92.7215 35.5309 92.1229 34.9331 91.3857 34.9331C90.6476 34.9323 90.0498 35.5309 90.0498 36.269Z" fill="black"/>
<path d="M98.7988 36.0733C98.7988 36.7032 99.3099 37.2143 99.9398 37.2143C100.57 37.2143 101.081 36.7032 101.081 36.0733C101.081 35.4433 100.571 34.9331 99.9398 34.9331C99.3099 34.9323 98.7988 35.4433 98.7988 36.0733Z" fill="black"/>
<path d="M97.5255 41.5408C97.5255 41.5408 96.8542 43.4975 95.4342 43.6321C94.0141 43.7667 92.902 42.193 92.8252 40.9653L97.5255 41.5408Z" fill="white"/>
<path d="M95.5518 39.069L97.9254 37.9816L96.0257 34.9326" stroke="black" stroke-width="0.75" stroke-miterlimit="10" stroke-linecap="round" stroke-linejoin="round"/>
<path d="M91.7485 33.4355C90.866 33.5172 90.0213 33.7484 89.2221 34.1298C89.0265 34.2231 88.9604 34.5179 89.0744 34.6946C89.204 34.8952 89.4302 34.9422 89.6391 34.8423C89.9578 34.6904 90.2847 34.5674 90.6711 34.4609C90.8552 34.4105 91.041 34.3676 91.2292 34.3321C91.3267 34.314 91.4241 34.2983 91.5223 34.2842C91.448 34.2941 91.5809 34.2776 91.5809 34.2776C91.6371 34.271 91.6932 34.2652 91.7494 34.2603C91.964 34.2405 92.1729 34.0844 92.1622 33.8475C92.1523 33.6411 91.9789 33.414 91.7485 33.4355Z" fill="black"/>
<path d="M100.679 33.504C100.186 33.3414 99.6638 33.2563 99.1436 33.2481C98.9273 33.2448 98.7209 33.4405 98.7308 33.6609C98.7407 33.8879 98.9124 34.0696 99.1436 34.0737C99.3319 34.077 99.5193 34.091 99.7059 34.115C99.6695 34.11 99.6324 34.1051 99.5961 34.1001C99.8891 34.1406 100.178 34.2066 100.459 34.2999C100.664 34.3676 100.919 34.2215 100.967 34.0118C101.019 33.7847 100.899 33.5767 100.679 33.504Z" fill="black"/>
<path d="M83.2092 39.4831L84.3032 32.2853C84.3032 32.2853 90.6893 32.3456 97.5255 32.0038C108.209 31.4704 111.283 21.2418 105.967 16.6357C101.565 12.8205 92.4272 17.1286 91.7519 18.3893C91.7519 18.3893 78.6254 17.1658 74.1877 25.1082C69.7499 33.0515 73.3464 38.6864 81.463 46.893L82.2028 42.3026L83.2092 39.4831Z" fill="black"/>
<path d="M90.5781 31.8306C90.5781 31.8306 108.72 35.0588 109.744 21.5161" stroke="black" stroke-width="0.75" stroke-miterlimit="10" stroke-linecap="round" stroke-linejoin="round"/>
<path d="M91.7321 62.6171H80.1132C77.8947 62.6171 76.0957 60.8189 76.0957 58.5996V56.1937C76.0957 53.9753 77.8939 52.1763 80.1132 52.1763H91.7321C93.9506 52.1763 95.7496 53.9745 95.7496 56.1937V58.5996C95.7496 60.818 93.9506 62.6171 91.7321 62.6171Z" fill="#5A87FE"/>
<path d="M88.3945 52.1772H87.8389V62.6172H88.3945V52.1772Z" fill="white"/>
<path d="M91.5195 52.1772H90.9639V62.6172H91.5195V52.1772Z" fill="white"/>
<path d="M94.2275 61.7464C94.0533 61.8851 93.8684 62.0106 93.6719 62.1187V52.6753C93.8684 52.7834 94.0533 52.9089 94.2275 53.0477V61.7464Z" fill="white"/>
<path d="M77.6201 53.0504C77.7943 52.9117 77.9793 52.7862 78.1758 52.6772V62.1166C77.9793 62.0084 77.7943 61.8821 77.6201 61.7442V53.0504Z" fill="white"/>
<path d="M79.9238 52.1862C79.9874 52.1829 80.0502 52.1763 80.1145 52.1763H80.4803V62.6162H80.1145C80.0502 62.6162 79.9874 62.6096 79.9238 62.6063V52.1862Z" fill="white"/>
<path d="M83.1533 52.1772H82.5977V62.6172H83.1533V52.1772Z" fill="white"/>
<path d="M85.7783 52.1772H85.2227V62.6172H85.7783V52.1772Z" fill="white"/>
<path d="M74.1865 39.6329C74.1865 42.2188 76.2993 44.3142 78.9058 44.3142C81.5123 44.3142 83.625 42.2179 83.625 39.6329C83.625 37.0479 81.5123 34.9517 78.9058 34.9517C76.2993 34.9517 74.1865 37.0479 74.1865 39.6329Z" fill="white"/>
<path d="M81.7978 40.2525C81.8226 39.8629 81.759 39.45 81.6533 39.0769C81.4428 38.3338 80.9706 37.6642 80.2547 37.3365C79.6743 37.0706 79.0295 37.0194 78.3996 37.0846C78.2163 37.1036 78.0586 37.2275 78.0586 37.4256C78.0586 37.5949 78.2155 37.7856 78.3996 37.7666C78.6811 37.7377 78.9651 37.7286 79.2467 37.7567C79.2756 37.76 79.3045 37.7625 79.3334 37.7666C79.2648 37.7575 79.3738 37.774 79.3771 37.7749C79.4308 37.7839 79.4844 37.7947 79.5373 37.8071C79.6471 37.8327 79.7528 37.8665 79.8584 37.9045C79.8766 37.9111 79.8948 37.9185 79.9129 37.9259C79.8386 37.8954 79.9253 37.9317 79.9361 37.9375C79.9773 37.9581 80.0186 37.978 80.0591 38.0003C80.1441 38.0473 80.2242 38.101 80.3034 38.1571C80.2316 38.1059 80.3389 38.1868 80.353 38.1992C80.3844 38.2265 80.4149 38.2545 80.4438 38.2834C80.5074 38.3454 80.5644 38.4122 80.6213 38.4808C80.5602 38.4073 80.6387 38.5055 80.6527 38.5254C80.675 38.5567 80.6965 38.5889 80.7171 38.6219C80.7617 38.6929 80.8021 38.7656 80.8393 38.8399C80.8574 38.8762 80.874 38.9134 80.8913 38.9505C80.9119 38.9951 80.8607 38.8705 80.8872 38.9398C80.8938 38.9571 80.9004 38.9737 80.907 38.9902C80.9359 39.0661 80.9623 39.1421 80.9854 39.2205C81.0242 39.351 81.0548 39.4839 81.0779 39.6176C81.0828 39.6465 81.087 39.6763 81.0919 39.7052C81.1068 39.7976 81.0837 39.6242 81.0936 39.7142C81.0993 39.7704 81.106 39.8257 81.1101 39.881C81.1192 40.004 81.1258 40.1295 81.1175 40.2534C81.106 40.4375 81.2826 40.5944 81.4585 40.5944C81.6509 40.5935 81.7854 40.4375 81.7978 40.2525Z" fill="black"/>
<path d="M82.8689 42.1816C83.3494 41.4485 83.6293 40.5733 83.6293 39.6329C83.6293 38.3194 83.0835 37.1321 82.2051 36.2817" stroke="black" stroke-width="0.75" stroke-miterlimit="10" stroke-linecap="round" stroke-linejoin="round"/>
<path d="M82.2026 36.2817C81.3522 35.4586 80.1889 34.9517 78.9067 34.9517C76.3003 34.9517 74.1875 37.0479 74.1875 39.6329C74.1875 42.2179 76.3003 44.3142 78.9067 44.3142C79.7109 44.3142 80.4688 44.1144 81.1318 43.7627C81.3778 43.6322 81.7906 43.373 81.9871 43.1798" stroke="black" stroke-width="0.75" stroke-miterlimit="10" stroke-linecap="round" stroke-linejoin="round"/>
<path d="M165.588 103.53H136.083C134.173 103.53 132.625 101.982 132.625 100.072V89.4982C132.625 87.5886 134.173 86.0405 136.083 86.0405H165.588C167.498 86.0405 169.046 87.5886 169.046 89.4982V100.072C169.046 101.982 167.498 103.53 165.588 103.53Z" fill="#F6CB4E"/>
<path d="M135.553 93.0635H135.32C134.759 93.0635 134.304 92.6086 134.304 92.0472V88.824C134.304 88.2625 134.759 87.8076 135.32 87.8076H135.553C136.114 87.8076 136.569 88.2625 136.569 88.824V92.0472C136.569 92.6086 136.113 93.0635 135.553 93.0635Z" fill="white"/>
<path d="M156.889 105.17H144.781C143.756 105.17 142.926 104.34 142.926 103.315V103.021C142.926 101.997 143.756 101.166 144.781 101.166H156.889C157.914 101.166 158.745 101.997 158.745 103.021V103.315C158.744 104.34 157.913 105.17 156.889 105.17Z" fill="black"/>
<path d="M156.889 88.9429H144.781C143.756 88.9429 142.926 88.1123 142.926 87.0885V86.7946C142.926 85.77 143.756 84.9395 144.781 84.9395H156.889C157.914 84.9395 158.745 85.77 158.745 86.7946V87.0885C158.744 88.1123 157.913 88.9429 156.889 88.9429Z" fill="black"/>
<path d="M151.894 87.8076H149.707V103.169H151.894V87.8076Z" fill="black"/>
<path d="M152.376 103.529H149.285V133.491H152.376V103.529Z" fill="black"/>
<path d="M152 136.513H149.664C148.432 136.513 147.434 135.515 147.434 134.283V127.918C147.434 126.686 148.432 125.688 149.664 125.688H152C153.232 125.688 154.23 126.686 154.23 127.918V134.283C154.23 135.514 153.232 136.513 152 136.513Z" fill="black"/>
<path d="M150.831 155.856V129.841" stroke="black" stroke-width="3" stroke-miterlimit="10" stroke-linecap="round" stroke-linejoin="round"/>
<path d="M131.735 155.856L149.063 134.448" stroke="black" stroke-width="3" stroke-miterlimit="10" stroke-linecap="round" stroke-linejoin="round"/>
<path d="M169.925 155.856L152.599 134.448" stroke="black" stroke-width="3" stroke-miterlimit="10" stroke-linecap="round" stroke-linejoin="round"/>
<path d="M37.1304 126.695C37.1304 126.695 34.713 120.316 38.439 115.115C42.1651 109.913 49.5989 111.6 50.3841 117.66C50.3841 117.66 54.8375 115.763 57.7569 119.86C61.0247 124.448 54.2224 132.756 48.6206 133.04C43.0179 133.323 39.0723 131.064 37.1304 126.695Z" fill="#59CC57"/>
<path d="M44.4448 118.629C43.7727 120.12 42.2214 120.876 40.978 120.316C39.7355 119.756 39.2723 118.093 39.9435 116.602C40.6156 115.111 42.1669 114.356 43.4103 114.916C44.6537 115.475 45.116 117.138 44.4448 118.629Z" fill="white"/>
<path d="M49.7094 118.929C51.3111 116.802 52.9128 114.675 54.5145 112.549C54.7423 112.246 54.971 111.943 55.1989 111.64C55.4383 111.321 54.9017 111.012 54.6639 111.327C53.0622 113.454 51.4605 115.58 49.8588 117.707C49.6309 118.01 49.4022 118.313 49.1744 118.616C48.9349 118.935 49.4724 119.244 49.7094 118.929Z" fill="black"/>
<path d="M52.4448 109.312C53.6386 111.418 53.7542 113.608 52.7023 114.204C51.6513 114.799 49.8317 113.574 48.6386 111.468C47.4448 109.362 47.33 107.172 48.3802 106.577C49.4312 105.98 51.2509 107.206 52.4448 109.312Z" stroke="black" stroke-width="0.75" stroke-miterlimit="10"/>
<path d="M49.543 108.776L52.7001 114.203" stroke="black" stroke-width="0.75" stroke-miterlimit="10" stroke-linecap="round" stroke-linejoin="round"/>
<path d="M69.7237 127.689H22.7773V152.637H69.7237V127.689Z" fill="#F6CB4E"/>
<path d="M23.5638 142.893C25.7682 139.864 31.6177 143.86 34.3233 144.246C38.7734 144.882 42.3384 142.029 46.6316 142.155C50.4278 142.267 53.8682 144.374 57.6858 144.508C59.6095 144.575 61.3326 144.037 63.1077 143.355C65.2378 142.537 67.4975 141.461 69.545 143.041C71.2739 144.376 72.9705 141.428 71.2623 140.11C67.0888 136.889 63.0937 140.673 58.7988 141.098C54.1208 141.561 49.8813 138.294 45.1207 138.836C42.8346 139.096 40.7895 140.108 38.5769 140.654C35.6856 141.366 33.302 140.589 30.6385 139.536C27.1057 138.137 23.1031 137.785 20.6329 141.177C19.3441 142.946 22.2882 144.645 23.5638 142.893Z" fill="white" stroke="black" stroke-width="0.75" stroke-miterlimit="10"/>
<path d="M24.8397 129.456C27.0441 126.428 32.8936 130.423 35.5991 130.809C40.0492 131.445 43.6143 128.592 47.9075 128.719C51.7037 128.831 55.144 130.937 58.9617 131.071C60.8854 131.138 62.6076 130.6 64.3827 129.918C66.5128 129.1 68.7725 128.024 70.8201 129.604C72.5489 130.94 74.2456 127.991 72.5374 126.673C68.3639 123.452 64.3687 127.236 60.0738 127.661C55.3959 128.124 51.1563 124.857 46.3958 125.398C44.1096 125.658 42.0646 126.67 39.8519 127.216C36.9606 127.928 34.577 127.152 31.9136 126.097C28.3807 124.699 24.3781 124.346 21.9079 127.739C20.6199 129.509 23.5641 131.208 24.8397 129.456Z" fill="white" stroke="black" stroke-width="0.75" stroke-miterlimit="10"/>
<path d="M72.2495 155.877L20.091 155.831C18.8575 155.83 17.8585 154.828 17.8594 153.595C17.8602 152.361 18.8617 151.362 20.0952 151.363L72.2537 151.41C73.4872 151.41 74.4862 152.412 74.4853 153.645C74.4837 154.879 73.483 155.878 72.2495 155.877Z" fill="#F089D5"/>
<path d="M120.345 150.358C120.345 150.358 122.431 144.851 119.216 140.36C115.999 135.87 109.581 137.326 108.904 142.558C108.904 142.558 105.059 140.92 102.539 144.458C99.7177 148.418 105.59 155.591 110.427 155.835C115.262 156.08 118.668 154.13 120.345 150.358Z" fill="#59CC57"/>
<path d="M114.032 143.394C114.612 144.681 115.952 145.333 117.025 144.85C118.099 144.367 118.498 142.932 117.918 141.645C117.338 140.357 115.998 139.705 114.925 140.188C113.852 140.671 113.453 142.107 114.032 143.394Z" fill="white"/>
<path d="M109.98 143.362C108.084 140.843 106.188 138.326 104.293 135.808C104.023 135.45 103.753 135.09 103.483 134.732C103.246 134.418 102.708 134.726 102.948 135.044C104.843 137.562 106.74 140.081 108.635 142.598C108.905 142.956 109.175 143.315 109.445 143.674C109.682 143.988 110.221 143.68 109.98 143.362Z" fill="black"/>
<path d="M107.13 135.351C106.1 137.169 106 139.061 106.907 139.574C107.815 140.089 109.386 139.031 110.416 137.213C111.447 135.395 111.546 133.503 110.639 132.989C109.731 132.476 108.161 133.532 107.13 135.351Z" stroke="black" stroke-width="0.75" stroke-miterlimit="10"/>
<path d="M109.63 134.888L106.904 139.574" stroke="black" stroke-width="0.75" stroke-miterlimit="10" stroke-linecap="round" stroke-linejoin="round"/>
<path d="M181.705 162.821H3.61149C1.71504 162.821 0.177734 161.284 0.177734 159.388V159.289C0.177734 157.393 1.71504 155.856 3.61149 155.856H181.704C183.601 155.856 185.138 157.394 185.138 159.289V159.388C185.138 161.285 183.602 162.821 181.705 162.821Z" fill="black"/>
<path d="M14.9997 308.502C13.6094 308.502 12.4824 307.376 12.4824 305.985V161.857C12.4824 160.466 13.6094 159.339 14.9997 159.339C16.3901 159.339 17.5171 160.466 17.5171 161.857V305.984C17.5171 307.375 16.3901 308.502 14.9997 308.502Z" fill="black"/>
<path d="M170.318 308.502C168.928 308.502 167.801 307.376 167.801 305.985V161.857C167.801 160.466 168.928 159.339 170.318 159.339C171.708 159.339 172.835 160.466 172.835 161.857V305.984C172.836 307.375 171.708 308.502 170.318 308.502Z" fill="black"/>
<path d="M196.353 73.4941H180.58C178.565 73.4941 176.931 75.128 176.931 77.1434V83.5832V85.8355V92.8904L180.64 89.4839H196.353C198.368 89.4839 200.002 87.85 200.002 85.8347V77.1434C200.003 75.1272 198.369 73.4941 196.353 73.4941Z" fill="white" stroke="black" stroke-width="0.75" stroke-miterlimit="10" stroke-linecap="round" stroke-linejoin="round"/>
<path d="M188.608 86.7751C188.608 86.7751 196.266 80.8545 194.043 78.2051C191.834 75.5722 188.901 80.3815 188.901 80.3815C188.901 80.3815 186.638 75.5466 184.502 77.2664C180.818 80.232 188.608 86.7751 188.608 86.7751Z" fill="black"/>
<path d="M11.7424 34.3179H32.1955C34.8085 34.3179 36.9271 36.4364 36.9271 39.0495V47.3998V50.32V59.4679L32.1162 55.0508H11.7424C9.12928 55.0508 7.01074 52.9323 7.01074 50.3192V39.0487C7.01074 36.4364 9.12928 34.3179 11.7424 34.3179Z" fill="white" stroke="black" stroke-width="0.75" stroke-miterlimit="10" stroke-linecap="round" stroke-linejoin="round"/>
<path d="M21.7822 51.5387C21.7822 51.5387 11.8525 43.8612 14.7347 40.4266C17.5996 37.0127 21.4025 43.2486 21.4025 43.2486C21.4025 43.2486 24.3367 36.9797 27.1067 39.2089C31.8837 43.0546 21.7822 51.5387 21.7822 51.5387Z" fill="black"/>
<path d="M146.921 7.58301H125.714C123.005 7.58301 120.809 9.77916 120.809 12.4888V21.1463V24.1747V33.6602L125.796 29.0805H146.921C149.631 29.0805 151.827 26.8843 151.827 24.1747V12.4888C151.828 9.77916 149.631 7.58301 146.921 7.58301Z" fill="white" stroke="black" stroke-width="0.75" stroke-miterlimit="10" stroke-linecap="round" stroke-linejoin="round"/>
<path d="M153.029 0.599121H131.822C129.112 0.599121 126.916 2.7961 126.916 5.50496V14.1624V17.1908V26.6763L131.904 22.0966H153.029C155.738 22.0966 157.935 19.9005 157.935 17.1908V5.50578C157.935 2.7961 155.738 0.599121 153.029 0.599121Z" fill="white" stroke="black" stroke-width="0.75" stroke-miterlimit="10" stroke-linecap="round" stroke-linejoin="round"/>
<path d="M137.569 11.7379C137.569 12.9161 136.613 13.8713 135.435 13.8713C134.257 13.8713 133.302 12.9161 133.302 11.7379C133.302 10.5597 134.257 9.60449 135.435 9.60449C136.613 9.60532 137.569 10.5597 137.569 11.7379Z" fill="black"/>
<path d="M144.988 11.7379C144.988 12.9161 144.032 13.8713 142.855 13.8713C141.677 13.8713 140.722 12.9161 140.722 11.7379C140.722 10.5597 141.677 9.60449 142.855 9.60449C144.032 9.60532 144.988 10.5597 144.988 11.7379Z" fill="black"/>
<path d="M152.409 11.7379C152.409 12.9161 151.453 13.8713 150.276 13.8713C149.098 13.8713 148.144 12.9161 148.144 11.7379C148.144 10.5597 149.099 9.60449 150.276 9.60449C151.454 9.60532 152.409 10.5597 152.409 11.7379Z" fill="black"/>
</svg>
