<svg width="183" height="323" viewBox="0 0 183 323" fill="none" xmlns="http://www.w3.org/2000/svg">
<path d="M133.221 261.57L147.95 277.971L162.303 268.739L147.296 250.327L133.221 261.57Z" fill="white" stroke="black" stroke-width="0.75" stroke-miterlimit="10"/>
<path d="M135.286 259.92L150.725 276.331" stroke="black" stroke-width="0.75" stroke-miterlimit="10"/>
<path d="M138.35 257.486L153.789 273.897" stroke="black" stroke-width="0.75" stroke-miterlimit="10"/>
<path d="M140.954 254.881L156.195 272.041" stroke="black" stroke-width="0.75" stroke-miterlimit="10"/>
<path d="M143.695 252.907L159.064 270.193" stroke="black" stroke-width="0.75" stroke-miterlimit="10"/>
<path d="M147.762 314.771L181.864 285.407L161.475 263.449L144.511 280.152L151.59 289.499L147.762 314.771Z" fill="#010001" stroke="#0F110E" stroke-miterlimit="10"/>
<path d="M150.368 291.118C150.368 291.118 137.031 295.613 136.242 291.412C134.974 284.652 150.368 291.118 150.368 291.118Z" stroke="black" stroke-miterlimit="10" stroke-linecap="round" stroke-linejoin="round"/>
<path d="M139.955 283.495L150.786 291.065" stroke="black" stroke-miterlimit="10" stroke-linecap="round" stroke-linejoin="round"/>
<path d="M156.562 286.767C158.8 289.293 162.66 289.527 165.186 287.289C167.711 285.053 167.946 281.191 165.708 278.666C163.471 276.14 159.61 275.907 157.084 278.143C154.56 280.38 154.325 284.242 156.562 286.767Z" fill="white"/>
<path d="M129.148 272.813L156.196 250.327L137.719 211.312L127.764 157.869L93.3818 162.376L102.321 227.224L129.148 272.813Z" fill="#F6CB4E"/>
<path d="M137.719 211.312L127.764 157.869L93.3818 162.376L102.321 227.224L129.148 272.813L156.196 250.327" stroke="#0F110E" stroke-miterlimit="10" stroke-linecap="round"/>
<path d="M96.0049 276.604L96.009 296.05L110.871 298.448L111.87 277.517L96.0049 276.604Z" fill="white" stroke="black" stroke-width="0.75" stroke-miterlimit="10"/>
<path d="M98.335 276.738L98.7993 296.61" stroke="black" stroke-width="0.75" stroke-miterlimit="10"/>
<path d="M101.777 276.945L102.242 296.818" stroke="black" stroke-width="0.75" stroke-miterlimit="10"/>
<path d="M105.024 276.771L104.917 297.017" stroke="black" stroke-width="0.75" stroke-miterlimit="10"/>
<path d="M107.987 277.09L107.889 297.494" stroke="black" stroke-width="0.75" stroke-miterlimit="10"/>
<path d="M69.583 320.603L115.091 321.536L114.388 291.58L90.6136 292.834L89.7152 304.525L69.583 320.603Z" fill="#010001" stroke="#0F110E" stroke-miterlimit="10"/>
<path d="M87.7296 304.926C87.7296 304.926 74.7645 299.448 76.9604 295.78C80.493 289.88 87.7296 304.926 87.7296 304.926Z" stroke="black" stroke-miterlimit="10" stroke-linecap="round"/>
<path d="M84.9883 292.316L88.077 305.164" stroke="black" stroke-miterlimit="10" stroke-linecap="round"/>
<path d="M106.997 308.088C108.293 304.973 106.82 301.397 103.705 300.1C100.591 298.803 97.0142 300.276 95.7173 303.391C94.4205 306.506 95.8941 310.082 99.0088 311.379C102.123 312.676 105.7 311.202 106.997 308.088Z" fill="white"/>
<path d="M129.177 160.558L120.755 279.604H84.8887L78.5 158.716L129.177 160.558Z" fill="#F6CB4E"/>
<path d="M107.775 180.26C107.775 180.26 100.929 181.69 95.8287 177.936C90.7285 174.181 90.7645 165.064 91.0142 163.097" stroke="#0F110E" stroke-miterlimit="10" stroke-linecap="round"/>
<path d="M129.176 160.558L120.754 279.603H84.8877" stroke="#0F110E" stroke-miterlimit="10" stroke-linecap="round"/>
<path d="M32.4863 83.0566L46.3588 71.292L74.5264 92.1521L107.409 65.6875L110.361 115.924C93.3514 126.728 68.4169 131.916 60.0052 126.785C50.2978 120.863 35.952 90.1626 35.952 90.1626L32.4863 83.0566Z" fill="#5A87FE"/>
<path d="M52.7157 76.0083L35.9512 90.1623C33.7977 85.9859 32.4863 83.0571 32.4863 83.0571L46.3588 71.2925L52.7157 76.0083Z" fill="white" stroke="black" stroke-width="0.75" stroke-miterlimit="10"/>
<path d="M44.7656 72.5107L50.4607 77.9137" stroke="black" stroke-width="0.75" stroke-miterlimit="10"/>
<path d="M42.168 74.8477L47.3326 80.555" stroke="black" stroke-width="0.75" stroke-miterlimit="10"/>
<path d="M39.2764 77.2993L44.184 83.2123" stroke="black" stroke-width="0.75" stroke-miterlimit="10"/>
<path d="M36.6367 79.6362L41.0661 85.8446" stroke="black" stroke-width="0.75" stroke-miterlimit="10"/>
<path d="M34.5586 81.2998L38.6485 87.8852" stroke="black" stroke-width="0.75" stroke-miterlimit="10"/>
<path d="M74.5303 92.1524L107.413 65.687L110.365 115.923" fill="#5A87FE"/>
<path d="M74.5303 92.1524L107.413 65.687L110.365 115.923" stroke="black" stroke-width="0.75" stroke-miterlimit="10" stroke-linecap="round"/>
<path d="M73.1857 164.372L74.1976 170.746C74.5036 172.675 75.9096 174.15 77.6632 174.375C82.9332 175.049 94.3314 176.345 104.193 176.345C113.901 176.345 125.228 174.866 130.197 173.423C131.847 172.944 133.19 171.616 133.45 169.739L134.154 164.669C134.526 161.999 132.672 159.587 130.237 159.57L77.1402 159.179C74.6505 159.162 72.7532 161.651 73.1857 164.372Z" fill="white" stroke="black" stroke-width="0.75" stroke-miterlimit="10"/>
<path d="M130.197 173.424L129.786 159.567" stroke="black" stroke-width="0.75" stroke-miterlimit="10"/>
<path d="M125.645 174.445L125.228 159.567" stroke="black" stroke-width="0.75" stroke-miterlimit="10"/>
<path d="M121.652 175.081L121.036 159.502" stroke="black" stroke-width="0.75" stroke-miterlimit="10"/>
<path d="M116.264 159.502L116.963 175.647" stroke="black" stroke-width="0.75" stroke-miterlimit="10"/>
<path d="M110.367 159.425L110.927 176.102" stroke="black" stroke-width="0.75" stroke-miterlimit="10"/>
<path d="M105.165 176.102L104.817 159.383" stroke="black" stroke-width="0.75" stroke-miterlimit="10"/>
<path d="M99.8027 159.347V176.269" stroke="black" stroke-width="0.75" stroke-miterlimit="10"/>
<path d="M94.209 159.18V175.991" stroke="black" stroke-width="0.75" stroke-miterlimit="10"/>
<path d="M89.4375 159.18L89.6015 175.647" stroke="black" stroke-width="0.75" stroke-miterlimit="10"/>
<path d="M84.9141 159.18L85.3743 175.256" stroke="black" stroke-width="0.75" stroke-miterlimit="10"/>
<path d="M80.2598 159.18L81.0203 174.784" stroke="black" stroke-width="0.75" stroke-miterlimit="10"/>
<path d="M77.6635 174.375L76.3105 159.18" stroke="black" stroke-width="0.75" stroke-miterlimit="10"/>
<path d="M75.9424 165.562C74.059 164.631 72.1569 163.384 72.1789 161.739C72.7991 110.643 86.5875 69.7998 103.506 69.7998C120.425 69.7998 134.213 110.643 134.833 161.739C134.388 163.676 133.008 164.751 131.07 165.562C118.359 170.887 88.2979 171.669 75.9424 165.562Z" fill="#5A87FE"/>
<path d="M134.834 161.739C134.388 163.676 133.008 164.751 131.07 165.562C118.358 170.887 88.2971 171.669 75.9424 165.562C74.059 164.631 72.1569 163.384 72.1789 161.739C72.7991 110.643 86.5875 69.7998 103.506 69.7998" stroke="black" stroke-width="0.75" stroke-miterlimit="10" stroke-linecap="round"/>
<path d="M53.2874 90.1093H11.7075C5.24215 90.1093 0 84.868 0 78.4018V56.6612C0 50.1958 5.24133 44.9536 11.7075 44.9536H53.2874C59.7528 44.9536 64.995 50.195 64.995 56.6612V78.4026C64.995 84.868 59.7528 90.1093 53.2874 90.1093Z" fill="#F089D5"/>
<path d="M22.5176 85.0319L32.8811 98.1969L42.4809 84.5488L22.5176 85.0319Z" fill="#F089D5"/>
<path d="M32.8977 82.083C32.8977 82.083 11.4892 65.5307 17.7024 58.1253C23.8789 50.7639 32.0776 64.2104 32.0776 64.2104C32.0776 64.2104 38.4034 50.6945 44.3759 55.5009C54.6766 63.7917 32.8977 82.083 32.8977 82.083Z" fill="white"/>
<path d="M67.5569 36.7805H55.984C54.1846 36.7805 52.7256 35.3215 52.7256 33.5221V27.4713C52.7256 25.6719 54.1846 24.2129 55.984 24.2129H67.5561C69.3554 24.2129 70.8145 25.6719 70.8145 27.4713V33.5221C70.8153 35.3215 69.3562 36.7805 67.5569 36.7805Z" fill="#F089D5"/>
<path d="M58.9922 35.3672L61.876 39.0312L64.5485 35.2334L58.9922 35.3672Z" fill="#F089D5"/>
<path d="M61.8816 34.5459C61.8816 34.5459 55.923 29.9386 57.6529 27.8781C59.3723 25.829 61.6539 29.5714 61.6539 29.5714C61.6539 29.5714 63.4149 25.8095 65.0763 27.1478C67.943 29.4555 61.8816 34.5459 61.8816 34.5459Z" fill="white"/>
<path d="M42.0971 20.8544H22.8943C19.9084 20.8544 17.4873 18.4341 17.4873 15.4474V5.407C17.4873 2.42115 19.9076 0 22.8943 0H42.0971C45.0829 0 47.5041 2.42034 47.5041 5.407V15.4482C47.5041 18.4341 45.0829 20.8544 42.0971 20.8544Z" fill="#F089D5"/>
<path d="M27.8857 18.5102L32.6717 24.5896L37.1052 18.2866L27.8857 18.5102Z" fill="#F089D5"/>
<path d="M32.6818 17.1477C32.6818 17.1477 22.7947 9.50313 25.6639 6.08316C28.5167 2.68359 32.3031 8.89355 32.3031 8.89355C32.3031 8.89355 35.2245 2.65176 37.9827 4.87136C42.7401 8.70097 32.6818 17.1477 32.6818 17.1477Z" fill="white"/>
<path d="M93.8511 115.353L67.6656 107.442L52.9551 125.012C52.9551 125.012 59.7885 146.573 89.1116 152.014C118.435 157.455 135.309 130.25 130.198 105.221C125.086 80.1928 110.928 71.9224 110.928 71.9224L95.0572 101.126C92.184 109.614 89.1108 113.753 89.1108 113.753" fill="#5A87FE"/>
<path d="M110.928 71.9229C110.928 71.9229 125.087 80.1933 130.198 105.222C135.309 130.25 118.435 157.455 89.1116 152.014C59.7885 146.573 52.9551 125.013 52.9551 125.013L67.6656 107.441L93.8511 115.353" stroke="#101010" stroke-width="0.75" stroke-miterlimit="10" stroke-linecap="round" stroke-linejoin="round"/>
<path d="M89.1123 113.753C89.1123 113.753 92.1855 109.613 95.0587 101.126" stroke="#101010" stroke-width="0.75" stroke-miterlimit="10" stroke-linecap="round" stroke-linejoin="round"/>
<path d="M56.0323 120.655C56.0323 120.655 32.3218 102.672 30.3209 96.8503C28.6431 91.968 38.9194 102.074 38.9194 102.074C38.9194 102.074 30.9141 95.5871 31.8893 93.6082C32.8645 91.6293 41.0957 99.8859 41.0957 99.8859C41.0957 99.8859 32.3381 91.8619 33.6152 90.5122C34.8923 89.1625 43.2786 97.832 43.2786 97.832C43.2786 97.832 34.2852 89.7663 35.7459 88.1531C37.2065 86.5406 45.7136 95.4304 45.7136 95.4304C45.7136 95.4304 41.0908 89.2775 42.6698 88.5766C44.2489 87.8756 52.8498 101.062 63.3717 108.221C69.3964 112.32 56.0323 120.655 56.0323 120.655Z" fill="white"/>
<path d="M42.8682 97.043C40.6249 95.0805 38.3017 92.9237 36.6827 90.3981C36.3938 89.9477 35.3656 88.4184 36.4044 88.2462C37.0083 88.1459 37.7868 88.7024 38.265 89.006C40.8958 90.6796 43.1832 93.0714 45.2836 95.3604C45.5138 95.6109 45.9732 95.273 45.7643 94.9899C45.26 94.3052 44.7768 93.6043 44.3101 92.8935C43.6679 91.9151 42.7474 90.7286 42.5164 89.5551C42.2316 88.1034 43.8874 89.5258 44.2685 89.8938C44.7157 90.3255 45.1335 90.7906 45.557 91.2443C46.6203 92.3819 47.6729 93.5292 48.7191 94.6831C50.4409 96.5811 52.0412 98.6171 53.8731 100.409C55.8569 102.35 57.9516 104.182 60.0447 106.002C61.8188 107.545 63.5814 109.133 65.4566 110.554C65.7708 110.791 66.076 110.261 65.7659 110.025C63.8695 108.589 62.0897 106.973 60.2969 105.412C58.0618 103.465 55.7981 101.517 53.7238 99.3973C51.5874 97.2136 49.6624 94.7965 47.5938 92.5451C46.9557 91.8506 42.616 86.5007 41.9044 88.8281C41.5494 89.9893 42.7401 91.5544 43.2998 92.4537C43.9062 93.4264 44.5541 94.3762 45.2338 95.2992C45.3938 95.1751 45.5545 95.0519 45.7145 94.9287C43.7862 92.8274 41.7151 90.7661 39.4204 89.068C38.5913 88.4543 37.1519 87.2988 36.016 87.7077C34.6614 88.1948 35.6676 89.9525 36.1523 90.7082C37.8023 93.2819 40.1483 95.4779 42.4332 97.4771C42.7302 97.7342 43.1652 97.3025 42.8682 97.043Z" fill="#0F110E"/>
<path d="M40.8597 99.2213C39.3729 97.8911 37.9212 96.5145 36.5226 95.0913C36.1113 94.6727 32.3559 91.0879 33.7701 90.5028C34.2614 90.2996 34.9264 90.6334 35.3442 90.8619C36.3724 91.4249 37.2366 92.2614 38.0265 93.1157C38.2942 93.4054 38.7266 92.9721 38.459 92.6832C37.7033 91.8656 36.88 91.0806 35.9277 90.4947C35.3842 90.1601 34.7437 89.8459 34.09 89.8418C32.9884 89.8353 32.6717 90.8651 33.0259 91.7652C33.4372 92.8105 34.374 93.7114 35.1239 94.5177C36.1709 95.6438 37.2733 96.7177 38.3904 97.7736C39.0612 98.4085 39.7377 99.0376 40.4264 99.6537C40.7194 99.9165 41.1535 99.4848 40.8597 99.2213Z" fill="#0F110E"/>
<path d="M38.1241 101.007C37.3579 100.341 36.6202 99.638 35.8947 98.928C34.7613 97.8191 33.5944 96.6701 32.6984 95.3546C32.3671 94.8683 31.9158 94.1175 32.0929 93.5855C32.0896 93.5953 32.1492 93.5186 32.1598 93.5112C32.221 93.468 32.2757 93.4574 32.3352 93.4509C32.6274 93.4198 32.9342 93.5284 33.201 93.6369C34.4911 94.1616 35.6148 95.1531 36.6324 96.0736C36.9237 96.3371 37.3579 95.9055 37.0649 95.6411C36.0237 94.6994 34.8935 93.725 33.5993 93.1465C33.0582 92.9049 32.2218 92.6038 31.7167 93.0853C31.2499 93.5292 31.4596 94.2783 31.6775 94.7891C31.9419 95.4069 32.3573 95.9512 32.7751 96.4726C33.3308 97.1646 33.9363 97.8166 34.5548 98.4531C35.5594 99.4862 36.6022 100.494 37.69 101.44C37.987 101.698 38.422 101.267 38.1241 101.007Z" fill="#0F110E"/>
<path d="M34.7199 97.7378C33.7268 96.7659 32.4497 95.3378 31.0869 94.92C30.6928 94.7993 30.3525 94.8433 30.0367 95.1143C28.5524 96.3922 30.9531 99.2793 31.6876 100.222C33.6607 102.754 35.9383 104.871 38.3741 106.921C41.4195 109.486 44.4772 112.036 47.5634 114.552C49.2379 115.916 50.9189 117.273 52.6284 118.594C53.673 119.4 54.7232 120.276 55.8803 120.919C56.2247 121.11 56.534 120.582 56.1896 120.39C53.8672 119.099 51.7937 117.187 49.7356 115.529C46.7645 113.135 43.8284 110.698 40.903 108.248C39.3835 106.976 37.8135 105.741 36.3455 104.408C34.5045 102.736 32.7035 100.762 31.3228 98.6852C30.8691 98.0022 30.0571 96.8785 30.2326 95.9809C30.2913 95.683 30.4798 95.4603 30.6977 95.4505C31.3203 95.4219 32.2564 96.362 32.6791 96.7153C33.2331 97.1788 33.7709 97.6643 34.2866 98.1703C34.569 98.4461 35.0023 98.0136 34.7199 97.7378Z" fill="#0F110E"/>
<path d="M53.8092 126.367C51.0127 122.03 49.4736 118.809 49.4736 118.809L60.6842 104.338L68.6853 107.895L53.8092 126.367Z" fill="white" stroke="#0F110E" stroke-width="0.75" stroke-miterlimit="10" stroke-linecap="round" stroke-linejoin="round"/>
<path d="M95.7879 43.468L101.053 43.3888C104.554 43.3358 107.467 46.5534 107.526 50.5389L107.65 58.7008C107.653 58.9309 107.645 59.1577 107.629 59.383C107.69 59.6229 107.726 59.8718 107.73 60.1288L107.805 65.0976L107.81 65.3742L107.885 70.343C107.912 72.1464 106.459 73.643 104.656 73.6708L102.567 73.7026C100.765 73.7295 99.2674 72.277 99.2396 70.4744L99.1735 66.0777L96.129 66.1234C92.6282 66.1764 89.715 62.9588 89.6554 58.9733L89.5322 50.8114C89.4726 46.8251 92.2879 43.521 95.7879 43.468Z" fill="white" stroke="black" stroke-width="0.75" stroke-miterlimit="10" stroke-linecap="round" stroke-linejoin="round"/>
<path d="M100.111 53.3171C100.121 53.9724 99.5982 54.5118 98.9429 54.5224C98.2876 54.5322 97.7482 54.0091 97.7384 53.353C97.7286 52.6978 98.2517 52.1584 98.907 52.1486C99.5622 52.1388 100.102 52.6619 100.111 53.3171Z" fill="black"/>
<path d="M92.3378 53.2608C92.346 53.8206 91.8996 54.2808 91.3398 54.289C90.78 54.2972 90.3198 53.8508 90.3116 53.291C90.3035 52.7312 90.7498 52.271 91.3096 52.2628C91.8686 52.2546 92.3296 52.7018 92.3378 53.2608Z" fill="black"/>
<path d="M93.5439 58.0999C93.5439 58.0999 94.1666 59.829 95.429 59.9294C96.6914 60.0298 97.6591 58.6172 97.7105 57.5254L93.5439 58.0999Z" fill="white" stroke="#0F110E" stroke-width="0.5" stroke-miterlimit="10" stroke-linecap="round" stroke-linejoin="round"/>
<path d="M95.34 55.9519L93.499 55.1016L95.1425 52.2104" stroke="black" stroke-width="0.5" stroke-miterlimit="10" stroke-linecap="round" stroke-linejoin="round"/>
<path d="M101.199 50.6853C100.561 50.4715 99.9226 50.2585 99.2845 50.0447C99.1939 50.0145 99.1041 49.9843 99.0135 49.9541C98.7605 49.8693 98.4448 50.0521 98.386 50.3107C98.3215 50.5923 98.4709 50.8477 98.7418 50.9383C99.38 51.1512 100.018 51.365 100.656 51.5788C100.747 51.609 100.837 51.6392 100.927 51.6694C101.18 51.7543 101.496 51.5715 101.555 51.3128C101.619 51.0313 101.47 50.7759 101.199 50.6853Z" fill="black"/>
<path d="M92.2525 50.4185C91.678 50.4275 91.1035 50.4357 90.529 50.4446C90.4466 50.4455 90.3634 50.4471 90.2809 50.4487C90.0141 50.4528 89.7587 50.6805 89.7709 50.9587C89.7832 51.2313 89.9953 51.4728 90.2809 51.4688C90.8554 51.4598 91.4299 51.4516 92.0044 51.4426C92.0868 51.441 92.1701 51.4402 92.2525 51.4386C92.5193 51.4345 92.7747 51.2068 92.7625 50.9285C92.7503 50.6552 92.5381 50.4136 92.2525 50.4185Z" fill="black"/>
<path d="M107.597 57.5414C108.294 57.3904 109.033 57.463 109.692 57.7747C109.45 56.8959 109.518 55.9574 109.897 55.1137C108.335 56.2039 106.172 56.0823 104.743 54.7155C104.108 54.1083 103.719 53.3445 103.564 52.5424C103.024 52.3563 102.513 52.0634 102.073 51.6431C101.163 50.7732 100.761 49.5843 100.84 48.419C100.564 48.259 100.298 48.0754 100.057 47.8453C99.8581 47.6552 99.6851 47.4487 99.5333 47.2325C98.031 48.521 95.8212 48.5455 94.2911 47.2725C94.19 47.4096 94.0961 47.5507 93.9753 47.6772C92.4175 49.3068 89.8332 49.3639 88.2044 47.8061C87.5393 47.1696 87.1501 46.361 87.0122 45.5172C86.4965 45.3295 86.0093 45.0398 85.5882 44.6359C83.9586 43.0781 83.9007 40.4937 85.4593 38.8649C85.6706 38.6438 85.904 38.4577 86.148 38.2945C86.1243 37.2492 86.4989 36.1949 87.2782 35.3797C88.0469 34.5759 89.0653 34.1589 90.0952 34.1246C90.2837 33.6489 90.5603 33.1993 90.9356 32.8067C92.2446 31.4383 94.2707 31.1935 95.853 32.0691C96.0383 31.5248 96.332 31.009 96.7556 30.5659C98.3134 28.9363 100.898 28.8792 102.526 30.437C102.898 30.792 103.176 31.2041 103.383 31.6423C103.443 31.5696 103.489 31.4905 103.556 31.422C104.957 29.9564 107.282 29.9041 108.747 31.3061C109.096 31.6398 109.362 32.0274 109.548 32.4412C111.023 31.7663 112.821 32.007 114.065 33.1968C114.811 33.91 115.211 34.8387 115.293 35.7918C116.131 35.7493 116.984 36.0317 117.639 36.6568C118.654 37.6278 118.867 39.1073 118.289 40.3085C119.102 40.4366 119.887 40.8006 120.527 41.4126C122.197 43.0095 122.256 45.6575 120.659 47.3271C120.126 47.8853 119.47 48.2468 118.778 48.4435C119.921 49.7973 119.897 51.8145 118.645 53.1234C118.047 53.7493 117.271 54.0896 116.473 54.1736C117.777 55.6963 117.757 57.9796 116.342 59.459C115.053 60.8063 113.044 61.0331 111.502 60.1331C111.677 61.1196 111.406 62.1731 110.66 62.9532C109.879 63.7693 108.776 64.0892 107.741 63.9072L107.597 57.5414Z" fill="black"/>
<path d="M114.248 56.0943C114.283 58.3906 112.434 60.2805 110.119 60.3156C107.803 60.3507 105.899 58.5171 105.864 56.2208C105.829 53.9245 107.678 52.0346 109.993 51.9995C112.309 51.9652 114.213 53.798 114.248 56.0943Z" fill="white"/>
<path d="M108.137 56.7408C108.13 56.6534 108.132 56.5645 108.135 56.4772C108.137 56.4405 108.178 56.1997 108.16 56.1859C108.169 56.1932 108.145 56.2821 108.155 56.2226C108.157 56.2095 108.159 56.1965 108.161 56.1834C108.165 56.1565 108.169 56.1304 108.174 56.1034C108.186 56.0422 108.199 55.981 108.214 55.9198C108.246 55.7876 108.29 55.6603 108.339 55.533C108.298 55.6375 108.343 55.5281 108.352 55.5069C108.366 55.4775 108.381 55.4474 108.396 55.4188C108.431 55.3535 108.468 55.2899 108.509 55.2287C108.529 55.1976 108.556 55.1683 108.574 55.1364C108.596 55.0965 108.52 55.1993 108.566 55.1471C108.58 55.1315 108.593 55.1144 108.607 55.0989C108.658 55.0393 108.714 54.983 108.773 54.93C108.8 54.9055 108.829 54.8818 108.857 54.859C108.782 54.921 108.879 54.8443 108.899 54.8313C108.971 54.7823 109.047 54.739 109.125 54.6999C109.147 54.6893 109.17 54.6795 109.193 54.668C109.261 54.6354 109.14 54.6844 109.206 54.6631C109.256 54.6468 109.305 54.6264 109.355 54.6117C109.465 54.5783 109.575 54.5562 109.687 54.535C109.784 54.5171 109.617 54.5407 109.717 54.5301C109.754 54.5261 109.791 54.522 109.828 54.5195C109.894 54.5138 109.959 54.5114 110.025 54.5097C110.176 54.5065 110.326 54.5138 110.477 54.5269C110.658 54.5432 110.814 54.3604 110.814 54.1899C110.814 53.994 110.659 53.8692 110.477 53.8528C109.601 53.7753 108.653 53.9695 108.077 54.6868C107.69 55.1699 107.509 55.7689 107.467 56.3809C107.459 56.5 107.454 56.6216 107.463 56.7408C107.478 56.9219 107.607 57.0778 107.8 57.0778C107.971 57.0778 108.152 56.9227 108.137 56.7408Z" fill="black"/>
<path d="M105.864 56.2207C105.846 55.0538 106.314 53.9922 107.084 53.2251" stroke="#0F110E" stroke-width="0.75" stroke-miterlimit="10" stroke-linecap="round" stroke-linejoin="round"/>
<path d="M107.084 53.2262C107.828 52.4836 108.855 52.0176 109.993 52.0005C112.308 51.9654 114.213 53.799 114.248 56.0953C114.283 58.3916 112.434 60.2815 110.119 60.3166C109.404 60.3272 108.729 60.16 108.135 59.8564C107.915 59.7438 107.352 59.3807 107.175 59.2109" stroke="#0F110E" stroke-width="0.75" stroke-miterlimit="10" stroke-linecap="round" stroke-linejoin="round"/>
<path d="M98.2189 75.5146L109.115 75.14C110.835 75.0813 112.181 73.6394 112.122 71.9192L112.057 70.0472C111.998 68.3278 110.556 66.9814 108.836 67.041L97.9398 67.4155C96.2204 67.4743 94.874 68.917 94.9335 70.6364L94.998 72.5083C95.0576 74.2277 96.4995 75.5742 98.2189 75.5146Z" fill="white" stroke="black" stroke-width="0.75" stroke-miterlimit="10"/>
</svg>
