<svg width="201" height="323" viewBox="0 0 201 323" fill="none" xmlns="http://www.w3.org/2000/svg">
<path d="M131.102 260.415L131.178 292.683L113.297 294.545L113.554 261.101L131.102 260.415Z" fill="white"/>
<path d="M128.023 283.353L127.594 293.645" stroke="black" stroke-width="0.75" stroke-miterlimit="10"/>
<path d="M123.82 283.563L123.211 293.607" stroke="black" stroke-width="0.75" stroke-miterlimit="10"/>
<path d="M119.77 283.752L119.857 294.095" stroke="black" stroke-width="0.75" stroke-miterlimit="10"/>
<path d="M116.583 283.821L116.223 294.241" stroke="black" stroke-width="0.75" stroke-miterlimit="10"/>
<path d="M131.102 260.415L131.178 292.683L113.297 294.545L113.554 261.101L131.102 260.415Z" stroke="black" stroke-width="0.75" stroke-miterlimit="10"/>
<path d="M131.514 285.522L113.086 285.406L112.986 282.472L131.63 282.757L131.514 285.522Z" fill="white" stroke="black" stroke-width="0.75" stroke-miterlimit="10"/>
<path d="M109.438 291.102L135.819 291.705L136.059 298.185L154.339 315.325L107.861 315.011L109.438 291.102Z" fill="white"/>
<path d="M146.946 302.695L143.379 309.921" stroke="black" stroke-width="0.75" stroke-miterlimit="10" stroke-linecap="round" stroke-linejoin="round"/>
<path d="M141.974 299.887L138.406 307.112" stroke="black" stroke-width="0.75" stroke-miterlimit="10" stroke-linecap="round" stroke-linejoin="round"/>
<path d="M138.195 298.692C138.195 298.692 152.46 293.479 150.246 289.522C146.685 283.159 138.195 298.692 138.195 298.692Z" stroke="black" stroke-width="0.75" stroke-miterlimit="10" stroke-linecap="round" stroke-linejoin="round"/>
<path d="M141.714 285.531L137.809 298.929" stroke="black" stroke-width="0.75" stroke-miterlimit="10" stroke-linecap="round" stroke-linejoin="round"/>
<path d="M107.893 314.568C107.893 314.568 108.236 309.369 108.73 301.872L108.823 300.463C112.207 300.51 115.518 302.106 117.553 305.036C119.69 308.114 119.896 311.911 118.461 315.083L116.865 315.073C107.328 315.324 107.893 314.568 107.893 314.568Z" fill="black"/>
<path d="M109.438 291.102L135.819 291.705L136.059 298.185L154.339 315.325L107.861 315.011L109.438 291.102Z" stroke="black" stroke-width="0.75" stroke-miterlimit="10" stroke-linecap="round" stroke-linejoin="round"/>
<path d="M149.401 312.885L120.812 312.368" stroke="black" stroke-width="0.75" stroke-miterlimit="10" stroke-linecap="round" stroke-linejoin="round"/>
<path d="M78.9415 260.415L78.8652 292.683L96.7457 294.545L96.488 261.101L78.9415 260.415Z" fill="white"/>
<path d="M82.0176 283.353L82.4466 293.645" stroke="black" stroke-width="0.75" stroke-miterlimit="10"/>
<path d="M86.2148 283.563L86.8244 293.607" stroke="black" stroke-width="0.75" stroke-miterlimit="10"/>
<path d="M90.2714 283.752L90.1836 294.095" stroke="black" stroke-width="0.75" stroke-miterlimit="10"/>
<path d="M93.459 283.821L93.8191 294.241" stroke="black" stroke-width="0.75" stroke-miterlimit="10"/>
<path d="M78.9415 260.415L78.8652 292.683L96.7457 294.545L96.488 261.101L78.9415 260.415Z" stroke="black" stroke-width="0.75" stroke-miterlimit="10"/>
<path d="M78.5278 285.522L96.9546 285.406L97.0555 282.472L78.4121 282.757L78.5278 285.522Z" fill="white" stroke="black" stroke-width="0.75" stroke-miterlimit="10"/>
<path d="M100.6 291.102L74.2195 291.704L73.9792 298.184L55.6992 315.324L102.176 315.01L100.6 291.102Z" fill="white"/>
<path d="M63.0957 302.695L66.6636 309.921" stroke="black" stroke-width="0.75" stroke-miterlimit="10" stroke-linecap="round" stroke-linejoin="round"/>
<path d="M68.0684 299.887L71.6354 307.112" stroke="black" stroke-width="0.75" stroke-miterlimit="10" stroke-linecap="round" stroke-linejoin="round"/>
<path d="M71.8486 298.692C71.8486 298.692 57.5837 293.478 59.7979 289.522C63.3601 283.159 71.8486 298.692 71.8486 298.692Z" stroke="black" stroke-width="0.75" stroke-miterlimit="10" stroke-linecap="round" stroke-linejoin="round"/>
<path d="M68.3301 285.531L72.2359 298.928" stroke="black" stroke-width="0.75" stroke-miterlimit="10" stroke-linecap="round" stroke-linejoin="round"/>
<path d="M93.6879 305.827C95.4615 303.273 98.3567 301.889 101.308 301.871L101.215 300.462C97.83 300.51 94.5197 302.105 92.4843 305.036C90.3472 308.114 90.1413 311.91 91.577 315.082L93.1735 315.072C91.6385 312.227 91.714 308.67 93.6879 305.827Z" fill="black"/>
<path d="M100.6 291.102L74.2195 291.704L73.9792 298.184L55.6992 315.324L102.176 315.01L100.6 291.102Z" stroke="black" stroke-width="0.75" stroke-miterlimit="10" stroke-linecap="round" stroke-linejoin="round"/>
<path d="M60.6387 312.885L89.2268 312.367" stroke="black" stroke-width="0.75" stroke-miterlimit="10" stroke-linecap="round" stroke-linejoin="round"/>
<path d="M78.9415 260.415L78.8652 292.683L96.7457 294.545L96.488 261.101L78.9415 260.415Z" fill="white"/>
<path d="M82.0176 283.353L82.4466 293.645" stroke="black" stroke-width="0.75" stroke-miterlimit="10"/>
<path d="M86.2148 283.564L86.8244 293.607" stroke="black" stroke-width="0.75" stroke-miterlimit="10"/>
<path d="M90.2714 283.752L90.1836 294.095" stroke="black" stroke-width="0.75" stroke-miterlimit="10"/>
<path d="M93.459 283.821L93.8191 294.241" stroke="black" stroke-width="0.75" stroke-miterlimit="10"/>
<path d="M78.9415 260.415L78.8652 292.683L96.7457 294.545L96.488 261.101L78.9415 260.415Z" stroke="black" stroke-width="0.75" stroke-miterlimit="10"/>
<path d="M78.5278 285.523L96.9546 285.406L97.0555 282.472L78.4121 282.757L78.5278 285.523Z" fill="white" stroke="black" stroke-width="0.75" stroke-miterlimit="10"/>
<path d="M100.6 291.102L74.2195 291.705L73.9792 298.185L55.6992 315.325L102.176 315.011L100.6 291.102Z" fill="white"/>
<path d="M63.0957 302.695L66.6636 309.921" stroke="black" stroke-width="0.75" stroke-miterlimit="10" stroke-linecap="round" stroke-linejoin="round"/>
<path d="M68.0684 299.887L71.6354 307.112" stroke="black" stroke-width="0.75" stroke-miterlimit="10" stroke-linecap="round" stroke-linejoin="round"/>
<path d="M71.8486 298.692C71.8486 298.692 57.5837 293.479 59.7979 289.522C63.3601 283.159 71.8486 298.692 71.8486 298.692Z" stroke="black" stroke-width="0.75" stroke-miterlimit="10" stroke-linecap="round" stroke-linejoin="round"/>
<path d="M68.3301 285.531L72.2359 298.929" stroke="black" stroke-width="0.75" stroke-miterlimit="10" stroke-linecap="round" stroke-linejoin="round"/>
<path d="M102.148 314.567C102.148 314.567 101.7 307.772 101.312 301.871L101.219 300.462C97.8339 300.51 94.5236 302.105 92.4883 305.036C90.3511 308.114 90.1452 311.91 91.5809 315.082L93.1774 315.072C102.782 315.324 102.148 314.567 102.148 314.567Z" fill="black"/>
<path d="M100.6 291.102L74.2195 291.705L73.9792 298.185L55.6992 315.325L102.176 315.011L100.6 291.102Z" stroke="black" stroke-width="0.75" stroke-miterlimit="10" stroke-linecap="round" stroke-linejoin="round"/>
<path d="M60.6387 312.885L89.2268 312.368" stroke="black" stroke-width="0.75" stroke-miterlimit="10" stroke-linecap="round" stroke-linejoin="round"/>
<path d="M75.541 154.233L71.5137 267.775L137.521 267.746L130.962 150.109L75.541 154.233Z" fill="white"/>
<path d="M75.541 154.233L71.5137 267.775L137.521 267.746L130.962 150.109L75.541 154.233Z" stroke="black" stroke-width="0.75" stroke-miterlimit="10" stroke-linecap="round" stroke-linejoin="round"/>
<path d="M81.1676 157.857L79.3086 264.001" stroke="black" stroke-width="0.75" stroke-miterlimit="10" stroke-linecap="round" stroke-linejoin="round"/>
<path d="M91.5215 157.133V233.444" stroke="black" stroke-width="0.75" stroke-miterlimit="10" stroke-linecap="round" stroke-linejoin="round"/>
<path d="M105.021 156.764L106.978 262.739" stroke="black" stroke-width="0.75" stroke-miterlimit="10" stroke-linecap="round" stroke-linejoin="round"/>
<path d="M116.338 156.422L119.375 238.701" stroke="black" stroke-width="0.75" stroke-miterlimit="10" stroke-linecap="round" stroke-linejoin="round"/>
<path d="M126.395 155.761L130.96 263.742" stroke="black" stroke-width="0.75" stroke-miterlimit="10" stroke-linecap="round" stroke-linejoin="round"/>
<path d="M108.418 30.728C108.418 30.728 97.965 28.0774 92.6965 32.1184C87.4279 36.1593 88.5863 44.9895 90.9408 49.3019C90.9408 49.3019 85.0365 67.8647 85.2539 75.604C85.4713 83.3425 108.418 81.7556 108.418 81.7556C108.418 81.7556 122.313 81.4945 124.161 80.6727C126.008 79.8518 121.226 53.7933 118.51 49.3019C118.51 49.3019 121.325 43.2629 120.515 37.3836C119.705 31.505 112.817 28.6364 108.418 30.728Z" fill="black"/>
<path d="M118.797 51.0371C118.797 51.0371 126.339 62.3166 125.216 77.0349" stroke="black" stroke-width="0.75" stroke-miterlimit="10"/>
<path d="M65.3182 75.9164C65.3182 75.9164 77.8964 74.0932 96.9516 68.8911C116.007 63.689 76.7667 107.389 76.7667 107.389C76.7667 107.389 58.9987 87.0098 65.3182 75.9164Z" fill="white"/>
<path d="M87.4932 81.8885C87.4932 83.0976 86.4857 84.0783 85.2437 84.0783C84.0016 84.0783 82.9941 83.0976 82.9941 81.8885C82.9941 80.6794 84.0016 79.6987 85.2437 79.6987C86.4857 79.6987 87.4932 80.6786 87.4932 81.8885Z" fill="#F6CB4E"/>
<path d="M77.2549 78.8411C77.2549 80.0502 76.2474 81.0309 75.0054 81.0309C73.7633 81.0309 72.7559 80.0502 72.7559 78.8411C72.7559 77.6321 73.7633 76.6514 75.0054 76.6514C76.2474 76.6514 77.2549 77.6321 77.2549 78.8411Z" fill="#F6CB4E"/>
<path d="M83.0273 72.3979C83.175 73.4681 84.107 74.297 85.2465 74.297C86.4886 74.297 87.496 73.3163 87.496 72.1072C87.496 71.8469 87.4419 71.6017 87.3557 71.3701L83.0273 72.3979Z" fill="#F6CB4E"/>
<path d="M65.3182 75.9164C65.3182 75.9164 77.8964 74.0932 96.9516 68.8911C116.007 63.689 76.7667 107.389 76.7667 107.389C76.7667 107.389 58.9987 87.0098 65.3182 75.9164Z" stroke="black" stroke-width="0.75" stroke-miterlimit="10" stroke-linecap="round" stroke-linejoin="round"/>
<path d="M134.973 163.492H74.8418V98.5354C74.8418 82.4787 88.2133 69.4614 104.709 69.4614H105.106C121.601 69.4614 134.973 82.4779 134.973 98.5354V163.492Z" fill="white"/>
<path d="M93.1904 148.61C93.1904 149.819 92.183 150.8 90.9409 150.8C89.6988 150.8 88.6914 149.819 88.6914 148.61C88.6914 147.401 89.6988 146.42 90.9409 146.42C92.1838 146.42 93.1904 147.4 93.1904 148.61Z" fill="#F6CB4E"/>
<path d="M108.378 156.051C108.378 157.26 107.37 158.24 106.128 158.24C104.886 158.24 103.879 157.26 103.879 156.051C103.879 154.842 104.886 153.861 106.128 153.861C107.371 153.861 108.378 154.842 108.378 156.051Z" fill="#F6CB4E"/>
<path d="M119.511 144.772C119.511 145.981 118.503 146.962 117.261 146.962C116.019 146.962 115.012 145.981 115.012 144.772C115.012 143.563 116.019 142.583 117.261 142.583C118.503 142.583 119.511 143.562 119.511 144.772Z" fill="#F6CB4E"/>
<path d="M130.71 155.642C130.71 156.851 129.702 157.832 128.46 157.832C127.218 157.832 126.211 156.851 126.211 155.642C126.211 154.433 127.218 153.452 128.46 153.452C129.703 153.452 130.71 154.432 130.71 155.642Z" fill="#F6CB4E"/>
<path d="M132.96 137.836C132.96 139.045 131.953 140.026 130.71 140.026C129.468 140.026 128.461 139.045 128.461 137.836C128.461 136.627 129.468 135.646 130.71 135.646C131.953 135.646 132.96 136.627 132.96 137.836Z" fill="#F6CB4E"/>
<path d="M104.622 136.361C104.622 137.57 103.615 138.55 102.373 138.55C101.13 138.55 100.123 137.57 100.123 136.361C100.123 135.152 101.13 134.171 102.373 134.171C103.615 134.172 104.622 135.152 104.622 136.361Z" fill="#F6CB4E"/>
<path d="M82.7002 136.871C82.7002 138.08 81.6928 139.061 80.4507 139.061C79.2086 139.061 78.2012 138.08 78.2012 136.871C78.2012 135.662 79.2086 134.681 80.4507 134.681C81.6928 134.681 82.7002 135.661 82.7002 136.871Z" fill="#F6CB4E"/>
<path d="M93.1904 127.328C93.1904 128.537 92.183 129.518 90.9409 129.518C89.6988 129.518 88.6914 128.537 88.6914 127.328C88.6914 126.119 89.6988 125.138 90.9409 125.138C92.1838 125.138 93.1904 126.119 93.1904 127.328Z" fill="#F6CB4E"/>
<path d="M82.0088 115.708C82.0088 116.917 81.0014 117.898 79.7593 117.898C78.5172 117.898 77.5098 116.917 77.5098 115.708C77.5098 114.499 78.5172 113.518 79.7593 113.518C81.0022 113.518 82.0088 114.498 82.0088 115.708Z" fill="#F6CB4E"/>
<path d="M97.7881 93.8441C97.7881 95.0532 96.7806 96.0339 95.5386 96.0339C94.2965 96.0339 93.2891 95.0532 93.2891 93.8441C93.2891 92.635 94.2965 91.6543 95.5386 91.6543C96.7815 91.6543 97.7881 92.635 97.7881 93.8441Z" fill="#F6CB4E"/>
<path d="M87.5127 85.5399C87.5127 86.749 86.5053 87.7296 85.2632 87.7296C84.0211 87.7296 83.0137 86.749 83.0137 85.5399C83.0137 84.3308 84.0211 83.3501 85.2632 83.3501C86.5053 83.3501 87.5127 84.3308 87.5127 85.5399Z" fill="#F6CB4E"/>
<path d="M96.3603 76.4871C96.3603 77.6962 95.3529 78.6769 94.1108 78.6769C92.8688 78.6769 91.8613 77.6962 91.8613 76.4871C91.8613 75.2781 92.8688 74.2974 94.1108 74.2974C95.3529 74.2982 96.3603 75.2781 96.3603 76.4871Z" fill="#F6CB4E"/>
<path d="M104.144 84.5902C104.144 85.7992 103.136 86.7799 101.894 86.7799C100.652 86.7799 99.6445 85.7992 99.6445 84.5902C99.6445 83.3811 100.652 82.4004 101.894 82.4004C103.137 82.4004 104.144 83.3803 104.144 84.5902Z" fill="#F6CB4E"/>
<path d="M113.835 95.3675C113.835 96.5766 112.827 97.5573 111.585 97.5573C110.343 97.5573 109.336 96.5766 109.336 95.3675C109.336 94.1584 110.343 93.1777 111.585 93.1777C112.827 93.1777 113.835 94.1576 113.835 95.3675Z" fill="#F6CB4E"/>
<path d="M80.3943 153.95C81.5863 154.291 82.2681 155.508 81.9178 156.669C81.5675 157.829 80.3163 158.493 79.1251 158.152C77.9331 157.811 77.2514 156.593 77.6017 155.433C77.9512 154.272 79.2022 153.608 80.3943 153.95Z" fill="#F6CB4E"/>
<path d="M134.973 163.492H74.8418V98.5354C74.8418 82.4787 88.2133 69.4614 104.709 69.4614H105.106C121.601 69.4614 134.973 82.4779 134.973 98.5354V163.492Z" stroke="black" stroke-width="0.75" stroke-miterlimit="10" stroke-linecap="round" stroke-linejoin="round"/>
<path d="M134.973 157.683H74.8418V163.491H134.973V157.683Z" fill="white" stroke="black" stroke-width="0.75" stroke-miterlimit="10" stroke-linecap="round" stroke-linejoin="round"/>
<path d="M65.4878 59.7169L65.368 59.6122C65.368 59.6122 63.0413 60.2871 58.2765 61.3764C55.1828 62.0831 51.3147 62.6725 47.2103 62.9927C38.1901 62.2892 30.992 58.1548 30.992 58.1548L29.3586 59.1554C29.3586 59.1554 26.8457 60.7231 31.8567 67.508C35.7133 72.7293 43.1813 77.16 46.4211 78.9249H47.9987C51.2376 77.1592 58.7064 72.7293 62.5631 67.508C67.5748 60.7231 65.4878 59.7169 65.4878 59.7169Z" fill="#59CC57" stroke="black" stroke-width="0.75" stroke-miterlimit="10" stroke-linecap="round" stroke-linejoin="round"/>
<path d="M43.4397 42.0262C42.6209 40.5751 43.3486 38.7934 44.6875 37.9093C46.1076 36.9718 48.1733 36.6244 49.6599 37.5995C51.1464 38.5746 51.5739 40.4601 51.0472 42.0605C50.5525 43.5635 49.3932 44.7813 48.4957 46.0647C47.9773 46.8066 47.5195 47.5924 47.2274 48.4469C46.8427 49.5754 46.7967 50.7924 46.823 51.972C46.8443 52.9383 48.3891 52.9415 48.3678 51.972C48.3423 50.822 48.3793 49.6552 48.819 48.5715C49.1644 47.7202 49.7231 46.9543 50.2694 46.2172C51.427 44.6552 52.6338 43.0987 52.8028 41.1102C52.9784 39.0394 51.8487 36.9079 49.897 36.0031C47.951 35.0999 45.425 35.5175 43.7153 36.745C41.7915 38.1266 40.908 40.6653 42.1049 42.7872C42.584 43.6337 43.9188 42.8759 43.4397 42.0262Z" fill="black"/>
<path d="M28.9253 60.6527C31.8385 59.0994 34.7525 57.5453 37.6657 55.992C39.1088 55.2221 40.5879 54.4946 42.0039 53.6792C42.0646 53.6441 42.3017 53.5682 42.3329 53.5035C42.2583 53.6569 41.57 53.5706 42.1008 53.6249C42.8933 53.7064 43.7415 53.6249 44.5381 53.6249C46.4283 53.6249 48.3193 53.6249 50.2095 53.6249C51.5295 53.6249 51.5311 51.6284 50.2095 51.6284C48.5802 51.6284 46.9501 51.6284 45.3208 51.6284C44.356 51.6284 43.3904 51.6284 42.4256 51.6284C41.9884 51.6284 41.6602 51.6268 41.2484 51.8057C39.9784 52.3575 38.7667 53.129 37.5476 53.7791C35.5606 54.8388 33.5728 55.8986 31.5858 56.9575C30.3536 57.6148 29.1214 58.272 27.8891 58.9285C26.7316 59.5466 27.7653 61.2716 28.9253 60.6527Z" fill="black"/>
<path d="M65.8833 59.4915C62.9044 57.9031 59.9256 56.3147 56.9459 54.7263C55.3265 53.863 53.7062 52.9989 52.0868 52.1356C51.7963 51.9807 51.4739 51.7507 51.1491 51.6652C50.5813 51.5167 49.8602 51.6293 49.2851 51.6293C47.2817 51.6293 45.2792 51.6293 43.2758 51.6293C41.9558 51.6293 41.9541 53.6258 43.2758 53.6258C44.9756 53.6258 46.6755 53.6258 48.3753 53.6258C49.0325 53.6258 49.9406 53.7767 50.6092 53.6433C50.7102 53.6929 50.8217 53.736 50.8964 53.7759C54.3658 55.6255 57.8344 57.4751 61.303 59.3246C62.4852 59.9547 63.6666 60.5848 64.8488 61.2149C66.0063 61.833 67.0425 60.1097 65.8833 59.4915Z" fill="black"/>
<path d="M49.7324 62.4644C52.8072 62.1282 55.2979 61.895 57.6943 61.348C58.7739 61.1012 60.1793 60.6676 61.0103 60.4663C59.8347 58.8092 58.4499 57.3014 58.3883 56.9556C58.2103 55.9502 60.3474 56.3415 60.3474 56.3415C60.3474 56.3415 61.747 53.0097 59.5082 52.6009C59.3425 52.5705 59.1251 52.6017 58.8814 52.6695C59.0291 50.6227 58.3826 49.3282 57.024 49.2212C56.9371 49.214 56.8378 49.2331 56.7328 49.2643V49.107C56.7328 49.107 55.544 47.2917 53.6055 47.945C52.2912 48.3874 51.0795 50.2258 50.4338 51.3646L50.2853 51.2528C49.8891 49.0399 51.8129 48.1774 52.6522 47.5609C53.4914 46.9443 53.352 45.181 51.4897 44.8967C49.6274 44.6124 46.5657 46.0659 45.7305 47.5609C44.8954 49.0558 45.0266 53.9808 45.7305 55.729C46.1178 56.6897 47.9612 59.7029 49.7324 62.4644Z" fill="white"/>
<path d="M49.9492 52.2896C49.9492 52.2896 51.6688 48.5969 53.6074 47.9436C55.5459 47.2903 56.7347 49.1056 56.7347 49.1056" stroke="black" stroke-width="0.75" stroke-miterlimit="10" stroke-linecap="round" stroke-linejoin="round"/>
<path d="M52.6523 53.0096C52.6523 53.0096 55.8166 49.1252 57.0234 49.221C58.4583 49.3344 59.0547 50.24 58.8028 52.4897" stroke="black" stroke-width="0.75" stroke-miterlimit="10" stroke-linecap="round" stroke-linejoin="round"/>
<path d="M49.8238 62.5439C48.0813 59.8239 46.1107 56.667 45.7325 55.7278C45.0286 53.9797 44.8973 49.0547 45.7325 47.5597C46.5676 46.0647 49.6293 44.6121 51.4916 44.8956C53.3539 45.1791 53.4934 46.9432 52.6541 47.5597C51.8148 48.1762 49.891 49.0387 50.2873 51.2517" stroke="black" stroke-width="0.75" stroke-miterlimit="10" stroke-linecap="round" stroke-linejoin="round"/>
<path d="M55.0312 54.8276C55.0312 54.8276 58.3801 52.3942 59.5089 52.6003C61.7478 53.0092 60.3482 56.3409 60.3482 56.3409C60.3482 56.3409 58.2119 55.9504 58.3891 56.9551C58.4465 57.2793 59.778 58.8326 60.9126 60.3891" stroke="black" stroke-width="0.75" stroke-miterlimit="10" stroke-linecap="round" stroke-linejoin="round"/>
<path d="M32.2171 68.4608C35.6561 68.4608 39.096 68.4608 42.5351 68.4608C47.9948 68.4608 53.4545 68.4608 58.9142 68.4608C60.1678 68.4608 61.4213 68.4608 62.6757 68.4608C63.67 68.4608 63.6717 66.957 62.6757 66.957C59.2366 66.957 55.7967 66.957 52.3576 66.957C46.8979 66.957 41.4382 66.957 35.9785 66.957C34.725 66.957 33.4706 66.957 32.2171 66.957C31.2227 66.957 31.2211 68.4608 32.2171 68.4608Z" fill="black"/>
<path d="M77.8442 63.8574C77.16 62.8312 72.2852 61.3898 68.8363 60.4778C67.9158 60.235 67.1053 60.0066 66.4949 59.8301C66.353 60.1048 66.2037 60.3739 66.0527 60.6415L69.6124 66.5887L70.2835 74.9628L68.1152 103.542L82.3629 133.923L94.8452 128.794C94.8452 128.794 78.9181 65.469 77.8442 63.8574Z" fill="#59CC57"/>
<path d="M69.1191 105.786C71.1644 110.26 73.0825 114.318 75.4001 119.093" stroke="black" stroke-width="0.75" stroke-miterlimit="10" stroke-linecap="round" stroke-linejoin="round"/>
<path d="M25.2328 66.5895L29.2912 59.7535C29.0779 59.3382 28.8778 58.9134 28.685 58.4829C25.2459 59.7599 17.823 62.6245 17.001 63.8583C15.9271 65.4699 0 128.794 0 128.794L12.4823 133.924L26.7308 103.543L24.5625 74.9637L25.2328 66.5895Z" fill="#59CC57"/>
<path d="M25.809 106.077C23.6046 110.819 22.004 114.26 19.7988 119.002" stroke="black" stroke-width="0.75" stroke-miterlimit="10" stroke-linecap="round" stroke-linejoin="round"/>
<path d="M74.7704 67.8219L66.2515 60.2807C64.9602 62.6653 63.3415 64.7792 61.4661 66.5378C61.3783 66.6839 61.3045 66.8125 61.261 66.9075C60.8311 67.8539 51.6772 75.4222 40.6036 70.9796C35.7805 69.0446 33.2283 66.3038 31.8837 63.8265C30.7589 62.3842 29.7777 60.7878 28.9582 59.0708L22.3499 64.5772C22.3499 64.5772 20.3367 72.025 20.0889 75.7481C19.842 79.472 20.6304 86.6594 20.6304 86.6594C20.5885 94.0433 27.7858 111.177 27.7858 111.177C27.7858 111.177 64.5623 113.247 66.5033 110.856C68.4444 108.465 71.7432 98.4716 72.895 94.1359C74.0476 89.8003 74.5883 83.0106 74.6818 81.5092C74.7753 80.0086 74.7704 67.8219 74.7704 67.8219Z" fill="#59CC57"/>
<path d="M34.7697 109.157C33.7426 106.381 33.2889 103.439 32.8418 100.521" stroke="black" stroke-width="0.75" stroke-miterlimit="10" stroke-linecap="round" stroke-linejoin="round"/>
<path d="M36.0566 109.16C36.4135 107.347 36.6424 105.51 36.7409 103.666" stroke="black" stroke-width="0.75" stroke-miterlimit="10" stroke-linecap="round" stroke-linejoin="round"/>
<path d="M58.5352 109.09C59.582 106.779 60.3072 104.33 60.6862 101.832" stroke="black" stroke-width="0.75" stroke-miterlimit="10" stroke-linecap="round" stroke-linejoin="round"/>
<path d="M56.4421 108.973C56.0532 107.587 55.8645 106.148 55.8842 104.71" stroke="black" stroke-width="0.75" stroke-miterlimit="10" stroke-linecap="round" stroke-linejoin="round"/>
<path d="M27.393 109.431C22.7471 99.9002 20.2375 89.3898 20.0898 78.8418" stroke="black" stroke-width="0.75" stroke-miterlimit="10" stroke-linecap="round" stroke-linejoin="round"/>
<path d="M67.4668 109.431C72.1127 99.9002 74.6223 89.3898 74.7699 78.8418" stroke="black" stroke-width="0.75" stroke-miterlimit="10" stroke-linecap="round" stroke-linejoin="round"/>
<path d="M65.0119 62.5493C62.4933 67.2459 52.6182 74.716 42.8302 71.3172C42.8195 71.3132 42.8097 71.3092 42.799 71.3052C38.6913 70.2334 35.9364 68.2841 34.1324 66.4017C32.2685 64.7574 31.1675 63.2009 30.5801 62.1963C26.8153 68.9637 32.2233 80.1513 40.2656 79.0149C45.5268 78.2714 47.1914 75.7015 47.7066 73.911C48.2209 75.7015 49.8863 78.2714 55.1475 79.0149C63.052 80.1314 68.4067 69.3446 65.0119 62.5493Z" fill="white"/>
<path d="M30.5503 62.2495C26.8437 69.0217 32.246 80.1478 40.267 79.0146C45.5281 78.2711 47.1935 75.7012 47.7079 73.9107C48.2223 75.7012 49.8877 78.2711 55.1488 79.0146C63.1001 80.1383 68.4777 69.2141 64.9607 62.4268" stroke="black" stroke-width="0.75" stroke-miterlimit="10" stroke-linecap="round" stroke-linejoin="round"/>
<path d="M68.2822 111.81H54.9952H39.9098H26.6219C26.6219 111.81 7.99006 141.201 6.12695 175.962H39.9098H54.9952H88.778C86.9141 141.2 68.2822 111.81 68.2822 111.81Z" fill="#59CC57"/>
<path d="M33.7461 112.21C26.3052 124.614 22.0104 138.725 17.7148 154.273" stroke="black" stroke-width="0.75" stroke-miterlimit="10" stroke-linecap="round" stroke-linejoin="round"/>
<path d="M37.6785 113.072C34.3789 128.26 31.4821 145.167 30.6133 160.668" stroke="black" stroke-width="0.75" stroke-miterlimit="10" stroke-linecap="round" stroke-linejoin="round"/>
<path d="M46.8167 112.21C45.6279 124.725 44.7846 137.271 44.2891 149.83" stroke="black" stroke-width="0.75" stroke-miterlimit="10" stroke-linecap="round" stroke-linejoin="round"/>
<path d="M53.8027 111.524C57.6897 128.583 60.0722 145.966 60.9131 163.42" stroke="black" stroke-width="0.75" stroke-miterlimit="10" stroke-linecap="round" stroke-linejoin="round"/>
<path d="M61.6855 112.635C67.2987 125.014 71.7608 137.887 74.9997 151.047" stroke="black" stroke-width="0.75" stroke-miterlimit="10" stroke-linecap="round" stroke-linejoin="round"/>
<path d="M6.03711 175.831C33.6416 175.831 61.2469 175.831 88.8514 175.831" stroke="black" stroke-width="0.75" stroke-miterlimit="10" stroke-linecap="round" stroke-linejoin="round"/>
<path d="M67.1278 114.092H27.5948C26.2888 114.092 25.2305 113.062 25.2305 111.79V110.565C25.2305 109.294 26.2888 108.264 27.5948 108.264H67.1278C68.4331 108.264 69.4922 109.294 69.4922 110.565V111.79C69.4922 113.061 68.4339 114.092 67.1278 114.092Z" fill="black"/>
<path d="M66.4946 59.8319C62.693 67.1894 55.7935 72.108 47.912 72.108C39.4464 72.108 32.1121 66.4331 28.5352 58.1548" stroke="black" stroke-width="0.75" stroke-miterlimit="10" stroke-linecap="round" stroke-linejoin="round"/>
<path d="M62.0432 95.7722C60.6682 97.5307 61.2909 100.341 66.1082 103.373C70.9256 106.404 91.9374 114.726 91.9374 114.726L98.0994 102.457C98.0994 102.457 78.0695 89.0512 76.0916 89.813C74.1128 90.5749 77.9194 95.6987 77.9194 95.6987C77.9194 95.6987 69.9624 91.3743 67.8097 90.3816C65.657 89.389 65.1566 90.6004 65.2075 91.4094C65.2075 91.4094 63.008 91.0093 63.122 93.156C63.122 93.156 61.7323 93.9706 62.0432 95.7722Z" fill="white"/>
<path d="M65.203 91.4099C65.203 91.4099 63.0035 91.0098 63.1176 93.1572C63.2431 95.5243 70.3559 99.3552 70.3559 99.3552" stroke="black" stroke-width="0.75" stroke-miterlimit="10" stroke-linecap="round" stroke-linejoin="round"/>
<path d="M63.1195 93.1567C63.1195 93.1567 61.7305 93.9705 62.0415 95.7722C62.3901 97.795 68.5874 101.533 68.5874 101.533" stroke="black" stroke-width="0.75" stroke-miterlimit="10" stroke-linecap="round" stroke-linejoin="round"/>
<path d="M62.0413 95.7725C60.6663 97.5318 61.289 100.341 66.1063 103.373C70.9236 106.404 91.9355 114.727 91.9355 114.727L98.0974 102.458C98.0974 102.458 78.0676 89.0514 76.0896 89.8141C74.1108 90.5759 77.9166 95.6998 77.9166 95.6998C77.9166 95.6998 69.9597 91.3753 67.807 90.3827C65.6543 89.39 65.1538 90.6015 65.2047 91.4105C65.2761 92.5397 67.1187 94.3701 71.9442 96.9584" stroke="black" stroke-width="0.75" stroke-miterlimit="10" stroke-linecap="round" stroke-linejoin="round"/>
<path d="M146.389 92.2487C139.017 83.9728 122.475 71.0617 108.97 67.3945L111.577 85.6171L120.865 89.6956C120.865 89.6956 123.391 96.8447 123.107 102.374L94.1045 98.7949L85.2402 116.056C85.2402 116.056 102.913 133.579 130.932 131.842C158.951 130.105 155.712 102.714 146.389 92.2487Z" fill="white"/>
<path d="M97.2847 120.088C98.527 120.088 99.5342 119.108 99.5342 117.898C99.5342 116.689 98.527 115.708 97.2847 115.708C96.0423 115.708 95.0352 116.689 95.0352 117.898C95.0352 119.108 96.0423 120.088 97.2847 120.088Z" fill="#F6CB4E"/>
<path d="M125.376 125.571C125.376 126.78 124.369 127.76 123.126 127.76C121.884 127.76 120.877 126.78 120.877 125.571C120.877 124.362 121.884 123.381 123.126 123.381C124.369 123.381 125.376 124.362 125.376 125.571Z" fill="#F6CB4E"/>
<path d="M112.406 113.715C113.648 113.715 114.655 112.735 114.655 111.525C114.655 110.316 113.648 109.335 112.406 109.335C111.163 109.335 110.156 110.316 110.156 111.525C110.156 112.735 111.163 113.715 112.406 113.715Z" fill="#F6CB4E"/>
<path d="M140.571 114.727C140.571 115.936 139.564 116.917 138.322 116.917C137.08 116.917 136.072 115.936 136.072 114.727C136.072 113.518 137.08 112.537 138.322 112.537C139.564 112.537 140.571 113.518 140.571 114.727Z" fill="#F6CB4E"/>
<path d="M142.823 99.245C142.823 100.454 141.816 101.435 140.574 101.435C139.332 101.435 138.324 100.454 138.324 99.245C138.324 98.0359 139.332 97.0552 140.574 97.0552C141.816 97.0552 142.823 98.0359 142.823 99.245Z" fill="#F6CB4E"/>
<path d="M121.392 80.2108C121.392 81.4199 120.384 82.4006 119.142 82.4006C117.9 82.4006 116.893 81.4199 116.893 80.2108C116.893 79.0017 117.9 78.021 119.142 78.021C120.384 78.021 121.392 79.0017 121.392 80.2108Z" fill="#F6CB4E"/>
<path d="M109.691 77.758C110.933 77.758 111.94 76.7776 111.94 75.5682C111.94 74.3588 110.933 73.3784 109.691 73.3784C108.449 73.3784 107.441 74.3588 107.441 75.5682C107.441 76.7776 108.449 77.758 109.691 77.758Z" fill="#F6CB4E"/>
<path d="M125.354 106.414C125.354 107.623 124.347 108.604 123.105 108.604C121.863 108.604 120.855 107.623 120.855 106.414C120.855 105.205 121.863 104.224 123.105 104.224C124.347 104.224 125.354 105.205 125.354 106.414Z" fill="#F6CB4E"/>
<path d="M133.179 84.5905C134.421 84.5905 135.429 83.6098 135.429 82.4007C135.429 82.3104 135.412 82.2242 135.402 82.1371C134.597 81.4999 133.773 80.865 132.931 80.2349C131.808 80.3563 130.93 81.2738 130.93 82.3999C130.93 83.6098 131.937 84.5905 133.179 84.5905Z" fill="#F6CB4E"/>
<path d="M123.641 91.9468C122.886 91.9468 122.22 92.3125 121.812 92.8692C122.059 93.8027 122.315 94.8801 122.538 96.034C122.865 96.2153 123.238 96.3263 123.641 96.3263C124.883 96.3263 125.891 95.3456 125.891 94.1366C125.891 92.9275 124.883 91.9468 123.641 91.9468Z" fill="#F6CB4E"/>
<path d="M150.283 109.847C150.283 111.056 151.291 112.036 152.533 112.036C152.702 112.036 152.865 112.015 153.024 111.98C153.084 110.552 153.022 109.114 152.859 107.689C152.752 107.674 152.645 107.657 152.533 107.657C151.291 107.657 150.283 108.637 150.283 109.847Z" fill="#F6CB4E"/>
<path d="M105.179 103.127C106.421 103.127 107.429 102.147 107.429 100.938C107.429 100.763 107.402 100.594 107.362 100.43L103.2 99.917C103.034 100.223 102.93 100.567 102.93 100.938C102.93 102.147 103.937 103.127 105.179 103.127Z" fill="#F6CB4E"/>
<path d="M110.254 129.648C110.47 129.312 110.601 128.918 110.601 128.493C110.601 127.283 109.593 126.303 108.351 126.303C107.162 126.303 106.2 127.203 106.117 128.339C107.44 128.809 108.822 129.246 110.254 129.648Z" fill="#F6CB4E"/>
<path d="M140.574 127.328C139.332 127.328 138.324 128.309 138.324 129.518C138.324 129.884 138.425 130.223 138.588 130.527C140.099 130.074 141.469 129.518 142.714 128.876C142.43 127.982 141.585 127.328 140.574 127.328Z" fill="#F6CB4E"/>
<path d="M120.865 89.6943C120.865 89.6943 123.391 96.8434 123.107 102.373" stroke="black" stroke-width="0.75" stroke-miterlimit="10" stroke-linecap="round" stroke-linejoin="round"/>
<path d="M128.888 103.086L94.1046 98.7934L85.2402 116.054C85.2402 116.054 102.913 133.577 130.932 131.84C158.951 130.104 155.711 102.713 146.389 92.248C139.017 83.9721 122.475 71.0611 108.97 67.3931" stroke="black" stroke-width="0.75" stroke-miterlimit="10" stroke-linecap="round" stroke-linejoin="round"/>
<path d="M90.3734 120.19L100.746 99.6128L94.1045 98.7935L85.2402 116.055C85.2402 116.055 87.0344 117.829 90.3734 120.19Z" fill="white" stroke="black" stroke-width="0.75" stroke-miterlimit="10" stroke-linecap="round" stroke-linejoin="round"/>
<path d="M99.8064 65.4176H110.506C110.374 65.3976 110.242 65.3737 110.11 65.3553C110.22 64.9808 110.275 64.5839 110.265 64.1734L110.168 60.1404C110.115 57.9586 108.256 56.2312 106.015 56.2824L103.512 56.3391C101.271 56.3902 99.4963 58.1998 99.548 60.3816L99.6448 64.4145C99.6522 64.7627 99.7112 65.0974 99.8064 65.4176Z" fill="white" stroke="black" stroke-width="0.75" stroke-miterlimit="10" stroke-linecap="round" stroke-linejoin="round"/>
<path d="M88.5528 51.594C88.5397 53.3294 89.9869 54.7461 91.7835 54.7589C93.581 54.7717 95.0479 53.3749 95.061 51.6396C95.0733 49.9042 93.627 48.4875 91.8295 48.4747C90.0328 48.4627 88.5651 49.8587 88.5528 51.594Z" fill="white" stroke="black" stroke-width="0.75" stroke-miterlimit="10"/>
<path d="M93.6032 51.6294C93.6106 50.6695 92.8099 49.8861 91.8164 49.8789" stroke="black" stroke-width="0.5" stroke-miterlimit="10" stroke-linecap="round" stroke-linejoin="round"/>
<path d="M120.527 50.868C120.623 52.601 119.246 54.0816 117.452 54.1758C115.657 54.2701 114.124 52.9412 114.028 51.209C113.932 49.4761 115.31 47.9954 117.105 47.9012C118.9 47.807 120.432 49.135 120.527 50.868Z" fill="white" stroke="black" stroke-width="0.75" stroke-miterlimit="10"/>
<path d="M115.483 51.1323C115.43 50.174 116.192 49.3546 117.185 49.3027" stroke="black" stroke-width="0.5" stroke-miterlimit="10" stroke-linecap="round" stroke-linejoin="round"/>
<path d="M114.814 52.1622C114.878 56.8971 110.951 60.823 106.087 60.8861L103.214 60.9229C98.3492 60.9852 94.317 57.1622 94.2521 52.4273L94.1258 43.1379C94.061 38.4022 97.989 34.4771 102.853 34.414L105.725 34.3772C110.59 34.3141 114.622 38.1379 114.687 42.8728L114.814 52.1622Z" fill="white" stroke="black" stroke-width="0.75" stroke-miterlimit="10"/>
<path d="M107.545 53.3076C107.398 54.5814 106.309 55.582 104.959 55.5996C103.608 55.6172 102.492 54.6445 102.311 53.3755L107.545 53.3076Z" stroke="black" stroke-width="0.5" stroke-miterlimit="10" stroke-linecap="round" stroke-linejoin="round"/>
<path d="M98.9951 47.5168C98.9828 48.1573 98.4397 48.666 97.7817 48.654C97.1238 48.642 96.6012 48.1133 96.6135 47.4729C96.6258 46.8324 97.1689 46.3237 97.8269 46.3357C98.484 46.3476 99.0074 46.8763 98.9951 47.5168Z" fill="black"/>
<path d="M111.599 47.2307C111.586 47.8711 111.043 48.3799 110.385 48.3679C109.727 48.3559 109.205 47.8272 109.217 47.1867C109.229 46.5463 109.772 46.0375 110.43 46.0495C111.088 46.0615 111.612 46.5902 111.599 47.2307Z" fill="black"/>
<path d="M109.158 44.7122C109.158 44.7122 110.837 44.3081 112.132 45.1842" stroke="black" stroke-width="0.75" stroke-miterlimit="10" stroke-linecap="round" stroke-linejoin="round"/>
<path d="M98.9203 44.9453C98.9203 44.9453 97.2246 44.6179 95.9727 45.5514" stroke="black" stroke-width="0.75" stroke-miterlimit="10" stroke-linecap="round" stroke-linejoin="round"/>
<path d="M105.577 50.1543L103.416 50.2014L104.34 45.6055" stroke="black" stroke-width="0.75" stroke-miterlimit="10" stroke-linecap="round" stroke-linejoin="round"/>
<path d="M91.2894 46.5006C91.2894 46.5006 105.935 46.2426 108.367 37.8493C108.367 37.8493 110.587 43.4779 115.569 45.9488C115.569 45.9488 116.932 40.8513 114.899 37.2312C112.865 33.6111 110.632 32.513 104.847 32.7622C99.0626 33.0114 88.962 36.3479 91.2894 46.5006Z" fill="black"/>
<path d="M99.5488 46.0492C99.5488 46.0492 107.279 45.2394 108.366 37.8491" stroke="black" stroke-width="0.75" stroke-miterlimit="10" stroke-linecap="round" stroke-linejoin="round"/>
<path d="M106.436 29.3636C109.813 29.3636 112.551 26.6985 112.551 23.4108C112.551 20.1232 109.813 17.458 106.436 17.458C103.058 17.458 100.32 20.1232 100.32 23.4108C100.32 26.6985 103.058 29.3636 106.436 29.3636Z" fill="black"/>
<path d="M111.945 71.0704H98.3001C97.159 71.0704 96.2344 70.1703 96.2344 69.0595V65.7277C96.2344 64.6176 97.159 63.7168 98.3001 63.7168H111.945C113.086 63.7168 114.011 64.6168 114.011 65.7277V69.0595C114.011 70.1703 113.086 71.0704 111.945 71.0704Z" fill="white" stroke="black" stroke-width="0.75" stroke-miterlimit="10" stroke-linecap="round" stroke-linejoin="round"/>
<path d="M161.057 94.1323C140.281 94.1323 123.438 110.528 123.438 130.752C123.438 150.977 140.28 167.373 161.057 167.373C181.834 167.373 198.676 150.978 198.676 130.752C198.676 110.527 181.834 94.1323 161.057 94.1323ZM161.057 162.729C142.916 162.729 128.21 148.413 128.21 130.753C128.21 113.094 142.916 98.7778 161.057 98.7778C179.199 98.7778 193.905 113.094 193.905 130.753C193.905 148.413 179.199 162.729 161.057 162.729Z" fill="white" stroke="black" stroke-width="0.75" stroke-miterlimit="10"/>
<path d="M173.058 141.506H148.999C147.442 141.506 146.18 140.276 146.18 138.761V130.367C146.18 128.852 147.442 127.623 148.999 127.623H173.058C174.615 127.623 175.878 128.852 175.878 130.367V138.761C175.878 140.277 174.616 141.506 173.058 141.506Z" fill="#F089D5"/>
<path d="M148.327 132.214H148.182C147.833 132.214 147.549 131.938 147.549 131.598V129.642C147.549 129.301 147.833 129.025 148.182 129.025H148.327C148.677 129.025 148.961 129.302 148.961 129.642V131.598C148.961 131.938 148.678 132.214 148.327 132.214Z" fill="white"/>
<path d="M167.699 143.155H154.369C153.526 143.155 152.844 142.491 152.844 141.671C152.844 140.85 153.526 140.186 154.369 140.186H167.699C168.542 140.186 169.224 140.85 169.224 141.671C169.224 142.49 168.541 143.155 167.699 143.155Z" fill="black"/>
<path d="M158.244 141.505H155.27V136.279C155.27 135.582 155.85 135.017 156.567 135.017H156.947C157.663 135.017 158.244 135.582 158.244 136.279V141.505Z" fill="black"/>
<path d="M166.791 141.505H163.816V136.279C163.816 135.582 164.397 135.017 165.113 135.017H165.494C166.21 135.017 166.791 135.582 166.791 136.279V141.505Z" fill="black"/>
<path d="M160.97 160.054C160.178 160.054 159.535 159.429 159.535 158.657V141.67H162.404V158.657C162.405 159.429 161.763 160.054 160.97 160.054Z" fill="black"/>
<path d="M163.072 225.071H158.989C157.894 225.071 157.006 224.207 157.006 223.141V223.116C157.006 222.05 157.894 221.186 158.989 221.186H163.072C164.167 221.186 165.055 222.05 165.055 223.116V223.141C165.055 224.206 164.167 225.071 163.072 225.071Z" fill="black"/>
<path d="M161.729 154.403H160.342V223.802H161.729V154.403Z" fill="black"/>
<path d="M160.924 321V223.802" stroke="black" stroke-width="2.5" stroke-miterlimit="10" stroke-linecap="round" stroke-linejoin="round"/>
<path d="M136.123 319.313L161.033 223.127" stroke="black" stroke-width="2.5" stroke-miterlimit="10" stroke-linecap="round" stroke-linejoin="round"/>
<path d="M185.999 319.313L161.09 223.127" stroke="black" stroke-width="2.5" stroke-miterlimit="10" stroke-linecap="round" stroke-linejoin="round"/>
<path d="M196.288 172.594H180.238C178.188 172.594 176.525 174.212 176.525 176.208V182.587V184.817V191.805L180.3 188.431H196.287C198.338 188.431 200 186.813 200 184.816V176.207C200.001 174.212 198.339 172.594 196.288 172.594Z" fill="white" stroke="black" stroke-width="0.75" stroke-miterlimit="10" stroke-linecap="round" stroke-linejoin="round"/>
<path d="M188.408 185.748C188.408 185.748 196.2 179.884 193.938 177.26C191.69 174.652 188.705 179.415 188.705 179.415C188.705 179.415 186.403 174.627 184.229 176.329C180.481 179.268 188.408 185.748 188.408 185.748Z" fill="black"/>
<path d="M160.712 1H139.88C137.218 1 135.061 3.10033 135.061 5.69101V13.9701V16.8659V25.9364L139.96 21.5577H160.712C163.373 21.5577 165.531 19.4574 165.531 16.8667V5.69101C165.531 3.10033 163.373 1 160.712 1Z" fill="white" stroke="black" stroke-width="0.75" stroke-miterlimit="10" stroke-linecap="round" stroke-linejoin="round"/>
<path d="M150.486 18.0752C150.486 18.0752 160.6 10.4628 157.664 7.0576C154.746 3.67231 150.873 9.85591 150.873 9.85591C150.873 9.85591 147.884 3.64036 145.063 5.8509C140.196 9.66344 150.486 18.0752 150.486 18.0752Z" fill="black"/>
<path d="M29.4285 211.986H49.1712C51.6939 211.986 53.7383 213.976 53.7383 216.432V224.278V227.022V235.618L49.0948 231.468H29.4285C26.9058 231.468 24.8613 229.478 24.8613 227.022V216.432C24.8613 213.977 26.9058 211.986 29.4285 211.986Z" fill="white" stroke="black" stroke-width="0.75" stroke-miterlimit="10" stroke-linecap="round" stroke-linejoin="round"/>
<path d="M39.1225 228.168C39.1225 228.168 29.537 220.954 32.319 217.726C35.0845 214.518 38.7549 220.379 38.7549 220.379C38.7549 220.379 41.5869 214.488 44.2614 216.583C48.8736 220.196 39.1225 228.168 39.1225 228.168Z" fill="black"/>
</svg>
