<svg width="302" height="323" viewBox="0 0 302 323" fill="none" xmlns="http://www.w3.org/2000/svg">
<path d="M114.304 212.159H159.566V221.53H114.304V212.159Z" fill="#5A87FE"/>
<path d="M115.744 228.418H118.332C121.256 228.418 123.627 226.067 123.627 223.167V210.522C123.627 207.622 121.256 205.27 118.332 205.27H115.744C112.82 205.27 110.449 207.622 110.449 210.522V223.167C110.449 226.068 112.82 228.418 115.744 228.418Z" fill="#5A87FE"/>
<path d="M160.641 228.418H163.228C166.153 228.418 168.523 226.067 168.523 223.166V210.522C168.523 207.621 166.153 205.27 163.228 205.27H160.641C157.717 205.27 155.346 207.621 155.346 210.522V223.166C155.346 226.068 157.716 228.418 160.641 228.418Z" fill="#5A87FE"/>
<path d="M134.434 221.358L137.917 218.627C139.245 218.451 140.884 218.566 141.147 220.27L141.186 220.213C141.845 219.884 143.229 219.675 143.229 219.675C143.229 219.675 145.488 219.166 145.586 221.797C145.586 221.797 147.257 220.335 148.731 221.797C150.205 223.258 149.124 225.987 146.668 227.741C144.211 229.495 141.698 229.501 141.187 227.89L141.188 227.888C139.316 228.648 136.958 228.333 137.038 226.486L137.168 226.292C136.3 226.551 135.422 226.556 134.68 226.28C133.158 225.713 132.208 223.123 131.726 221.36L134.434 221.358Z" fill="white"/>
<path d="M131.727 221.359C132.209 223.122 133.158 225.713 134.682 226.279C137.04 227.156 140.774 225.207 141.167 221.211C141.423 218.604 139.458 218.421 137.92 218.626" stroke="black" stroke-width="0.75" stroke-miterlimit="10" stroke-linecap="round" stroke-linejoin="round"/>
<path d="M137.039 226.487C136.941 228.741 140.479 228.716 142.325 227.234C144.173 225.753 145.686 224.428 145.587 221.797C145.489 219.165 143.229 219.675 143.229 219.675C143.229 219.675 141.846 219.884 141.186 220.213" stroke="black" stroke-width="0.75" stroke-miterlimit="10" stroke-linecap="round" stroke-linejoin="round"/>
<path d="M145.586 221.797C145.586 221.797 147.257 220.335 148.731 221.797C150.205 223.259 149.124 225.988 146.668 227.742C144.211 229.495 141.698 229.501 141.187 227.891" stroke="black" stroke-width="0.75" stroke-miterlimit="10" stroke-linecap="round" stroke-linejoin="round"/>
<path d="M137.631 216.437C137.631 216.437 138.81 222.966 137.14 224.232C135.47 225.499 134.093 223.648 133.504 221.211C132.915 218.774 132.423 215.105 133.504 214.747C134.585 214.389 137.631 216.437 137.631 216.437Z" fill="white" stroke="black" stroke-width="0.75" stroke-miterlimit="10" stroke-linecap="round" stroke-linejoin="round"/>
<path d="M130.537 177.358L124.273 159.387L161.453 155.576L162.066 175.579L130.537 177.358Z" fill="white" stroke="black" stroke-width="0.75" stroke-miterlimit="10" stroke-linecap="round" stroke-linejoin="round"/>
<path d="M255.582 254.285L229.975 253.951L229.913 278.697L256.596 276.491L255.582 254.285Z" fill="white" stroke="black" stroke-width="0.75" stroke-miterlimit="10" stroke-linecap="round" stroke-linejoin="round"/>
<path d="M253.348 250.544L252.658 282.846L260.855 283.503L281.564 306.826L283.727 249.958L253.348 250.544Z" fill="white"/>
<path d="M265.967 297.069L275.318 293.111" stroke="black" stroke-width="0.75" stroke-miterlimit="10" stroke-linecap="round" stroke-linejoin="round"/>
<path d="M262.684 290.833L272.035 286.875" stroke="black" stroke-width="0.75" stroke-miterlimit="10" stroke-linecap="round" stroke-linejoin="round"/>
<path d="M261.381 286.141C261.381 286.141 253.991 303.297 249.099 300.367C241.233 295.653 261.381 286.141 261.381 286.141Z" stroke="black" stroke-width="0.75" stroke-miterlimit="10" stroke-linecap="round" stroke-linejoin="round"/>
<path d="M244.509 289.707L261.697 285.681" stroke="black" stroke-width="0.75" stroke-miterlimit="10" stroke-linecap="round" stroke-linejoin="round"/>
<path d="M271.62 259.823C268.481 257.509 266.887 253.891 267.026 250.28L265.236 250.315C265.109 254.458 266.948 258.597 270.55 261.251C274.332 264.038 279.13 264.502 283.229 262.924L283.303 260.971C279.615 262.689 275.113 262.397 271.62 259.823Z" fill="black"/>
<path d="M253.348 250.544L252.658 282.846L260.855 283.503L281.564 306.826L283.727 249.958L253.348 250.544Z" stroke="black" stroke-width="0.75" stroke-miterlimit="10" stroke-linecap="round" stroke-linejoin="round"/>
<path d="M179.001 213.415L192.144 253.81C195.945 253.192 202.075 251.553 210.206 252.493C219.05 253.516 232.904 253.699 232.904 253.699V278.695C232.904 278.695 173.746 283.556 168.128 277.755C159.794 269.148 145.979 240.409 143.062 220.334C140.145 200.258 179.001 213.415 179.001 213.415Z" fill="black"/>
<path d="M179.002 213.414L193.33 257.05" stroke="white" stroke-width="0.75" stroke-miterlimit="10" stroke-linecap="round" stroke-linejoin="round"/>
<path d="M117.15 277.75L115.608 252.397L90.7179 254.151L94.8943 280.381L117.15 277.75Z" fill="white" stroke="black" stroke-width="0.75" stroke-miterlimit="10" stroke-linecap="round" stroke-linejoin="round"/>
<path d="M121.251 276.734L88.6764 277.146L88.2914 285.293L65.492 306.612L122.873 306.826L121.251 276.734Z" fill="white"/>
<path d="M74.7949 290.826L79.1016 299.96" stroke="black" stroke-width="0.75" stroke-miterlimit="10" stroke-linecap="round" stroke-linejoin="round"/>
<path d="M80.9687 287.358L85.2754 296.493" stroke="black" stroke-width="0.75" stroke-miterlimit="10" stroke-linecap="round" stroke-linejoin="round"/>
<path d="M85.6484 285.906C85.6484 285.906 68.109 279.162 70.8959 274.215C75.38 266.257 85.6484 285.906 85.6484 285.906Z" stroke="black" stroke-width="0.75" stroke-miterlimit="10" stroke-linecap="round" stroke-linejoin="round"/>
<path d="M81.4855 269.305L86.125 286.208" stroke="black" stroke-width="0.75" stroke-miterlimit="10" stroke-linecap="round" stroke-linejoin="round"/>
<path d="M112.52 295.166C114.745 291.976 118.336 290.273 121.98 290.289L121.885 288.515C117.706 288.53 113.598 290.494 111.045 294.153C108.366 297.996 108.06 302.769 109.789 306.777L111.76 306.784C109.903 303.187 110.044 298.715 112.52 295.166Z" fill="black"/>
<path d="M121.251 276.734L88.6764 277.147L88.2914 285.294L65.492 306.612L122.873 306.826L121.251 276.734Z" stroke="black" stroke-width="0.75" stroke-miterlimit="10" stroke-linecap="round" stroke-linejoin="round"/>
<path d="M81.5762 197.335C84.9986 184.94 105.672 181.822 130.985 183.997L130.989 183.994L128.938 173.556L173.74 169.268L174.774 175.578C174.774 175.578 188.696 189.641 187.952 202.503C187.207 215.364 181.939 223.555 163.148 224.376C148.772 225.003 125.987 218.872 111.449 213.548L111.171 213.708C111.171 213.708 118.076 236.317 116.137 256.587L91.205 257.562C91.205 257.562 77.057 213.709 81.5762 197.335Z" fill="black"/>
<path d="M99.0683 208.055C101.103 209.384 105.296 211.265 110.726 213.281C110.726 213.281 130.772 219.972 138.921 221.541C147.07 223.109 175.841 229.142 184.768 214.798" stroke="white" stroke-width="0.75" stroke-miterlimit="10" stroke-linecap="round" stroke-linejoin="round"/>
<path d="M130.989 183.993C139.11 184.691 147.709 185.934 156.369 187.59" stroke="white" stroke-width="0.75" stroke-miterlimit="10" stroke-linecap="round" stroke-linejoin="round"/>
<path d="M158.135 52.8493C158.135 52.8493 151.217 53.4757 152.076 48.582C153.07 42.9198 158.448 45.5585 158.448 45.5585C158.448 45.5585 156.714 40.6868 160.908 38.9071C165.102 37.1274 168.131 40.124 167.331 44.4718C167.331 44.4718 169.084 40.9791 173.225 42.6733C177.368 44.3674 174.799 49.7632 174.799 49.7632C174.799 49.7632 179.75 47.1931 180.852 50.9364C182.055 55.0197 178.638 55.7694 176.965 55.7435C176.965 55.7435 180.661 56.6553 179.189 60.9156C177.717 65.1759 173.913 63.7899 170.24 63.5831C166.569 63.3753 158.135 52.8493 158.135 52.8493Z" fill="black"/>
<path d="M140.291 62.5772L146.914 62.8487C151.318 63.0296 154.75 67.2452 154.544 72.2174L154.12 82.4004C154.108 82.6877 154.081 82.9701 154.046 83.2495C154.105 83.5527 154.134 83.8659 154.12 84.1871L153.861 90.3861L153.847 90.7311L153.589 96.9302C153.494 99.1792 151.563 100.944 149.295 100.851L146.667 100.743C144.4 100.651 142.62 98.7338 142.715 96.4838L142.943 90.9986L139.114 90.8415C134.71 90.6605 131.277 86.445 131.484 81.4728L131.908 71.2898C132.114 66.3176 135.887 62.3973 140.291 62.5772Z" fill="white" stroke="black" stroke-width="0.75" stroke-miterlimit="10" stroke-linecap="round" stroke-linejoin="round"/>
<path d="M173.985 65.5796C172.168 68.8596 166.289 66.6574 160.961 62.927C155.634 59.1976 152.67 54.2721 154.339 51.9277C156.008 49.5823 161.612 47.2856 168.562 52.3512C174.343 56.5638 175.375 63.0682 173.985 65.5796Z" fill="#F089D5"/>
<path d="M130.613 54.2157C130.17 52.0135 130.127 48.6678 133.524 47.601C136.439 46.6853 138.738 48.2632 140.199 49.8321C140.558 48.5416 141.519 46.9478 144.028 46.2379C147.957 45.1254 152.364 46.398 153.954 50.5062C155.499 49.1371 157.923 48.6231 160.304 49.3648C163.666 50.4127 165.664 53.5635 164.788 56.4189C167.239 55.5579 170.325 56.8067 172.104 59.5428C173.828 62.1965 173.758 65.381 172.108 67.2661C173.79 68.5507 176.142 71.1496 174.22 74.7527C171.408 80.0262 168.024 78.1063 168.024 78.1063C168.024 78.1063 171.397 80.4318 169.222 84.7061C166.563 89.9268 160.266 86.8129 160.266 86.8129C160.266 86.8129 160.164 89.9189 157.237 90.4796C154.31 91.0404 153.685 89.7717 153.685 89.7717L154.122 82.4004L153.519 78.5965C153.519 78.5965 145.513 73.4304 143.862 67.6897C143.862 67.6897 129.401 73.6382 126.799 65.5262C124.875 59.5369 127.018 56.1644 130.613 54.2157Z" fill="black"/>
<path d="M136.232 82.1923C136.232 82.1923 136.891 84.3916 138.471 84.6053C140.051 84.8191 141.367 83.1269 141.51 81.7698L136.232 82.1923Z" stroke="black" stroke-width="0.5" stroke-miterlimit="10" stroke-linecap="round" stroke-linejoin="round"/>
<path d="M139.096 79.626L136.73 78.0591L139 74.5713" stroke="black" stroke-width="0.5" stroke-miterlimit="10" stroke-linecap="round" stroke-linejoin="round"/>
<path d="M146.049 74.3409C146.029 74.325 146.01 74.3101 145.99 74.2952C146.042 74.335 146.046 74.3379 146.002 74.3051C145.962 74.2753 145.922 74.2455 145.881 74.2166C145.8 74.158 145.716 74.1023 145.632 74.0476C145.47 73.9412 145.302 73.8428 145.132 73.7504C144.961 73.6579 144.786 73.5724 144.609 73.4938C144.586 73.4839 144.562 73.474 144.539 73.464C144.602 73.4899 144.607 73.4918 144.555 73.471C144.509 73.4521 144.462 73.4332 144.416 73.4153C144.323 73.3795 144.228 73.3457 144.133 73.3129C143.886 73.2284 143.696 72.9679 143.784 72.7014C143.863 72.4578 144.134 72.264 144.4 72.3544C145.261 72.6467 146.046 73.0802 146.759 73.639C146.853 73.7126 146.906 73.8776 146.906 73.991C146.906 74.1133 146.851 74.2584 146.759 74.3429C146.664 74.4304 146.538 74.494 146.405 74.4881C146.263 74.4811 146.159 74.4274 146.049 74.3409Z" fill="black"/>
<path d="M134.959 72.6877C134.663 72.6648 134.367 72.6728 134.072 72.7106C134.116 72.7046 134.161 72.6987 134.205 72.6927C133.901 72.7354 133.602 72.81 133.313 72.9164C133.068 73.0079 132.753 72.815 132.697 72.5694C132.631 72.2871 132.783 72.0554 133.046 71.958C133.651 71.7342 134.316 71.6418 134.959 71.6925C135.22 71.7134 135.473 71.9063 135.46 72.1896C135.449 72.4421 135.239 72.7096 134.959 72.6877Z" fill="black"/>
<path d="M142.404 76.6078C142.404 77.4459 142.95 78.125 143.625 78.125C144.299 78.125 144.846 77.4459 144.846 76.6078C144.846 75.7696 144.299 75.0906 143.625 75.0906C142.95 75.0906 142.404 75.7696 142.404 76.6078Z" fill="black"/>
<path d="M133.839 77.3591C133.22 77.3591 132.717 76.7351 132.717 75.9652C132.717 75.1954 133.22 74.5713 133.839 74.5713C134.459 74.5713 134.961 75.1954 134.961 75.9652C134.961 76.7351 134.459 77.3591 133.839 77.3591Z" fill="black"/>
<path d="M162.593 79.6153C162.474 82.4797 160.016 84.7058 157.104 84.5865C154.191 84.4672 151.927 82.0482 152.047 79.1828C152.166 76.3184 154.624 74.0923 157.537 74.2116C160.448 74.3309 162.712 76.7509 162.593 79.6153Z" fill="white"/>
<path d="M154.438 79.9677C154.438 79.9677 154.352 76.4351 157.984 76.976" stroke="black" stroke-width="0.75" stroke-miterlimit="10" stroke-linecap="round" stroke-linejoin="round"/>
<path d="M152.047 79.1828C152.108 77.7272 152.771 76.4367 153.793 75.5349" stroke="black" stroke-width="0.75" stroke-miterlimit="10" stroke-linecap="round" stroke-linejoin="round"/>
<path d="M153.791 75.5349C154.78 74.662 156.102 74.1529 157.535 74.2116C160.447 74.3309 162.711 76.7499 162.591 79.6153C162.472 82.4797 160.014 84.7058 157.102 84.5865C156.202 84.5497 155.365 84.2932 154.641 83.8736C154.373 83.7175 153.69 83.2254 153.48 83.0017" stroke="black" stroke-width="0.75" stroke-miterlimit="10" stroke-linecap="round" stroke-linejoin="round"/>
<path d="M141.826 102.805H154.083C156.24 102.805 157.988 101.071 157.988 98.9314C157.988 96.7918 156.24 95.0579 154.083 95.0579H141.826C139.669 95.0579 137.921 96.7918 137.921 98.9314C137.921 101.071 139.669 102.805 141.826 102.805Z" fill="#F089D5" stroke="#0F110E" stroke-width="0.75" stroke-miterlimit="10"/>
<path d="M154.998 215.188C154.998 215.188 152.984 224.351 150.771 226.621C148.557 228.891 147.625 229.563 147.116 232.926C146.608 236.288 146.881 241.753 150.771 242.005C154.66 242.258 156.779 232.906 157.796 230.815C158.814 228.723 161.441 216.784 161.441 216.784L154.998 215.188Z" fill="white" stroke="black" stroke-width="0.75" stroke-miterlimit="10" stroke-linecap="round" stroke-linejoin="round"/>
<path d="M133.726 231.264H178.988V240.635H133.726V231.264Z" fill="#5A87FE"/>
<path d="M135.162 247.524H137.75C140.674 247.524 143.045 245.172 143.045 242.272V229.628C143.045 226.727 140.674 224.376 137.75 224.376H135.162C132.238 224.376 129.867 226.727 129.867 229.628V242.272C129.867 245.172 132.238 247.524 135.162 247.524Z" fill="#5A87FE"/>
<path d="M180.059 247.524H182.646C185.571 247.524 187.941 245.172 187.941 242.272V229.628C187.941 226.727 185.571 224.376 182.646 224.376H180.059C177.135 224.376 174.764 226.727 174.764 229.628V242.272C174.764 245.172 177.135 247.524 180.059 247.524Z" fill="#5A87FE"/>
<path d="M151.155 236.793C152.397 233.598 151.693 229.647 151.693 229.647L155.677 216.113L173.73 218.214C173.73 218.214 172.713 237.297 169.323 242.341C165.932 247.384 164.087 244.906 164.087 244.906L164.08 244.9C161.648 247.079 159.92 245.782 159.92 245.782C159.705 245.974 159.479 246.15 159.236 246.292C156.97 247.615 154.562 246.181 154.61 243.925V243.922C153.749 244.623 152.808 245.047 151.89 244.863C149.376 244.359 149.149 240.912 149.149 240.912C149.149 240.912 149.912 239.987 151.155 236.793Z" fill="white"/>
<path d="M151.695 229.647C151.695 229.647 152.398 233.598 151.156 236.793C149.914 239.987 149.151 240.912 149.151 240.912C149.151 240.912 149.379 244.359 151.893 244.863C154.407 245.367 157.119 241.333 157.797 239.399" stroke="black" stroke-width="0.75" stroke-miterlimit="10" stroke-linecap="round" stroke-linejoin="round"/>
<path d="M162.629 240.827C162.629 240.827 161.611 244.906 159.239 246.292C156.973 247.615 154.564 246.181 154.613 243.925" stroke="black" stroke-width="0.75" stroke-miterlimit="10" stroke-linecap="round" stroke-linejoin="round"/>
<path d="M159.923 245.782C159.923 245.782 162.798 247.973 166.357 242.005" stroke="black" stroke-width="0.75" stroke-miterlimit="10" stroke-linecap="round" stroke-linejoin="round"/>
<path d="M164.088 244.906C164.088 244.906 165.932 247.384 169.323 242.341C172.713 237.297 173.73 218.214 173.73 218.214L155.677 216.113" stroke="black" stroke-width="0.75" stroke-miterlimit="10" stroke-linecap="round" stroke-linejoin="round"/>
<path d="M152.924 98.9869C174.941 103.684 182.487 137.305 183.371 164.114C184.255 190.922 174.542 220.336 174.542 220.336L153.078 218.508C153.078 218.508 155.124 192.467 153.284 163.902L152.924 164.114L115.795 162.741C114.911 146.661 122.23 92.4389 152.924 98.9869Z" fill="#F089D5"/>
<path d="M145.968 117.622C138.335 117.431 130.586 117.921 123.319 120.35C123.468 119.985 123.62 119.622 123.774 119.262C129.063 117.595 134.655 116.873 140.203 116.713C144.135 116.6 148.063 116.859 151.995 116.823C155.617 116.79 159.323 116.492 162.714 115.134C165.305 114.096 167.478 112.401 169.197 110.286C169.383 110.54 169.57 110.793 169.752 111.053C168.914 112.063 167.964 112.998 166.865 113.827C160.941 118.292 152.994 117.798 145.968 117.622Z" fill="white"/>
<path d="M118.262 137.358C121.792 137.295 125.312 138.019 128.575 139.385C137.163 142.981 143.112 150.596 146.177 159.154C146.733 160.708 147.202 162.303 147.58 163.916L146.65 163.881C146.374 162.75 146.053 161.63 145.693 160.528C144.32 156.326 142.283 152.294 139.505 148.829C134.37 142.424 126.432 138.012 118.08 138.245C118.139 137.95 118.2 137.654 118.262 137.358Z" fill="white"/>
<path d="M116.214 150.786C117.647 150.61 119.117 150.687 120.555 151.054C124.063 151.952 126.879 154.311 128.442 157.534C129.339 159.384 129.928 161.369 130.904 163.182C130.926 163.224 130.955 163.261 130.979 163.302L129.947 163.265C129.548 162.484 129.2 161.674 128.87 160.853C128.173 159.116 127.511 157.319 126.359 155.816C125.344 154.49 123.986 153.441 122.483 152.71C120.514 151.752 118.277 151.392 116.128 151.687C116.155 151.39 116.184 151.088 116.214 150.786Z" fill="white"/>
<path d="M162.257 135.759C160.282 132.041 160.61 126.894 163.867 123.969C165.65 122.366 167.976 121.631 170.098 120.598C171.197 120.064 172.265 119.439 173.119 118.558C173.335 118.337 173.529 118.099 173.713 117.853C173.853 118.14 173.999 118.42 174.136 118.712C173.682 119.265 173.167 119.775 172.549 120.219C170.687 121.551 168.445 122.196 166.447 123.281C164.487 124.345 163.007 125.892 162.342 128.037C161.722 130.034 161.819 132.22 162.535 134.18C164.139 138.568 168.893 140.808 173.384 140.739C174.698 140.719 175.993 140.504 177.247 140.115C178.355 139.77 179.428 139.32 180.522 138.931C180.582 139.227 180.641 139.523 180.699 139.819C179.692 140.18 178.702 140.59 177.683 140.918C176.504 141.298 175.286 141.534 174.048 141.611C169.477 141.894 164.47 139.927 162.257 135.759Z" fill="white"/>
<path d="M171.983 192.127C174.105 195.504 176.737 198.524 179.465 201.432C179.389 201.79 179.313 202.151 179.237 202.503C176.518 199.625 173.882 196.649 171.697 193.346C169.141 189.482 167.359 185.196 166.705 180.605C166.02 175.808 166.436 170.9 167.659 166.221C168.831 161.735 170.65 157.123 173.916 153.716C176.167 151.367 179.043 149.687 182.131 148.653C182.17 148.955 182.203 149.255 182.24 149.555C179.909 150.356 177.713 151.539 175.846 153.131C172.285 156.172 170.297 160.524 168.969 164.906C167.581 169.488 166.965 174.324 167.428 179.097C167.878 183.765 169.488 188.16 171.983 192.127Z" fill="white"/>
<path d="M154.027 193.632C154.243 193.793 154.464 193.95 154.677 194.115C158.371 196.97 161.412 200.497 163.448 204.696C165.478 208.884 166.533 213.541 166.451 218.189C166.443 218.667 166.419 219.153 166.387 219.641L165.485 219.564C165.492 219.453 165.502 219.34 165.508 219.229C165.759 214.634 164.874 209.973 162.963 205.778C161.055 201.591 158.166 198.044 154.569 195.167C154.387 195.021 154.199 194.883 154.015 194.741C154.018 194.371 154.023 194.006 154.027 193.632Z" fill="white"/>
<path d="M174.541 220.336L153.077 218.508C153.077 218.508 156.84 170.634 149.576 133.504" stroke="black" stroke-width="0.75" stroke-miterlimit="10" stroke-linecap="round" stroke-linejoin="round"/>
<path d="M152.926 164.113L115.797 162.74" stroke="black" stroke-width="0.75" stroke-miterlimit="10" stroke-linecap="round" stroke-linejoin="round"/>
<path d="M301 307.301H0.999994" stroke="black" stroke-miterlimit="10" stroke-linecap="round" stroke-linejoin="round"/>
<path d="M53.6824 66.2615C72.9812 66.2615 88.627 81.7776 88.627 100.919C88.627 120.06 72.9822 135.576 53.6824 135.576C34.3836 135.576 18.7379 120.06 18.7379 100.919C18.7379 81.7776 34.3826 66.2615 53.6824 66.2615ZM53.6824 131.179C70.5331 131.179 84.194 117.631 84.194 100.919C84.194 84.2065 70.5331 70.658 53.6824 70.658C36.8317 70.658 23.1708 84.2065 23.1708 100.919C23.1708 117.631 36.8307 131.179 53.6824 131.179Z" fill="white" stroke="black" stroke-width="0.75" stroke-miterlimit="10"/>
<path d="M38.0201 115.212H69.4098C71.4418 115.212 73.0879 113.578 73.0879 111.564V100.406C73.0879 98.3911 71.4408 96.7585 69.4098 96.7585H38.0201C35.988 96.7585 34.3419 98.3921 34.3419 100.406V111.564C34.3409 113.578 35.988 115.212 38.0201 115.212Z" fill="#5A87FE"/>
<path d="M70.2843 102.861H70.4737C70.9299 102.861 71.3008 102.494 71.3008 102.042V99.4418C71.3008 98.9894 70.9309 98.6216 70.4737 98.6216H70.2843C69.8281 98.6216 69.4582 98.9885 69.4582 99.4418V102.042C69.4582 102.494 69.8281 102.861 70.2843 102.861Z" fill="white"/>
<path d="M45.0242 117.403H62.4163C63.515 117.403 64.4062 116.52 64.4062 115.43C64.4062 114.34 63.515 113.456 62.4163 113.456H45.0242C43.9255 113.456 43.0343 114.34 43.0343 115.43C43.0343 116.521 43.9255 117.403 45.0242 117.403Z" fill="black"/>
<path d="M57.3547 115.211H61.2363V108.265C61.2363 107.338 60.4785 106.586 59.5441 106.586H59.0469C58.1126 106.586 57.3547 107.338 57.3547 108.265V115.211Z" fill="black"/>
<path d="M46.2004 115.211H50.082V108.265C50.082 107.338 49.3242 106.586 48.3899 106.586H47.8926C46.9583 106.586 46.2004 107.338 46.2004 108.265V115.211Z" fill="black"/>
<path d="M53.7963 139.867C54.8299 139.867 55.668 139.036 55.668 138.011V115.43H51.9247V138.011C51.9247 139.036 52.7628 139.867 53.7963 139.867Z" fill="black"/>
<path d="M51.0541 193.482H56.3813C57.8099 193.482 58.9688 192.334 58.9688 190.916V190.883C58.9688 189.466 57.8099 188.316 56.3813 188.316H51.0541C49.6256 188.316 48.4667 189.466 48.4667 190.883V190.916C48.4667 192.334 49.6246 193.482 51.0541 193.482Z" fill="black"/>
<path d="M52.8097 115.212H54.6191V191.798H52.8097V115.212Z" fill="black"/>
<path d="M53.8555 321V191.798" stroke="black" stroke-width="2.5" stroke-miterlimit="10" stroke-linecap="round" stroke-linejoin="round"/>
<path d="M86.2109 318.758L53.7114 190.9" stroke="black" stroke-width="2.5" stroke-miterlimit="10" stroke-linecap="round" stroke-linejoin="round"/>
<path d="M21.1372 318.758L53.6367 190.901" stroke="black" stroke-width="2.5" stroke-miterlimit="10" stroke-linecap="round" stroke-linejoin="round"/>
<path d="M86.7624 1H111.371C114.515 1 117.064 3.52736 117.064 6.64629V16.6106V20.0954V31.0121L111.276 25.7417H86.7624C83.6186 25.7417 81.0693 23.2143 81.0693 20.0954V6.64629C81.0703 3.52736 83.6186 1 86.7624 1Z" fill="white" stroke="black" stroke-width="0.75" stroke-miterlimit="10" stroke-linejoin="round"/>
<path d="M103.296 12.0671H107.723V20.55H103.296V12.0671Z" fill="black"/>
<path d="M101.986 12.0093V20.5309C101.986 20.5309 93.761 21.8036 91.4653 20.5309C89.7981 19.6063 89.4693 17.3096 89.2328 13.2839C88.9962 9.25823 94.984 10.1968 94.984 10.1968C94.984 10.1968 95.0181 4.292 96.7764 3.75511C98.5358 3.21822 98.7724 5.70084 98.8405 7.78179C98.9077 9.86273 100.396 11.54 101.986 12.0093Z" fill="black"/>
<path d="M237.435 62.4939H205.27C201.161 62.4939 197.828 65.7978 197.828 69.8731V82.8967V87.4513V101.72L205.394 94.8306H237.435C241.544 94.8306 244.875 91.5267 244.875 87.4503V69.8721C244.875 65.7977 241.544 62.4939 237.435 62.4939Z" fill="white" stroke="black" stroke-width="0.75" stroke-miterlimit="10" stroke-linecap="round" stroke-linejoin="round"/>
<path d="M221.642 89.3531C221.642 89.3531 237.258 77.3785 232.726 72.0216C228.22 66.6964 222.24 76.4231 222.24 76.4231C222.24 76.4231 218.12 67.3655 213.269 70.1226C207.212 73.5656 221.642 89.3531 221.642 89.3531Z" fill="black"/>
</svg>
