<?xml version="1.0" encoding="UTF-8"?>
<svg xmlns="http://www.w3.org/2000/svg" xmlns:xlink="http://www.w3.org/1999/xlink" viewBox="0 0 512 512" width="512" height="512"><defs><style>.cls-1,.cls-11,.cls-15,.cls-17,.cls-7,.cls-9{fill:none;}.cls-2{fill:#ffb833;}.cls-3{fill:#ffb08d;}.cls-4{fill:#ff535c;}.cls-5{clip-path:url(#clip-path);}.cls-6{fill:#fff3e3;}.cls-11,.cls-15,.cls-7,.cls-9{stroke:#383333;}.cls-11,.cls-15,.cls-17,.cls-7,.cls-9{stroke-linecap:round;stroke-linejoin:round;}.cls-7{stroke-dasharray:12;}.cls-8{fill:#aaeeea;}.cls-10{fill:#00ccc1;}.cls-11{stroke-width:0.75px;}.cls-12{fill:#ff8c5f;}.cls-13{fill:#ff832f;}.cls-14{fill:#383333;}.cls-15,.cls-16{fill-rule:evenodd;}.cls-16{fill:#fff;}.cls-17{stroke:#fff;}</style><clipPath id="clip-path"><path class="cls-1" d="M95.32,266c9.57-2.63,21.55-9.77,29.85-18.72,14-15.13,16-33.81,16.33-42.23a1.65,1.65,0,0,0-1.75-1.7c-8.41.53-27,3.14-41.72,17.61-8.69,8.57-15.46,20.75-17.8,30.4A58.35,58.35,0,0,0,95.32,266Z"/></clipPath></defs><g id="Concepting_Bussiness" data-name="Concepting Bussiness"><rect class="cls-2" x="349.25" y="184.44" width="3.05" height="18.32" rx="1.08"/><rect class="cls-2" x="349.25" y="184.44" width="3.05" height="18.32" rx="1.08" transform="translate(157.18 544.38) rotate(-90)"/><rect class="cls-2" x="164.27" y="72.54" width="3.05" height="18.32" rx="1.08"/><rect class="cls-2" x="164.27" y="72.54" width="3.05" height="18.32" rx="1.08" transform="translate(84.1 247.5) rotate(-90)"/><rect class="cls-2" x="190.35" y="193.6" width="3.74" height="22.46" rx="1.08"/><rect class="cls-2" x="190.35" y="193.6" width="3.74" height="22.46" rx="1.08" transform="translate(-12.6 397.04) rotate(-90)"/><path class="cls-3" d="M179.57,305.16c-1.89,6.23-13.57,45.06-18.7,72.24a39,39,0,0,0,.35,18.67c.62,2.16,3.34,10.8,14.54,20.44,21.11,18.16,55.64,25.46,64,27.12q-9.85-66-19.72-132Z"/><path class="cls-4" d="M90.27,232.7s-5.44-2-9.18.46C78.35,235,69.46,246,64.92,251.69a1.3,1.3,0,0,0,1.4,2.06,60,60,0,0,1,17.28-2.69Z"/><path class="cls-4" d="M113.08,254.81s2.21,5.38-.19,9.19c-1.76,2.8-12.45,12-18,16.73a1.31,1.31,0,0,1-2.11-1.33A59.51,59.51,0,0,0,94.92,262Z"/><g class="cls-5"><path class="cls-2" d="M95.32,266c9.57-2.63,21.55-9.77,29.85-18.72,14-15.13,16-33.81,16.33-42.23a1.65,1.65,0,0,0-1.75-1.7c-8.41.53-27,3.14-41.72,17.61-8.69,8.57-15.46,20.75-17.8,30.4A58.35,58.35,0,0,0,95.32,266Z"/><path class="cls-4" d="M140.42,231.56a50.75,50.75,0,0,0-9.21-14.08,50.18,50.18,0,0,0-18-12.25l18.34-18.9,27.15,26.34Z"/></g><path class="cls-4" d="M94.55,267.81a2.84,2.84,0,0,1-3.69.23,56.27,56.27,0,0,1-5.69-4.58,57.46,57.46,0,0,1-7-7.77,2.85,2.85,0,0,1,.12-3.69l.25-.25a2.89,2.89,0,0,1,4.09.11l12,11.61a2.89,2.89,0,0,1,.24,4.08Z"/><path class="cls-4" d="M91.21,271.25a2.84,2.84,0,0,1-3.68.22,57.26,57.26,0,0,1-5.7-4.57,56.66,56.66,0,0,1-7-7.77,2.85,2.85,0,0,1,.11-3.69l.26-.26a2.89,2.89,0,0,1,4.08.12l12,11.61a2.89,2.89,0,0,1,.23,4.08Z"/><circle class="cls-6" cx="113.29" cy="232.36" r="10.88"/><path class="cls-4" d="M107.66,238.17A8.09,8.09,0,1,1,119.1,238,8.11,8.11,0,0,1,107.66,238.17Z"/><path class="cls-2" d="M75.93,263a.24.24,0,0,0-.24-.12,9.66,9.66,0,0,0-7,4.22.25.25,0,0,0,.3.37,7.06,7.06,0,0,1,1.18-.4,7.24,7.24,0,0,1,1.55-.2.25.25,0,0,1,.14.45,8.08,8.08,0,0,0-3.57,7.08,7.78,7.78,0,0,0,2.1,4.65.25.25,0,0,0,.41-.08,4.28,4.28,0,0,1,1-1.48,5.22,5.22,0,0,1,2.64-1.1,8.59,8.59,0,0,0,4.24-2.47.25.25,0,0,1,.42.24,5,5,0,0,1-1.62,2.47.25.25,0,0,0,.13.44,5.79,5.79,0,0,0,6.63-6,.24.24,0,0,0-.12-.2,21.79,21.79,0,0,1-3.37-2.28A22,22,0,0,1,75.93,263Z"/><path class="cls-7" d="M68.3,289.61s-15.41,78.66,14.89,99.31S130.91,376.27,114,369.4s-65.52,62,51.79,96.51"/><path class="cls-8" d="M393.55,127.54c-29.22-15.48-36.35-50.89-21.42-71.22,14.6-19.87,47.86-22,65.33-6.69,19.14,16.81,19.75,55-7.76,78.18Z"/><path class="cls-9" d="M402.07,135.71s-8.17-52.17-14.49-46.64,14,24,22.66,11.33-2.64-25-4.75-16.72,12.39,19.09,20.29,9.34-2.37-7.37-5.53.27-6.85,45.05-6.85,45.05"/><path class="cls-10" d="M391.94,126.74h39.76a0,0,0,0,1,0,0v22.6a5.25,5.25,0,0,1-5.25,5.25H398.19a6.25,6.25,0,0,1-6.25-6.25v-21.6A0,0,0,0,1,391.94,126.74Z"/><rect class="cls-10" x="405.49" y="149.01" width="12.91" height="9.75" rx="4.37"/><path class="cls-3" d="M381.05,265.84c2-14.19.87-22-.67-26.53a72.76,72.76,0,0,1-2.91-13.87c-.42-3.78-.22-4.69-.06-5.22,1.13-4,4.62-5,8.25-10.63a29.34,29.34,0,0,0,1.67-3c3.3-24.22,5.94-36.36,7.88-36.17,5.67.57,3.72,32.86,3.72,32.86s8.75,1.14,8.94,8.12c0,0,7.17.37,7.17,6.7a7.1,7.1,0,0,1,4.72,6.9c-.19,5.29-2.07,14.92-7,19.64s-.19,19.83-.19,19.83S391.06,276.6,381.05,265.84Z"/><path class="cls-11" d="M398.93,203.33l-5.43,9.36L390,220.07c-1.23,2-1.29,7.64,3.18,6.84s14.68-15.46,14.68-15.46"/><path class="cls-11" d="M395.85,225.47s.34,4.18,3.2,3.75,16-11.07,16-11.07"/><path class="cls-11" d="M400.18,228.81s-.08,3.72,4.24,3.72,12.29-7.35,12.29-7.35"/><path class="cls-12" d="M340.91,128.79a14.15,14.15,0,0,1,10.39-4.29c.84,0,4.18.22,6.48,2.28,6,5.34,4.09,22.63-5.91,27.27-5.58,2.6-11.62.28-13.66-.61Z"/><path class="cls-11" d="M355.55,133l-9.74-.24s10,5.95,1.92,14.13"/><path class="cls-12" d="M215.1,128.79a14.15,14.15,0,0,0-10.39-4.29c-.84,0-4.18.22-6.48,2.28-6,5.34-4.09,22.63,5.9,27.27,5.59,2.6,11.63.28,13.67-.61Z"/><path class="cls-11" d="M200.45,133l9.75-.24s-10,5.95-1.92,14.13"/><circle class="cls-3" cx="278.55" cy="110.43" r="72.23"/><path class="cls-3" d="M257.73,177c2.6,24.3-3.55,35.92-9.59,42-11.32,11.47-27.17,8.61-38.94,24-3.65,4.76-6.18,10.31-8.19,19.47-7.94,36.08,2.56,79.2,6.39,102.26,3.54,21.34,5.11,52.18-4.79,91.88a192.5,192.5,0,0,0,54.32,17.57c53.55,8.8,97-7.72,116.64-16.78a592.2,592.2,0,0,1-10.38-97.46c-1.48-66.46,9-110.3-15-126.83-14-9.65-28.46-2.22-41.35-15.58-11.71-12.14-12-31.17-10.18-46.13C296.68,171.36,266.83,164.56,257.73,177Z"/><path class="cls-13" d="M229.1,230.14c-10.48,1.45-27.33,5.57-38.29,19.21-7.51,9.35-8.79,18.88-11.57,34s-7.18,36.74-14.32,63.7A93,93,0,0,0,213,361.37a194,194,0,0,0,16.1-131.23Z"/><path class="cls-13" d="M326.06,226.74c13-.53,32.62,1,44.13,13.85,3,3.4,5.53,7.59,8.81,13.15a168.23,168.23,0,0,1,13,27.39c3.86,10.13,10.35,24.52,21.82,42.72a45.75,45.75,0,0,1-19,23.78A44.48,44.48,0,0,1,374.17,354a191.73,191.73,0,0,1-48.11-127.23Z"/><path class="cls-3" d="M410.73,251c1.89,11.67,18.19,115.1-.13,122.33a30,30,0,0,1-13,1.58,33.08,33.08,0,0,1-18.49-10c-6.87-7.46-7.41-17.41-4.4-52.4,1.08-12.6,1.89-22.31,2.46-27.18,1.66-14.27,3.59-26.11,5.11-34.55a84.58,84.58,0,0,0,28.4.26Z"/><path class="cls-3" d="M206.27,103.83c-.17,5.49-1,56.46,34.53,81.05,4.7,3.26,17.69,12.24,36.28,12.51,20,.28,34.07-9.7,39.28-13.39,33.88-24,34.4-69.89,34.38-75.89C321.05,78.58,281.17,66,246.59,76.9Z"/><path class="cls-13" d="M251.74,208.06a12.13,12.13,0,0,0-2.78,2c-2.7,2.74-2.83,6.27-7.56,11.34-9.3,10-18.45,6.63-31.75,15.65-.56.38-10,6.64-15.43,16.4-8.57,15.35-2.58,30.79,1.66,55.09.66,3.77,1.85,21.36,4.23,56.54a528.44,528.44,0,0,1-2,91.5s79.39,52.72,183.05,0c-12.78-81.93-13.56-129.92-10.37-160.19.94-8.92,5.87-50.92-12.94-62.83a50.14,50.14,0,0,0-7.07-3.41c-8.76-3.66-32.29-7.76-37.33-9.45-8.27-2.78-4.17-9.19-10.78-12.63-6.07-3.16-12.48,2.78-28.16.9C265.72,207.9,258.2,204.24,251.74,208.06Z"/><path class="cls-14" d="M234.74,114.42a23.91,23.91,0,0,1,13.46-5c3.32-.21,7.8-.5,9.29,2a3.65,3.65,0,0,1,.06,3.67c-1.47,2.15-5.46.42-11.78.62-8.33.26-13.61,3.63-14.2,2.46C231.14,117.35,233.73,115.25,234.74,114.42Z"/><path class="cls-14" d="M322.22,114.75a23.77,23.77,0,0,0-13.48-5c-3.31-.2-7.8-.47-9.28,2.09a3.63,3.63,0,0,0,0,3.66c1.49,2.14,5.46.4,11.79.57,8.32.22,13.62,3.56,14.21,2.39C325.85,117.66,323.25,115.57,322.22,114.75Z"/><path class="cls-15" d="M277.93,127.08s-6.1,13.34-5.08,15.94S284.37,145,284.37,145"/><path class="cls-11" d="M286.66,167.32s-5,2-9.2.13"/><ellipse class="cls-12" cx="234.63" cy="147.21" rx="9.23" ry="5.75" transform="translate(-0.62 0.99) rotate(-0.24)"/><ellipse class="cls-12" cx="321.1" cy="147.21" rx="9.23" ry="5.75" transform="translate(-0.62 1.36) rotate(-0.24)"/><path class="cls-15" d="M258.1,194s21.43,7.91,38.36,0"/><path class="cls-3" d="M378.33,224.12c-.34-.89-.86-2.27-1.45-4-1.07-3.05-1-3.16-1.32-4-1.45-3.48-4.23-4.5-9.46-10.43-.55-.62-1-1.1-.81-1.55.45-1.48,6.6-2.27,11.46.1,4.47,2.19,5.5,5.92,9.64,6.2a7.75,7.75,0,0,0,3.3-.53,21.25,21.25,0,0,1-2.24,5.58A22.33,22.33,0,0,1,378.33,224.12Z"/><path class="cls-9" d="M192.22,266.79s8.46,26.42,8.81,64.11"/><path class="cls-9" d="M369.93,253.83c-1.33,14.71-2.2,30.7-2.28,47.83-.07,16.75.61,32.42,1.76,46.85"/><path class="cls-10" d="M344.46,445.39H199.61a8.82,8.82,0,0,1-8.7-7.2L174.26,316.63c-.81-5.89,2.8-10.74,8.08-10.74H361.73c5.28,0,8.9,4.85,8.09,10.74L353.16,438.19C352.62,442.19,348.72,445.39,344.46,445.39Z"/><path class="cls-3" d="M238.28,445.51s5.51-1.18,7-2.75,7.38-18.11,11.61-17-1.57,17.13-1.57,17.13,8.17-19.29,11.81-18.61-2.46,19.1-2.46,19.1,6.79-17.13,10.23-16.24-1.18,16.83-1.18,16.83,5.61-12.7,8.27-12.21-.79,16.24-3.84,19.39-5.12-3.24-5.12-3.24-8.56,7.67-8.66-.59c0,0-9.45,8.26-9.74.29C254.62,447.58,238,455.75,238.28,445.51Z"/><path class="cls-11" d="M255.67,442s-.67,4.4-1.42,5.74"/><path class="cls-11" d="M264.66,443.35s-.48,2.74-.87,4.41"/><path class="cls-11" d="M273.71,443.94a16.8,16.8,0,0,1-1.15,4.33"/><circle class="cls-8" cx="273.71" cy="375.01" r="19.68"/><path class="cls-15" d="M237,128.34a8.48,8.48,0,0,1,15.85,0"/><path class="cls-15" d="M303.76,128.34a8.48,8.48,0,0,1,15.85,0"/><path class="cls-16" d="M268,154A54.36,54.36,0,0,0,294.78,153a14.14,14.14,0,0,1-5.68,9.39,14,14,0,0,1-15.46-.26A14.63,14.63,0,0,1,268,154Z"/><path class="cls-14" d="M278.49,51.19s-17.11-5.92-23.21,9.52-.42,49.6-42.31,53.51c0,0,5,27.81,1.09,30.81s-11.89-20.93-16.12-47.47,26.21-86,86.43-61.95c0,0,47.89-11.63,63.56,19.55s-.2,93-4.28,92.05-.06-28.77-.06-28.77-20.6-4.1-22.49-21.27S307.52,38.25,278.49,51.19Z"/><path class="cls-17" d="M282.06,44.59s23.42-6.34,33.72,7.4,11.63,59.62,32.5,57.29"/><path class="cls-17" d="M332.69,61.5s1.23,36,17,36.37"/><path class="cls-17" d="M272.73,44.85s-20.53-3.43-27.84,14-9.76,51-34.69,44.91"/><path class="cls-17" d="M234.63,57s-4.75,37.78-29.3,35.93"/></g></svg>
