<svg width="143" height="8" viewBox="0 0 143 8" fill="none" xmlns="http://www.w3.org/2000/svg">
<line y1="-1.5" x2="9.27088" y2="-1.5" transform="matrix(-0.762331 0.647188 -0.762331 -0.647188 7.06836 0)" stroke="white" stroke-opacity="0.5" stroke-width="3"/>
<line y1="-1.5" x2="9.27088" y2="-1.5" transform="matrix(-0.762331 0.647188 -0.762331 -0.647188 14.0645 0)" stroke="white" stroke-opacity="0.5" stroke-width="3"/>
<line y1="-1.5" x2="9.27088" y2="-1.5" transform="matrix(-0.762331 0.647188 -0.762331 -0.647188 21.0605 0)" stroke="white" stroke-opacity="0.5" stroke-width="3"/>
<line y1="-1.5" x2="9.27088" y2="-1.5" transform="matrix(-0.762331 0.647188 -0.762331 -0.647188 28.0566 0)" stroke="white" stroke-opacity="0.5" stroke-width="3"/>
<line y1="-1.5" x2="9.27088" y2="-1.5" transform="matrix(-0.762331 0.647188 -0.762331 -0.647188 35.0527 0)" stroke="white" stroke-opacity="0.5" stroke-width="3"/>
<line y1="-1.5" x2="9.27088" y2="-1.5" transform="matrix(-0.762331 0.647188 -0.762331 -0.647188 42.0508 0)" stroke="white" stroke-opacity="0.5" stroke-width="3"/>
<line y1="-1.5" x2="9.27088" y2="-1.5" transform="matrix(-0.762331 0.647188 -0.762331 -0.647188 49.0469 0)" stroke="white" stroke-opacity="0.5" stroke-width="3"/>
<line y1="-1.5" x2="9.27088" y2="-1.5" transform="matrix(-0.762331 0.647188 -0.762331 -0.647188 56.043 0)" stroke="white" stroke-opacity="0.5" stroke-width="3"/>
<line y1="-1.5" x2="9.27088" y2="-1.5" transform="matrix(-0.762331 0.647188 -0.762331 -0.647188 63.0391 0)" stroke="white" stroke-opacity="0.5" stroke-width="3"/>
<line y1="-1.5" x2="9.27088" y2="-1.5" transform="matrix(-0.762331 0.647188 -0.762331 -0.647188 70.0352 0)" stroke="white" stroke-opacity="0.5" stroke-width="3"/>
<line y1="-1.5" x2="9.27088" y2="-1.5" transform="matrix(-0.762331 0.647188 -0.762331 -0.647188 77.0332 0)" stroke="white" stroke-opacity="0.5" stroke-width="3"/>
<line y1="-1.5" x2="9.27088" y2="-1.5" transform="matrix(-0.762331 0.647188 -0.762331 -0.647188 84.0293 0)" stroke="white" stroke-opacity="0.5" stroke-width="3"/>
<line y1="-1.5" x2="9.27088" y2="-1.5" transform="matrix(-0.762331 0.647188 -0.762331 -0.647188 91.0254 0)" stroke="white" stroke-opacity="0.5" stroke-width="3"/>
<line y1="-1.5" x2="9.27088" y2="-1.5" transform="matrix(-0.762331 0.647188 -0.762331 -0.647188 98.0215 0)" stroke="white" stroke-opacity="0.5" stroke-width="3"/>
<line y1="-1.5" x2="9.27088" y2="-1.5" transform="matrix(-0.762331 0.647188 -0.762331 -0.647188 105.018 0)" stroke="white" stroke-opacity="0.5" stroke-width="3"/>
<line y1="-1.5" x2="9.27088" y2="-1.5" transform="matrix(-0.762331 0.647188 -0.762331 -0.647188 112.014 0)" stroke="white" stroke-opacity="0.5" stroke-width="3"/>
<line y1="-1.5" x2="9.27088" y2="-1.5" transform="matrix(-0.762331 0.647188 -0.762331 -0.647188 119.01 0)" stroke="white" stroke-opacity="0.5" stroke-width="3"/>
<line y1="-1.5" x2="9.27088" y2="-1.5" transform="matrix(-0.762331 0.647188 -0.762331 -0.647188 126.006 0)" stroke="white" stroke-opacity="0.5" stroke-width="3"/>
<line y1="-1.5" x2="9.27088" y2="-1.5" transform="matrix(-0.762331 0.647188 -0.762331 -0.647188 133.002 0)" stroke="white" stroke-opacity="0.5" stroke-width="3"/>
<line y1="-1.5" x2="9.27088" y2="-1.5" transform="matrix(-0.762331 0.647188 -0.762331 -0.647188 139.998 0)" stroke="white" stroke-opacity="0.5" stroke-width="3"/>
</svg>
