<svg width="170" height="160" viewBox="0 0 170 160" fill="none" xmlns="http://www.w3.org/2000/svg">
<path d="M170 80C170 35.8172 134.481 3.24489e-05 90.6668 3.05176e-05L90.6668 50C107.097 50 120.417 63.4315 120.417 80C120.417 96.5686 107.097 110 90.6668 110L90.6667 160C134.481 160 170 124.183 170 80Z" fill="black"/>
<path d="M0.00015675 80C0.000154834 35.8172 35.5189 3.24489e-05 79.3335 3.05176e-05L79.3335 50C62.903 50 49.5835 63.4315 49.5835 80C49.5835 96.5686 62.903 110 79.3335 110L79.3335 160C35.5189 160 0.000158665 124.183 0.00015675 80Z" fill="black"/>
</svg>
