<svg width="104" height="28" viewBox="0 0 104 28" fill="none" xmlns="http://www.w3.org/2000/svg">
<path d="M36.9 22L39.46 6.91999H43.34L46.36 14.96L49.36 6.91999H53.24L55.8 22H51.9L50.6 13.32L47.04 22H45.48L42.1 13.32L40.8 22H36.9ZM66.4831 16.4L64.7231 11.38L62.9631 16.4H66.4831ZM67.5231 19.38H61.9231L61.0231 22H56.8431L62.5831 6.91999H66.8631L72.6031 22H68.4231L67.5231 19.38ZM78.2383 13.66H78.9783C79.7516 13.66 80.3449 13.5 80.7583 13.18C81.1716 12.86 81.3783 12.4 81.3783 11.8C81.3783 11.2 81.1716 10.74 80.7583 10.42C80.3449 10.1 79.7516 9.93999 78.9783 9.93999H78.2383V13.66ZM86.8583 22H81.9783L78.2383 16.2V22H74.3183V6.91999H80.4183C81.2583 6.91999 81.9916 7.04666 82.6183 7.29999C83.2449 7.53999 83.7583 7.87332 84.1583 8.29999C84.5716 8.72665 84.8783 9.21999 85.0783 9.77999C85.2916 10.34 85.3983 10.94 85.3983 11.58C85.3983 12.7267 85.1183 13.66 84.5583 14.38C84.0116 15.0867 83.1983 15.5667 82.1183 15.82L86.8583 22ZM92.2813 6.91999V15.12C92.2813 15.56 92.2946 16.0133 92.3213 16.48C92.3613 16.9333 92.4613 17.3467 92.6213 17.72C92.7946 18.0933 93.0613 18.4 93.4213 18.64C93.7813 18.8667 94.2879 18.98 94.9413 18.98C95.5946 18.98 96.0946 18.8667 96.4413 18.64C96.8013 18.4 97.0679 18.0933 97.2413 17.72C97.4146 17.3467 97.5146 16.9333 97.5413 16.48C97.5813 16.0133 97.6013 15.56 97.6013 15.12V6.91999H101.501V15.66C101.501 18.0067 100.961 19.72 99.8813 20.8C98.8146 21.88 97.1679 22.42 94.9413 22.42C92.7146 22.42 91.0613 21.88 89.9813 20.8C88.9013 19.72 88.3613 18.0067 88.3613 15.66V6.91999H92.2813Z" fill="white"/>
<path d="M30 14C30 6.26801 23.732 3.37976e-07 16 0L16 8.75C18.8995 8.75 21.25 11.1005 21.25 14C21.25 16.8995 18.8995 19.25 16 19.25L16 28C23.732 28 30 21.732 30 14Z" fill="white"/>
<path d="M-6.11959e-07 14C-9.49935e-07 6.26802 6.26801 4.15267e-06 14 3.8147e-06L14 8.75C11.1005 8.75 8.75 11.1005 8.75 14C8.75 16.8995 11.1005 19.25 14 19.25L14 28C6.26801 28 -2.73984e-07 21.732 -6.11959e-07 14Z" fill="white"/>
</svg>
