<svg width="24" height="24" viewBox="0 0 24 24" fill="none" xmlns="http://www.w3.org/2000/svg">
<g clip-path="url(#clip0_139_524)">
<path d="M20.3243 7.26447C19.24 7.26447 18.2395 6.90525 17.4361 6.29925C16.5147 5.60456 15.8526 4.58554 15.6188 3.41103C15.561 3.12083 15.5298 2.82136 15.5268 2.51447H12.4293V10.9784L12.4256 15.6144C12.4256 16.8539 11.6185 17.9048 10.4996 18.2744C10.1749 18.3817 9.82422 18.4325 9.45906 18.4125C8.99297 18.3869 8.55619 18.2462 8.17656 18.0191C7.36869 17.536 6.82095 16.6594 6.80611 15.6568C6.78273 14.0896 8.04965 12.8119 9.61566 12.8119C9.92478 12.8119 10.2217 12.8624 10.4996 12.9541V10.6407V9.80906C10.2064 9.76564 9.90808 9.743 9.60638 9.743C7.8923 9.743 6.28918 10.4555 5.14324 11.7391C4.27711 12.7092 3.75758 13.9467 3.67742 15.2445C3.5724 16.9493 4.19621 18.5698 5.40597 19.7655C5.58373 19.941 5.77039 20.1039 5.96558 20.2542C7.00279 21.0525 8.27082 21.4851 9.60638 21.4851C9.90808 21.4851 10.2064 21.4629 10.4996 21.4195C11.7472 21.2347 12.8984 20.6635 13.8068 19.7655C14.923 18.6622 15.5398 17.1975 15.5465 15.6386L15.5305 8.71544C16.063 9.12624 16.6453 9.46616 17.2702 9.73001C18.2421 10.1401 19.2726 10.3479 20.3332 10.3475V8.09831V7.26372C20.334 7.26447 20.3251 7.26447 20.3243 7.26447Z" fill="white"/>
</g>
<defs>
<clipPath id="clip0_139_524">
<rect width="19" height="19" fill="white" transform="translate(2.5 2.5)"/>
</clipPath>
</defs>
</svg>
