<svg height="512" viewBox="0 0 512 512" width="512" xmlns="http://www.w3.org/2000/svg" xmlns:xlink="http://www.w3.org/1999/xlink"><clipPath id="clip-path"><path d="m382 374.81c11.15-18.92 19.17-48.69 18.55-75.69-1-45.61-26.57-78.4-39.09-92.2a3.65 3.65 0 0 0 -5.41 0c-12.53 13.8-38.06 46.59-39.1 92.2-.61 27 7.4 56.77 18.56 75.69a128.38 128.38 0 0 0 23.7 2.11 130 130 0 0 0 22.79-2.11z"/></clipPath><g id="Achieving_The_Goal" data-name="Achieving The Goal"><path d="m298.7 185.23s6-21.5 6-31.45-6.18-20.58-3-21.61 6.77 1.54 8.83 8.4 12.55 5.32 17.34 5.32 32.15-2.74 35.28-.17.56 5.32-7.51 8.23-19.72 14-22.81 19.88-6.35 14.28-6.35 14.28-20.75 12.45-27.78-2.88z" fill="#ffdb99"/><path d="m322.67 329.72s-11.8 5.13-13.85 14.88c-1.51 7.15 1.27 38.25 2.85 54.31a2.9 2.9 0 0 0 5.41 1.13c4.62-8.27 12.69-21 23.3-30.89z" fill="#00ccc1"/><path d="m392.94 329.72s11.8 5.13 13.86 14.88c1.5 7.15-1.27 38.25-2.86 54.31a2.89 2.89 0 0 1 -5.4 1.13c-4.62-8.27-12.69-21-23.3-30.89z" fill="#00ccc1"/><g clip-path="url(#clip-path)"><path d="m382 374.81c11.15-18.92 19.17-48.69 18.55-75.69-1-45.61-26.57-78.4-39.09-92.2a3.65 3.65 0 0 0 -5.41 0c-12.53 13.8-38.06 46.59-39.1 92.2-.61 27 7.4 56.77 18.56 75.69a128.38 128.38 0 0 0 23.7 2.11 130 130 0 0 0 22.79-2.11z" fill="#ff535c"/><path d="m400.55 250.7a112 112 0 0 0 -36.32-8.17 110.89 110.89 0 0 0 -47.35 8.17v-58.24h83.67z" fill="#00ccc1"/></g><path d="m383.54 378.89a6.28 6.28 0 0 1 -5.51 6 124.49 124.49 0 0 1 -39.22 0 6.27 6.27 0 0 1 -5.49-6v-.8a6.41 6.41 0 0 1 6.68-6.09h36.88a6.41 6.41 0 0 1 6.67 6.12z" fill="#00ccc1"/><path d="m383.54 389.48a6.27 6.27 0 0 1 -5.51 6 124.83 124.83 0 0 1 -39.22 0 6.28 6.28 0 0 1 -5.49-6v-.79a6.41 6.41 0 0 1 6.67-6.12h36.88a6.41 6.41 0 0 1 6.67 6.12z" fill="#00ccc1"/><circle cx="358.71" cy="293.74" fill="#fff3e3" r="24.06"/><path d="m358.71 311.64a17.9 17.9 0 1 1 17.9-17.9 17.92 17.92 0 0 1 -17.9 17.9z" fill="#00ccc1"/><path d="m346.56 399.92a.53.53 0 0 0 -.55.17 21.48 21.48 0 0 0 -4.58 17.44.55.55 0 0 0 1.05.12 15.92 15.92 0 0 1 1.26-2.45 15.45 15.45 0 0 1 2.16-2.7.55.55 0 0 1 .92.5c-1.19 6.37.73 12.75 5.23 16.75a17.13 17.13 0 0 0 10.5 4.13.54.54 0 0 0 .53-.75 9.18 9.18 0 0 1 -.64-3.94 11.17 11.17 0 0 1 2.49-5.81c1.4-2.08 2.78-5.31 2.92-10.45a.55.55 0 0 1 1-.27 11.15 11.15 0 0 1 1.24 6.43.55.55 0 0 0 .88.49 12.82 12.82 0 0 0 1.36-19.67.53.53 0 0 0 -.52-.14 47.62 47.62 0 0 1 -8.85 1.58 49 49 0 0 1 -16.4-1.43z" fill="#ffb833"/><path d="m263.24 41.77h41.11a4 4 0 0 1 4 4v38a4 4 0 0 1 -4 4h-16.61a28.46 28.46 0 0 1 -28.46-28.46v-13.57a4 4 0 0 1 3.96-3.97z" fill="none" stroke="#ff832f" stroke-linecap="round" stroke-linejoin="round" stroke-width="9"/><path d="m399.34 41.77h16.66a4 4 0 0 1 4 4v38a4 4 0 0 1 -4 4h-41.16a4 4 0 0 1 -4-4v-13.53a28.46 28.46 0 0 1 28.5-28.47z" fill="none" stroke="#ff832f" stroke-linecap="round" stroke-linejoin="round" stroke-width="9" transform="matrix(-1 0 0 -1 790.79 129.52)"/><path d="m327.87 91.52h20.93v35.95h-20.93z" fill="#ff832f"/><path d="m281 31.82h114.67a3 3 0 0 1 3 3v25.26a41 41 0 0 1 -41 41h-38a41.71 41.71 0 0 1 -41.67-41.67v-24.54a3 3 0 0 1 3-3.05z" fill="#ffb833"/><rect fill="#ffb833" height="34.31" rx="3.31" width="60.04" x="308.32" y="113.13"/><rect fill="#ffdb99" height="21.96" rx="2.46" width="49.4" x="313.75" y="118.62"/><rect fill="#ffb833" height="16.86" rx="1.08" width="2.81" x="292.21" y="309.76"/><rect fill="#ffb833" height="16.86" rx="1.08" transform="matrix(0 -1 1 0 -24.57 611.81)" width="2.81" x="292.21" y="309.76"/><rect fill="#ffb833" height="16.86" rx="1.08" width="2.81" x="228.73" y="79.31"/><rect fill="#ffb833" height="16.86" rx="1.08" transform="matrix(0 -1 1 0 142.4 317.88)" width="2.81" x="228.73" y="79.31"/><rect fill="#ffb833" height="20.67" rx="1.08" width="3.45" x="405.51" y="108.28"/><rect fill="#ffb833" height="20.67" rx="1.08" transform="matrix(0 -1 1 0 288.61 525.85)" width="3.45" x="405.51" y="108.28"/><path d="m308.42 157.9a194.2 194.2 0 0 1 -34.7 62.52c-36.51 44-82.71 59.33-102.18 64.58q.78 32.16 1.54 64.33a232.77 232.77 0 0 0 81.31-43.74c61.06-51 77-118.85 81.31-142z" fill="#ffdb99"/><circle cx="198.92" cy="174.31" fill="#ffdb99" r="63.66"/><path d="m172.35 238.74c45.44 15.11 65.25 8.26 75-.46 26.85-24.12 15.23-97.28 15.23-97.28s-50.93-57.26-100.94-18.33c-3.5 2.72-17.93 13.41-23.64 32.46-8.35 27.87 5.29 61.3 34.35 83.61z" fill="#ffdb99"/><path d="m191.86 170.45a18.1 18.1 0 0 1 10.62-2.35c2.51.19 5.9.44 6.75 2.51a2.72 2.72 0 0 1 -.34 2.75c-1.33 1.46-4.13-.25-8.9-.77-6.27-.67-10.58 1.3-10.9.36-.24-.68 1.91-1.95 2.77-2.5z" fill="#ff832f"/><path d="m256.55 173.67a17.9 17.9 0 0 0 -10.55-2.67c-2.51.11-5.91.26-6.82 2.29a2.76 2.76 0 0 0 .26 2.77c1.28 1.49 4.14-.13 8.91-.5 6.29-.49 10.54 1.62 10.9.69.26-.67-1.86-2.04-2.7-2.58z" fill="#ff832f"/><path d="m226.44 184.7s4.41 10.2 3.6 12.15-8.75 1.29-8.75 1.29" fill="none" stroke="#383333" stroke-linecap="round" stroke-linejoin="round"/><ellipse cx="191.31" cy="199.01" fill="#ffc871" rx="4.35" ry="6.99" transform="matrix(.016 -1 1 .016 -10.78 387.06)"/><ellipse cx="247.75" cy="204.09" fill="#ffc871" rx="4.35" ry="6.99" transform="matrix(.016 -1 1 .016 39.66 448.49)"/><path d="m169.16 176.05a12 12 0 0 0 -8.12-5 9.28 9.28 0 0 0 -5.74 1c-5.7 3.67-6.48 18.39 1.26 23.63 4.32 2.93 9.69 1.8 11.52 1.33z" fill="#ffdb99"/><path d="m156.12 178.87 8.19 1.11s-9.21 3.63-3.52 11.58" fill="none" stroke="#383333" stroke-linecap="round" stroke-linejoin="round" stroke-width=".75"/><path d="m249.41 194.33a5.26 5.26 0 1 1 .33-7.43 5.28 5.28 0 0 1 -.33 7.43z" fill="#383333" fill-rule="evenodd"/><path d="m254.9 187.88c-.11-.11-1.32 1.55-2.62 1.29-1-.2-1.1-1.3-2.23-2.36a6.39 6.39 0 0 0 -3.57-1.58 13.59 13.59 0 0 0 1.79 3.28c1 1.42 1.73 2.34 2.78 2.46 2.11.26 3.95-2.97 3.85-3.09z" fill="#383333" fill-rule="evenodd"/><path d="m205.31 191a5.26 5.26 0 1 1 .76-7.39 5.28 5.28 0 0 1 -.76 7.39z" fill="#383333" fill-rule="evenodd"/><path d="m193.42 183.09c.12-.1 1.07 1.73 2.4 1.65 1-.05 1.27-1.11 2.55-2a6.32 6.32 0 0 1 3.76-1 13.57 13.57 0 0 1 -2.25 3c-1.25 1.25-2.06 2.06-3.11 2-2.13-.08-3.51-3.53-3.35-3.65z" fill="#383333" fill-rule="evenodd"/><path d="m222.15 223.88a10.6 10.6 0 0 1 -6.93-1.38" fill="none" stroke="#383333" stroke-linecap="round" stroke-linejoin="round" stroke-width=".75"/><path d="m169.16 221.4s-.53 22.12-8.95 31.32-29.72 6.73-33.6 80.67 2.18 98.52-11.61 131.31c0 0 60.86 25.6 128.51 6 0 0-12.86-160.49-30.71-184.65s-6.21-56.38-6.21-56.38z" fill="#ffdb99"/><path d="m191.31 268.83s38.7 12.94 47.63 39.69 38.26 116.78 38.26 116.78-14 15.53-42.94 15.53c0 0-80.51-161.65-42.95-172z" fill="#ffdb99"/><path d="m203.17 246.47s-13.25-2.79-23.94-8.5" fill="none" stroke="#383333" stroke-linecap="round" stroke-linejoin="round"/><path d="m307.66 356.27s8.65-11.61 9.61-16.58 1-18.51 6-23.88 5.15 7.9 4.83 9.9 7.26-10.6 15-13.81 14.48-4.3 16.7-1.45-7.62 4.85-11.27 7.32-6.3 6.7-5.51 7 13.89-10.41 22.37-8.1 3.95 4.77.38 5.55-14 7.07-13.92 8 9.22-4 15.8-2.89 7.22 2 7.1 3.57-7.06 1.33-11.38 3.18-6.34 3.56-5.24 4.19 7 .1 10.62 2.24 3.59 3.19 1.51 3.81-9.13.77-12.54 1.88-14.93 20.5-22.72 19.27-27.34-9.2-27.34-9.2z" fill="#ffdb99"/><path d="m230.14 212.49s-7.41 3.35-20-4c0 0 2 9.84 9.64 10.79s10.36-6.79 10.36-6.79z" fill="#fff"/><path d="m156.12 256.06s19.54 9.3 51.13 20.32 38.51 49.79 46.37 70.37 12.7 45.19 12.7 45.19-8.48 13.28-27.32 16.06c0 0 1 41.17 9.27 66.9 0 0-100.86 21.09-140-10.3 0 0 12.86-69.1 13.38-127.43s4.7-93.58 34.47-81.11z" fill="#383333"/><path d="m229.26 124.79s-3.12 32.59-55.61 38.08c0 0 4.29 24 0 26.25s-1.38-11.74-7.65-16.12-14-1.29-14.93 7.35 1 19.51 17 16.73 1.45 23.12 8.14 34.19 12.19 64.73.53 75.73-32.94 19.9-71-3.43 4.79-37 9.26-74.1-14.65-170.35 115.14-118.82c0 0 42.36-10.39 34.55 51.85 0 0-11.69-23.64-35.43-37.71z" fill="#ff832f"/><path d="m190.12 275.23s20.19-4.92 48-21.67c0 0 29.19 22.18 31.93 46.54 0 0-26.07 28.5-56.6 37.06z" fill="#383333"/><path d="m198.92 273.42s17.88 5.69 26.79 14.68 17.78 32.15 17.78 32.15" fill="none" stroke="#fff" stroke-linecap="round" stroke-linejoin="round"/><path d="m314.35 348.57a442.21 442.21 0 0 1 -50.1 45c-19.17 14.69-33.91 23.39-33.57 36.71.18 7.31 4.89 15.21 11.61 18.2 8.61 3.82 18.37-1.38 23.85-4.4 29.88-16.46 61.69-66.73 70.44-80.95z" fill="#ffdb99"/><path d="m225.62 409s2.48 27.79 9.57 33.61 21.05-13.54 21.05-13.54l-2.62-26s-15.13 7.75-28 5.93z" fill="#ffdb99"/><g fill="none" stroke-linecap="round" stroke-linejoin="round"><path d="m239.84 423.4a30.35 30.35 0 0 1 11.72-20.32" stroke="#383333"/><path d="m210.23 328.63s5.83 46.78 15.39 80.39" stroke="#fff"/><path d="m221.29 122s-26.4 38.5-61.27 35.89" stroke="#383333"/><path d="m196.72 135.39s-34.52 19.21-52.36 17.15" stroke="#383333"/><path d="m236 118.62s24.14 3.45 26.62 28.82" stroke="#383333"/><path d="m160.21 208.57s27.22 75.36-4.09 97" stroke="#383333"/><path d="m150.89 242.22s10.45 56.12-24.54 58.18" stroke="#383333"/><path d="m110.91 265.41s-16.46 20.65 0 31.42" stroke="#383333"/></g></g></svg>